SplineFontDB: 1.0
FontName: THKodchasal-Italic
FullName: THKodchasal-Italic
FamilyName: TH Kodchasal
Weight: Book
Copyright: Copyright (c) 2006 by Department of Intellectual Property (DIP), Ministry of Commerce and Software Industry Promotion Agency (Public Organization) (SIPA). All rights reserved.
Version: 1.1
ItalicAngle: -12
UnderlinePosition: -35
UnderlineWidth: 30
Ascent: 800
Descent: 200
Order2: 1
XUID: [1021 375 425136265 7891865]
FSType: 0
OS2Version: 3
OS2_WeightWidthSlopeOnly: 0
OS2_UseTypoMetrics: 1
CreationTime: 1157456700
ModificationTime: 1174462367
PfmFamily: 17
TTFWeight: 400
TTFWidth: 5
LineGap: 30
VLineGap: 0
Panose: 2 0 5 6 0 0 0 2 0 4
OS2TypoAscent: 0
OS2TypoAOffset: 1
OS2TypoDescent: 0
OS2TypoDOffset: 1
OS2TypoLinegap: 0
OS2WinAscent: 10
OS2WinAOffset: 1
OS2WinDescent: 4
OS2WinDOffset: 1
HheadAscent: -45
HheadAOffset: 1
HheadDescent: 261
HheadDOffset: 1
OS2SubXSize: 700
OS2SubYSize: 650
OS2SubXOff: 0
OS2SubYOff: 140
OS2SupXSize: 700
OS2SupYSize: 650
OS2SupXOff: 0
OS2SupYOff: 477
OS2StrikeYSize: 30
OS2StrikeYPos: 250
OS2FamilyClass: 773
OS2Vendor: 'IPTH'
ScriptLang: 2
 1 latn 1 dflt 
 0 
ChainSub: coverage 0 0 'liga' 0 0 0 1
 1 0 1
  Coverage: 64 uni0E48.alt2 uni0E49.alt2 uni0E4A.alt2 uni0E4B.alt2 uni0E4C.alt2
  FCoverage: 7 uni0E33
 1
  SeqLookup: 0 'L027'
EndFPST
ChainSub: coverage 0 0 'liga' 0 0 0 1
 1 1 0
  Coverage: 7 uni0E47
  BCoverage: 12 uni0E2C.alt1
 1
  SeqLookup: 0 'L026'
EndFPST
ChainSub: coverage 0 0 'liga' 0 0 0 1
 1 0 1
  Coverage: 7 uni0E2C
  FCoverage: 39 uni0E34 uni0E35 uni0E36 uni0E37 uni0E47
 1
  SeqLookup: 0 'L026'
EndFPST
ChainSub: coverage 0 0 'liga' 0 0 0 1
 1 0 1
  Coverage: 15 uni0E0E uni0E0F
  FCoverage: 38 uni0E38.alt1 uni0E39.alt1 uni0E3A.alt1
 1
  SeqLookup: 0 'L026'
EndFPST
ChainSub: coverage 0 0 'liga' 0 0 0 1
 1 1 0
  Coverage: 5 a b c
  BCoverage: 23 uni0E1B uni0E1D uni0E1F
 1
  SeqLookup: 0 'L026'
EndFPST
ChainSub: coverage 0 0 'liga' 0 0 0 1
 1 0 1
  Coverage: 5 a b c

StartChar: .notdef
Encoding: 65536 -1 0
Width: 500
Flags: W
Fore
409 35 m 1,0,-1
 542 660 l 1,1,-1
 237 660 l 1,2,-1
 104 35 l 1,3,-1
 409 35 l 1,0,-1
436 0 m 1,4,-1
 63 0 l 1,5,-1
 210 695 l 1,6,-1
 583 695 l 1,7,-1
 436 0 l 1,4,-1
EndSplineSet
EndChar
StartChar: numbersign
Encoding: 35 35 4
Width: 458
Flags: W
Fore
480 331 m 0,0,1
 472 313 472 313 446 313 c 2,2,-1
 402 313 l 1,3,-1
 353 188 l 1,4,-1
 397 188 l 2,5,6
 424 188 424 188 416 168 c 0,7,8
 409 150 409 150 382 150 c 2,9,-1
 338 150 l 1,10,-1
 290 26 l 2,11,12
 280 0 280 0 262 0 c 0,13,14
 243 0 243 0 253 26 c 2,15,-1
 301 150 l 1,16,-1
 199 150 l 1,17,-1
 151 26 l 2,18,19
 141 0 141 0 123 0 c 0,20,21
 102 0 102 0 114 26 c 2,22,-1
 161 150 l 1,23,-1
 109 150 l 2,24,25
 82 150 82 150 89 168 c 0,26,27
 97 188 97 188 123 188 c 2,28,-1
 176 188 l 1,29,-1
 225 313 l 1,30,-1
 172 313 l 2,31,32
 145 313 145 313 153 331 c 0,33,34
 161 351 161 351 187 351 c 2,35,-1
 240 351 l 1,36,-1
 282 458 l 2,37,38
 292 485 292 485 312 485 c 0,39,40
 329 485 329 485 319 458 c 2,41,-1
 277 351 l 1,42,-1
 379 351 l 1,43,-1
 421 458 l 2,44,45
 431 485 431 485 451 485 c 0,46,47
 469 485 469 485 459 458 c 2,48,-1
 417 351 l 1,49,-1
 460 351 l 2,50,51
 488 351 488 351 480 331 c 0,0,1
263 313 m 1,52,-1
 213 188 l 1,53,-1
 315 188 l 1,54,-1
 364 313 l 1,55,-1
 263 313 l 1,52,-1
EndSplineSet
EndChar
StartChar: dollar
Encoding: 36 36 5
Width: 423
Flags: W
Fore
433 135 m 0,0,1
 422 84 422 84 378 47 c 0,2,3
 350 24 350 24 312 11 c 128,-1,4
 274 -2 274 -2 229 -4 c 1,5,-1
 223 -32 l 2,6,7
 217 -59 217 -59 199 -59 c 0,8,9
 179 -59 179 -59 185 -32 c 2,10,-1
 191 -4 l 1,11,12
 135 1 135 1 95.5 23 c 128,-1,13
 56 45 56 45 43 80 c 1,14,15
 39 87 39 87 43 94.5 c 128,-1,16
 47 102 47 102 55 107 c 0,17,18
 63 111 63 111 70.5 109 c 128,-1,19
 78 107 78 107 80 100 c 0,20,21
 90 74 90 74 122 56.5 c 128,-1,22
 154 39 154 39 199 36 c 1,23,-1
 239 224 l 1,24,25
 209 227 209 227 180.5 234.5 c 128,-1,26
 152 242 152 242 131 257 c 128,-1,27
 110 272 110 272 100 294.5 c 128,-1,28
 90 317 90 317 97 349 c 0,29,30
 110 410 110 410 162.5 446.5 c 128,-1,31
 215 483 215 483 295 488 c 1,32,-1
 302 519 l 2,33,34
 308 546 308 546 328 546 c 0,35,36
 346 546 346 546 340 519 c 2,37,-1
 333 489 l 1,38,39
 391 486 391 486 432.5 463.5 c 128,-1,40
 474 441 474 441 488 405 c 0,41,42
 491 398 491 398 487 390.5 c 128,-1,43
 483 383 483 383 475 378 c 0,44,45
 467 374 467 374 459.5 376 c 128,-1,46
 452 378 452 378 449 385 c 0,47,48
 439 412 439 412 405.5 429.5 c 128,-1,49
 372 447 372 447 325 449 c 1,50,-1
 285 261 l 1,51,52
 331 259 331 259 365 245.5 c 128,-1,53
 399 232 399 232 417 209 c 0,54,55
 442 176 442 176 433 135 c 0,0,1
287 449 m 1,56,57
 261 447 261 447 236 440.5 c 128,-1,58
 211 434 211 434 190.5 422.5 c 128,-1,59
 170 411 170 411 155.5 393 c 128,-1,60
 141 375 141 375 136 349 c 0,61,62
 131 326 131 326 140 310.5 c 128,-1,63
 149 295 149 295 165.5 285.5 c 128,-1,64
 182 276 182 276 204 271 c 128,-1,65
 226 266 226 266 247 263 c 1,66,-1
 287 449 l 1,56,57
394 135 m 0,67,68
 400 161 400 161 384 181 c 0,69,70
 370 199 370 199 342 209.5 c 128,-1,71
 314 220 314 220 277 222 c 1,72,-1
 237 35 l 1,73,74
 263 36 263 36 288.5 42.5 c 128,-1,75
 314 49 314 49 336 61 c 128,-1,76
 358 73 358 73 373.5 91 c 128,-1,77
 389 109 389 109 394 135 c 0,67,68
EndSplineSet
EndChar
StartChar: percent
Encoding: 37 37 6
Width: 403
Flags: W
Fore
295 420 m 0,0,1
 291 402 291 402 280.5 385.5 c 128,-1,2
 270 369 270 369 255 356.5 c 128,-1,3
 240 344 240 344 222.5 337 c 128,-1,4
 205 330 205 330 186 330 c 0,5,6
 148 330 148 330 127.5 356.5 c 128,-1,7
 107 383 107 383 115 420 c 0,8,9
 119 439 119 439 129.5 455.5 c 128,-1,10
 140 472 140 472 154.5 484 c 128,-1,11
 169 496 169 496 187 503 c 128,-1,12
 205 510 205 510 224 510 c 0,13,14
 262 510 262 510 282.5 484 c 128,-1,15
 303 458 303 458 295 420 c 0,0,1
64 6 m 2,16,17
 52 -8 52 -8 40 1 c 0,18,19
 35 5 35 5 34.5 11.5 c 128,-1,20
 34 18 34 18 39 24 c 2,21,-1
 439 504 l 2,22,23
 444 510 444 510 451 511.5 c 128,-1,24
 458 513 458 513 463 509 c 256,25,26
 468 505 468 505 468.5 498.5 c 128,-1,27
 469 492 469 492 464 486 c 2,28,-1
 64 6 l 2,16,17
395 90 m 0,29,30
 391 71 391 71 380.5 54.5 c 128,-1,31
 370 38 370 38 355 26 c 128,-1,32
 340 14 340 14 322.5 7 c 128,-1,33
 305 0 305 0 286 0 c 0,34,35
 248 0 248 0 227.5 26 c 128,-1,36
 207 52 207 52 215 90 c 0,37,38
 219 108 219 108 229.5 124.5 c 128,-1,39
 240 141 240 141 254.5 153.5 c 128,-1,40
 269 166 269 166 287 173 c 128,-1,41
 305 180 305 180 324 180 c 256,42,43
 343 180 343 180 357.5 173 c 128,-1,44
 372 166 372 166 382 153.5 c 128,-1,45
 392 141 392 141 395.5 124.5 c 128,-1,46
 399 108 399 108 395 90 c 0,29,30
265 420 m 0,47,48
 270 446 270 446 256.5 463.5 c 128,-1,49
 243 481 243 481 218 481 c 0,50,51
 192 481 192 481 170.5 463.5 c 128,-1,52
 149 446 149 446 144 420 c 0,53,54
 139 395 139 395 152.5 377.5 c 128,-1,55
 166 360 166 360 192 360 c 0,56,57
 217 360 217 360 238.5 377.5 c 128,-1,58
 260 395 260 395 265 420 c 0,47,48
365 90 m 0,59,60
 370 115 370 115 356 132.5 c 128,-1,61
 342 150 342 150 317 150 c 256,62,63
 292 150 292 150 271 132.5 c 128,-1,64
 250 115 250 115 245 90 c 0,65,66
 239 64 239 64 253 46.5 c 128,-1,67
 267 29 267 29 292 29 c 256,68,69
 317 29 317 29 338 46.5 c 128,-1,70
 359 64 359 64 365 90 c 0,59,60
EndSplineSet
EndChar
StartChar: ampersand
Encoding: 38 38 7
Width: 522
Flags: W
Fore
490 19 m 0,0,1
 488 13 488 13 478 7 c 0,2,3
 465 -1 465 -1 456.5 4 c 128,-1,4
 448 9 448 9 445 14 c 0,5,6
 444 15 444 15 437.5 23.5 c 128,-1,7
 431 32 431 32 423 42.5 c 128,-1,8
 415 53 415 53 407 63 c 128,-1,9
 399 73 399 73 396 77 c 1,10,11
 380.5 64 l 130,-1,12
 365 51 365 51 338 36 c 128,-1,13
 311 21 311 21 273.5 8 c 128,-1,14
 236 -5 236 -5 193 -5 c 0,15,16
 126 -5 126 -5 92 38 c 0,17,18
 59 78 59 78 72 139 c 0,19,20
 80 177 80 177 104 207.5 c 128,-1,21
 128 238 128 238 155 259.5 c 128,-1,22
 182 281 182 281 206 294 c 128,-1,23
 230 307 230 307 238 310 c 1,24,25
 234 316 234 316 227.5 325.5 c 128,-1,26
 221 335 221 335 215.5 348 c 128,-1,27
 210 361 210 361 207 376.5 c 128,-1,28
 204 392 204 392 206 409 c 0,29,30
 209 433 209 433 224.5 453 c 128,-1,31
 240 473 240 473 261 487 c 128,-1,32
 282 501 282 501 307 508.5 c 128,-1,33
 332 516 332 516 355 516 c 0,34,35
 379 516 379 516 398.5 510 c 128,-1,36
 418 504 418 504 431.5 492 c 128,-1,37
 445 480 445 480 451 462 c 128,-1,38
 457 444 457 444 452 420 c 0,39,40
 445 391 445 391 424 368.5 c 128,-1,41
 403 346 403 346 365 327 c 0,42,43
 338 313 338 313 324.5 306.5 c 128,-1,44
 311 300 311 300 304 297 c 1,45,46
 307 291 307 291 318.5 274 c 128,-1,47
 330 257 330 257 345 235.5 c 128,-1,48
 360 214 360 214 376.5 189.5 c 128,-1,49
 393 165 393 165 407 144 c 1,50,51
 411 148 411 148 418.5 162.5 c 128,-1,52
 426 177 426 177 434.5 194.5 c 128,-1,53
 443 212 443 212 450.5 230 c 128,-1,54
 458 248 458 248 461 261 c 0,55,56
 465 273 465 273 474 279.5 c 128,-1,57
 483 286 483 286 495 282 c 0,58,59
 510 277 510 277 503 257 c 0,60,61
 494 230 494 230 482.5 205.5 c 128,-1,62
 471 181 471 181 460 161.5 c 128,-1,63
 449 142 449 142 440.5 129 c 128,-1,64
 432 116 432 116 429 112 c 1,65,66
 429 113 429 113 434 106.5 c 128,-1,67
 439 100 439 100 447.5 89 c 128,-1,68
 456 78 456 78 466 64 c 128,-1,69
 486 36 l 0,70,71
 493 26 493 26 490 19 c 0,0,1
278 324 m 1,72,73
 290 329 290 329 312 338.5 c 128,-1,74
 334 348 334 348 356 361 c 128,-1,75
 378 374 378 374 395 389 c 128,-1,76
 412 404 412 404 413 421 c 0,77,78
 415 444 415 444 399.5 462.5 c 128,-1,79
 384 481 384 481 347 481 c 0,80,81
 334 481 334 481 317.5 476.5 c 128,-1,82
 301 472 301 472 286 463.5 c 128,-1,83
 271 455 271 455 260.5 442.5 c 128,-1,84
 250 430 250 430 248 415 c 0,85,86
 245 400 245 400 248.5 385 c 128,-1,87
 252 370 252 370 258 357.5 c 128,-1,88
 264 345 264 345 270 336 c 128,-1,89
 276 327 276 327 278 324 c 1,72,73
362 129 m 2,90,91
 351 146 351 146 328 181 c 128,-1,92
 305 216 305 216 261 282 c 1,93,94
 255 279 255 279 234 268.5 c 128,-1,95
 213 258 213 258 189 241.5 c 128,-1,96
 165 225 165 225 143.5 202.5 c 128,-1,97
 122 180 122 180 114 152 c 0,98,99
 100 102 100 102 122 71 c 0,100,101
 139 48 139 48 171 40 c 128,-1,102
 203 32 203 32 240 37.5 c 128,-1,103
 277 43 277 43 313.5 60.5 c 128,-1,104
 350 78 350 78 376 107 c 1,105,-1
 362 129 l 2,90,91
EndSplineSet
EndChar
StartChar: quotesingle
Encoding: 39 39 8
Width: 134
Flags: W
Fore
157 349 m 1,0,1
 155 336 155 336 149.5 329.5 c 128,-1,2
 144 323 144 323 132 322 c 0,3,4
 111 322 111 322 117 349 c 2,5,-1
 141 464 l 2,6,7
 145 490 145 490 167 490 c 0,8,9
 185 490 185 490 180 464 c 2,10,-1
 157 349 l 1,11,-1
 157 349 l 1,0,1
EndSplineSet
EndChar
StartChar: parenleft
Encoding: 40 40 9
Width: 200
Flags: W
Fore
119 -95 m 0,0,1
 121 -103 121 -103 116.5 -110 c 128,-1,2
 112 -117 112 -117 104 -120 c 256,3,4
 96 -123 96 -123 90 -120 c 128,-1,5
 84 -117 84 -117 83 -109 c 0,6,7
 83 -108 83 -108 81 -85 c 128,-1,8
 79 -62 79 -62 79.5 -21.5 c 128,-1,9
 80 19 80 19 85.5 75 c 128,-1,10
 91 131 91 131 105 198 c 256,11,12
 119 265 119 265 137.5 321 c 128,-1,13
 156 377 156 377 172.5 417 c 128,-1,14
 189 457 189 457 201 479.5 c 128,-1,15
 213 502 213 502 214 504 c 0,16,17
 218 512 218 512 225.5 515 c 128,-1,18
 233 518 233 518 239 515 c 0,19,20
 246 512 246 512 247.5 505 c 128,-1,21
 249 498 249 498 244 490 c 2,22,23
 233 468.5 l 130,-1,24
 222 447 222 447 206 408.5 c 128,-1,25
 190 370 190 370 172.5 316 c 128,-1,26
 155 262 155 262 142 198 c 0,27,28
 128 134 128 134 123 80.5 c 128,-1,29
 118 27 118 27 117 -12 c 128,-1,30
 116 -51 116 -51 117.5 -73 c 128,-1,31
 119 -94 119 -94 119 -95 c 0,0,1
EndSplineSet
EndChar
StartChar: parenright
Encoding: 41 41 10
Width: 200
Flags: W
Fore
179 198 m 256,0,1
 165 131 165 131 146.5 75 c 128,-1,2
 128 19 128 19 111.5 -21.5 c 128,-1,3
 95 -62 95 -62 83 -85 c 128,-1,4
 71 -108 71 -108 70 -109 c 0,5,6
 65 -117 65 -117 58 -120 c 128,-1,7
 51 -123 51 -123 44 -120 c 0,8,9
 38 -117 38 -117 36 -110 c 128,-1,10
 34 -103 34 -103 39 -95 c 2,11,12
 50.5 -73 l 130,-1,13
 62 -51 62 -51 77.5 -12 c 128,-1,14
 93 27 93 27 111 80.5 c 128,-1,15
 129 134 129 134 143 198 c 0,16,17
 156 262 156 262 161 316 c 128,-1,18
 166 370 166 370 166.5 408.5 c 128,-1,19
 167 447 167 447 165.5 468.5 c 128,-1,20
 164 489 164 489 164 490 c 0,21,22
 162 498 162 498 166.5 505 c 128,-1,23
 171 512 171 512 179 515 c 256,24,25
 187 518 187 518 193 515 c 128,-1,26
 199 512 199 512 201 504 c 1,27,28
 201 502 201 502 203 479.5 c 128,-1,29
 205 457 205 457 204.5 417 c 128,-1,30
 204 377 204 377 198.5 321 c 128,-1,31
 193 265 193 265 179 198 c 256,0,1
EndSplineSet
EndChar
StartChar: asterisk
Encoding: 42 42 11
Width: 458
Flags: W
Fore
413 288 m 1,0,1
 413 282 413 282 407 276 c 0,2,3
 402 271 402 271 395.5 268.5 c 128,-1,4
 389 266 389 266 384 270 c 0,5,6
 373 279 373 279 364.5 287.5 c 128,-1,7
 356 296 356 296 348 305 c 128,-1,8
 340 314 340 314 331 323.5 c 128,-1,9
 322 333 322 333 309 345 c 1,10,11
 306 326 306 326 304.5 311 c 128,-1,12
 303 296 303 296 301.5 283 c 128,-1,13
 298.5 257 l 128,-1,14
 297 244 297 244 294 228 c 0,15,16
 292 222 292 222 286 217.5 c 128,-1,17
 280 213 280 213 274 213 c 0,18,19
 269 213 269 213 263.5 217.5 c 128,-1,20
 258 222 258 222 260 228 c 0,21,22
 267 259 267 259 276.5 283 c 128,-1,23
 286 307 286 307 296 345 c 1,24,25
 278 334 278 334 264.5 324.5 c 128,-1,26
 251 315 251 315 239 306 c 128,-1,27
 215 288 l 128,-1,28
 203 279 203 279 188 270 c 0,29,30
 183 266 183 266 176.5 268 c 128,-1,31
 170 270 170 270 168 275 c 0,32,33
 161 288 161 288 175 297 c 0,34,35
 190 306 190 306 203.5 313 c 128,-1,36
 230.5 327 l 128,-1,37
 244 334 244 334 259 341.5 c 128,-1,38
 274 349 274 349 293 359 c 1,39,40
 278 369 278 369 266.5 376.5 c 128,-1,41
 255 384 255 384 244 391 c 128,-1,42
 233 398 233 398 223 405 c 128,-1,43
 213 412 213 412 201 421 c 0,44,45
 196 425 196 425 197.5 431.5 c 128,-1,46
 199 438 199 438 204 443 c 1,47,48
 207 447 207 447 215 450 c 128,-1,49
 223 453 223 453 226 449 c 1,50,51
 238 440 238 440 246 431 c 128,-1,52
 262 413 l 128,-1,53
 270 404 270 404 279 394.5 c 128,-1,54
 288 385 288 385 302 373 c 1,55,56
 305 392 305 392 306.5 407 c 128,-1,57
 308 422 308 422 309 435 c 128,-1,58
 310 448 310 448 311.5 461.5 c 128,-1,59
 313 475 313 475 316 491 c 0,60,61
 318 497 318 497 324 501 c 128,-1,62
 330 505 330 505 336 505 c 0,63,64
 343 505 343 505 347.5 501 c 128,-1,65
 352 497 352 497 350 491 c 0,66,67
 343 459 343 459 334 435 c 128,-1,68
 325 411 325 411 315 373 c 1,69,70
 333 385 333 385 346.5 394.5 c 128,-1,71
 360 404 360 404 371.5 413 c 128,-1,72
 383 422 383 422 395 430.5 c 128,-1,73
 407 439 407 439 422 448 c 0,74,75
 428 452 428 452 434 450 c 128,-1,76
 440 448 440 448 443 443 c 1,77,78
 448 431 448 431 436 420 c 1,79,80
 420 411 420 411 406.5 404.5 c 128,-1,81
 379.5 391.5 l 128,-1,82
 366 385 366 385 351.5 377 c 128,-1,83
 337 369 337 369 318 359 c 1,84,85
 346 338 346 338 366.5 327.5 c 128,-1,86
 387 317 387 317 410 298 c 1,87,-1
 413 288 l 1,0,1
EndSplineSet
EndChar
StartChar: plus
Encoding: 43 43 12
Width: 412
Flags: W
Fore
393 172 m 0,0,1
 388 152 388 152 362 152 c 2,2,-1
 257 152 l 1,3,-1
 234 44 l 2,4,5
 228 17 228 17 210 17 c 0,6,7
 190 17 190 17 196 44 c 2,8,-1
 219 152 l 1,9,-1
 114 152 l 2,10,11
 86 152 86 152 91 172 c 0,12,13
 95 190 95 190 122 190 c 2,14,-1
 227 190 l 1,15,-1
 250 301 l 2,16,17
 256 328 256 328 276 328 c 0,18,19
 294 328 294 328 288 301 c 2,20,-1
 265 190 l 1,21,-1
 370 190 l 2,22,23
 397 190 397 190 393 172 c 0,0,1
EndSplineSet
EndChar
StartChar: comma
Encoding: 44 44 13
Width: 199
Flags: W
Fore
62 35 m 0,0,1
 65 49 65 49 75 60.5 c 128,-1,2
 85 72 85 72 97 77 c 0,3,4
 120 86 120 86 138 75 c 128,-1,5
 156 64 156 64 154 41 c 0,6,7
 154 22 154 22 145.5 4 c 128,-1,8
 137 -14 137 -14 124 -29.5 c 128,-1,9
 111 -45 111 -45 95.5 -56.5 c 128,-1,10
 80 -68 80 -68 66 -72 c 0,11,12
 55 -75 55 -75 48 -73.5 c 128,-1,13
 41 -72 41 -72 38 -68 c 128,-1,14
 35 -64 35 -64 37.5 -58 c 128,-1,15
 40 -52 40 -52 49 -47 c 0,16,17
 64 -41 64 -41 82.5 -31 c 128,-1,18
 101 -21 101 -21 112 0 c 1,19,20
 104 -4 104 -4 100 -4 c 0,21,22
 80 -6 80 -6 69 6 c 128,-1,23
 58 18 58 18 62 35 c 0,0,1
EndSplineSet
EndChar
StartChar: hyphen
Encoding: 45 45 14
Width: 350
Flags: W
Fore
329 172 m 0,0,1
 325 153 325 153 298 153 c 2,2,-1
 115 153 l 2,3,4
 88 153 88 153 92 172 c 0,5,6
 97 191 97 191 123 191 c 2,7,-1
 306 191 l 2,8,9
 334 191 334 191 329 172 c 0,0,1
EndSplineSet
EndChar
StartChar: period
Encoding: 46 46 15
Width: 202
Flags: W
Fore
70 43 m 256,0,1
 74 60 74 60 89 72.5 c 128,-1,2
 104 85 104 85 121 85 c 256,3,4
 138 85 138 85 148 72.5 c 128,-1,5
 158 60 158 60 154 43 c 256,6,7
 150 26 150 26 135 13.5 c 128,-1,8
 120 1 120 1 103 1 c 256,9,10
 86 1 86 1 76 13.5 c 128,-1,11
 66 26 66 26 70 43 c 256,0,1
EndSplineSet
EndChar
StartChar: slash
Encoding: 47 47 16
Width: 329
Flags: W
Fore
52 -51 m 2,0,1
 47 -57 47 -57 40 -59.5 c 128,-1,2
 33 -62 33 -62 28 -59 c 0,3,4
 22 -56 22 -56 20.5 -49.5 c 128,-1,5
 19 -43 19 -43 24 -37 c 2,6,-1
 363 474 l 2,7,8
 368 480 368 480 375 482.5 c 128,-1,9
 382 485 382 485 388 482 c 0,10,11
 393 479 393 479 394.5 472.5 c 128,-1,12
 396 466 396 466 391 460 c 2,13,-1
 52 -51 l 2,0,1
EndSplineSet
EndChar
StartChar: zero
Encoding: 48 48 17
Width: 447
Flags: W
Fore
459 242 m 256,0,1
 448 191 448 191 429 146.5 c 128,-1,2
 410 102 410 102 381 69 c 128,-1,3
 352 36 352 36 313 17 c 128,-1,4
 274 -2 274 -2 223 -2 c 256,5,6
 172 -2 172 -2 141 17 c 128,-1,7
 110 36 110 36 95.5 69 c 128,-1,8
 81 102 81 102 80.5 146.5 c 128,-1,9
 80 191 80 191 91 242 c 0,10,11
 108 323 108 323 139.5 371.5 c 128,-1,12
 171 420 171 420 205.5 445.5 c 128,-1,13
 240 471 240 471 273 479 c 128,-1,14
 306 487 306 487 327 487 c 0,15,16
 378 487 378 487 409 468 c 128,-1,17
 440 449 440 449 455 415.5 c 128,-1,18
 470 382 470 382 470 337.5 c 128,-1,19
 470 293 470 293 459 242 c 256,0,1
416 242 m 0,20,21
 425 284 425 284 426.5 321 c 128,-1,22
 428 358 428 358 417.5 385.5 c 128,-1,23
 407 413 407 413 383 428.5 c 128,-1,24
 359 444 359 444 318 444 c 256,25,26
 277 444 277 444 246.5 428 c 128,-1,27
 216 412 216 412 194 385 c 128,-1,28
 172 358 172 358 157.5 321 c 128,-1,29
 143 284 143 284 134 242 c 256,30,31
 125 200 125 200 124 163.5 c 128,-1,32
 123 127 123 127 133.5 100 c 128,-1,33
 144 73 144 73 167.5 57 c 128,-1,34
 191 41 191 41 232 41 c 0,35,36
 276 41 276 41 307.5 60 c 128,-1,37
 339 79 339 79 360.5 108 c 128,-1,38
 382 137 382 137 395.5 173 c 128,-1,39
 409 209 409 209 416 242 c 0,20,21
EndSplineSet
EndChar
StartChar: one
Encoding: 49 49 18
Width: 325
Flags: W
Fore
227 21 m 1,0,1
 225 13 225 13 217.5 6.5 c 128,-1,2
 210 0 210 0 201 0 c 256,3,4
 192 0 192 0 186.5 6.5 c 128,-1,5
 181 13 181 13 183 21 c 2,6,-1
 272 439 l 1,7,-1
 166 401 l 2,8,9
 157 398 157 398 149.5 402 c 128,-1,10
 142 406 142 406 140 414 c 0,11,12
 139 422 139 422 145 430.5 c 128,-1,13
 151 439 151 439 159 442 c 2,14,-1
 297 490 l 2,15,16
 307 492 307 492 314 489 c 0,17,18
 320 487 320 487 322.5 480 c 128,-1,19
 325 473 325 473 320 458 c 2,20,-1
 227 21 l 1,21,-1
 227 21 l 1,0,1
EndSplineSet
EndChar
StartChar: two
Encoding: 50 50 19
Width: 436
Flags: W
Fore
400 22 m 0,0,1
 398 13 398 13 391 6.5 c 128,-1,2
 384 0 384 0 375 0 c 2,3,-1
 62 0 l 2,4,5
 54 0 54 0 49.5 5 c 128,-1,6
 45 10 45 10 44 17 c 128,-1,7
 43 24 43 24 46.5 31.5 c 128,-1,8
 50 39 50 39 57 44 c 2,9,-1
 366 262 l 2,10,11
 399 286 399 286 415.5 317.5 c 128,-1,12
 432 349 432 349 427 378 c 0,13,14
 424 393 424 393 414.5 405.5 c 128,-1,15
 405 418 405 418 390.5 427 c 128,-1,16
 376 436 376 436 358.5 441 c 128,-1,17
 341 446 341 446 322 446 c 0,18,19
 280 446 280 446 251 435.5 c 128,-1,20
 222 425 222 425 203.5 408 c 128,-1,21
 185 391 185 391 174.5 370 c 128,-1,22
 164 349 164 349 158 327 c 0,23,24
 155 318 155 318 147.5 312 c 128,-1,25
 140 306 140 306 131 307 c 256,26,27
 122 308 122 308 119 315 c 128,-1,28
 116 322 116 322 118 330 c 0,29,30
 163 487 163 487 331 487 c 0,31,32
 382 487 382 487 421 461 c 128,-1,33
 460 435 460 435 468 391 c 0,34,35
 475 349 475 349 452 307 c 128,-1,36
 429 265 429 265 383 230 c 2,37,-1
 120 43 l 1,38,-1
 384 43 l 2,39,40
 393 43 393 43 397.5 36.5 c 128,-1,41
 402 30 402 30 400 22 c 0,0,1
EndSplineSet
EndChar
StartChar: three
Encoding: 51 51 20
Width: 424
Flags: W
Fore
411 129 m 0,0,1
 401 94 401 94 380 68 c 128,-1,2
 359 42 359 42 331 25 c 128,-1,3
 303 8 303 8 271 -1 c 128,-1,4
 239 -10 239 -10 206 -10 c 0,5,6
 178 -10 178 -10 149 -2 c 128,-1,7
 120 6 120 6 98.5 24 c 128,-1,8
 77 42 77 42 66 70.5 c 128,-1,9
 55 99 55 99 64 140 c 0,10,11
 66 149 66 149 74 155 c 128,-1,12
 82 161 82 161 91 161 c 256,13,14
 100 161 100 161 104.5 155 c 128,-1,15
 109 149 109 149 107 140 c 0,16,17
 101 112 101 112 108.5 91.5 c 128,-1,18
 116 71 116 71 131.5 57.5 c 128,-1,19
 147 44 147 44 169 37 c 128,-1,20
 191 30 191 30 215 30 c 0,21,22
 240 30 240 30 264.5 36 c 128,-1,23
 289 42 289 42 310 54.5 c 128,-1,24
 331 67 331 67 347 85.5 c 128,-1,25
 363 104 363 104 370 129 c 0,26,27
 374 144 374 144 376.5 160 c 128,-1,28
 379 176 379 176 376 191 c 128,-1,29
 373 206 373 206 363 218.5 c 128,-1,30
 353 231 353 231 332 238 c 1,31,-1
 218 238 l 2,32,33
 210 238 210 238 204.5 243 c 128,-1,34
 199 248 199 248 201 257 c 256,35,36
 203 266 203 266 211 272.5 c 128,-1,37
 219 279 219 279 227 279 c 2,38,-1
 337 279 l 1,39,40
 376 298 376 298 392 328 c 128,-1,41
 408 358 408 358 402.5 386.5 c 128,-1,42
 397 415 397 415 372 435.5 c 128,-1,43
 347 456 347 456 304 456 c 0,44,45
 281 456 281 456 258 450.5 c 128,-1,46
 235 445 235 445 215 434.5 c 128,-1,47
 195 424 195 424 179 407.5 c 128,-1,48
 163 391 163 391 154 369 c 0,49,50
 150 360 150 360 145 354 c 128,-1,51
 140 348 140 348 129 349 c 0,52,53
 120 349 120 349 116 355 c 128,-1,54
 112 361 112 361 114 370 c 0,55,56
 120 388 120 388 134 410 c 128,-1,57
 148 432 148 432 172.5 451 c 128,-1,58
 197 470 197 470 231.5 483 c 128,-1,59
 266 496 266 496 313 497 c 0,60,61
 369 498 369 498 403 473 c 128,-1,62
 437 448 437 448 446.5 411.5 c 128,-1,63
 456 375 456 375 439.5 334 c 128,-1,64
 423 293 423 293 378 262 c 1,65,66
 407 244 407 244 416 210.5 c 128,-1,67
 425 177 425 177 411 129 c 0,0,1
EndSplineSet
EndChar
StartChar: four
Encoding: 52 52 21
Width: 444
Flags: W
Fore
433 118 m 256,0,1
 431 109 431 109 423 103 c 128,-1,2
 415 97 415 97 407 97 c 2,3,-1
 364 97 l 1,4,-1
 348 22 l 2,5,6
 346 13 346 13 340.5 6.5 c 128,-1,7
 335 0 335 0 324 0 c 256,8,9
 313 0 313 0 309 6.5 c 128,-1,10
 305 13 305 13 307 22 c 2,11,-1
 323 97 l 1,12,-1
 67 97 l 1,13,-1
 66 97 l 2,14,15
 52 97 52 97 50 109.5 c 128,-1,16
 48 122 48 122 58 132 c 2,17,-1
 410 482 l 1,18,19
 422 490 422 490 433.5 485 c 128,-1,20
 445 480 445 480 443 466 c 2,21,-1
 373 137 l 1,22,-1
 416 137 l 2,23,24
 424 137 424 137 429.5 132 c 128,-1,25
 435 127 435 127 433 118 c 256,0,1
390 412 m 1,26,-1
 121 137 l 1,27,-1
 332 137 l 1,28,-1
 390 412 l 1,26,-1
EndSplineSet
EndChar
StartChar: five
Encoding: 53 53 22
Width: 442
Flags: W
Fore
418 118 m 0,0,1
 396 74 396 74 359 44 c 128,-1,2
 322 14 322 14 274 3 c 0,3,4
 236 -7 236 -7 199.5 -2.5 c 128,-1,5
 163 2 163 2 134 19 c 128,-1,6
 105 36 105 36 87.5 66 c 128,-1,7
 70 96 70 96 70 138 c 0,8,9
 70 146 70 146 77 153.5 c 128,-1,10
 84 161 84 161 92 163 c 0,11,12
 112 166 112 166 112 147 c 0,13,14
 112 114 112 114 125 90.5 c 128,-1,15
 138 67 138 67 160.5 53.5 c 128,-1,16
 183 40 183 40 212 37 c 128,-1,17
 241 34 241 34 272 42 c 0,18,19
 296 48 296 48 314.5 58.5 c 128,-1,20
 333 69 333 69 345.5 81.5 c 128,-1,21
 358 94 358 94 366.5 106.5 c 128,-1,22
 375 119 375 119 380 128 c 0,23,24
 401 171 401 171 400.5 203.5 c 128,-1,25
 400 236 400 236 385 257.5 c 128,-1,26
 370 279 370 279 344 289.5 c 128,-1,27
 318 300 318 300 287.5 300.5 c 128,-1,28
 257 301 257 301 225 290.5 c 128,-1,29
 193 280 193 280 166 260 c 0,30,31
 158 254 158 254 149 246 c 128,-1,32
 140 238 140 238 130 240 c 0,33,34
 121 242 121 242 117 249 c 128,-1,35
 113 256 113 256 117 264 c 2,36,-1
 197 485 l 1,37,-1
 463 485 l 2,38,39
 472 485 472 485 476.5 478.5 c 128,-1,40
 481 472 481 472 479 463 c 0,41,42
 477 455 477 455 470 449.5 c 128,-1,43
 463 444 463 444 454 444 c 2,44,-1
 223 444 l 1,45,-1
 174 306 l 1,46,47
 236 341 236 341 294.5 342 c 128,-1,48
 353 343 353 343 391.5 316 c 128,-1,49
 430 289 430 289 440.5 238 c 128,-1,50
 451 187 451 187 418 118 c 0,0,1
EndSplineSet
EndChar
StartChar: six
Encoding: 54 54 23
Width: 458
Flags: W
Fore
450 158 m 0,0,1
 444 122 444 122 423 90.5 c 128,-1,2
 402 59 402 59 371.5 36.5 c 128,-1,3
 341 14 341 14 303 1 c 128,-1,4
 265 -12 265 -12 225 -12 c 0,5,6
 172 -12 172 -12 140 7 c 128,-1,7
 108 26 108 26 93 60 c 128,-1,8
 78 94 78 94 78 140 c 128,-1,9
 78 186 78 186 90 239 c 0,10,11
 103 297 103 297 128 344.5 c 128,-1,12
 153 392 153 392 187.5 426 c 128,-1,13
 222 460 222 460 264.5 478.5 c 128,-1,14
 307 497 307 497 357 497 c 0,15,16
 386 497 386 497 410 488.5 c 128,-1,17
 434 480 434 480 451.5 466.5 c 128,-1,18
 469 453 469 453 479.5 435.5 c 128,-1,19
 490 418 490 418 493 401 c 0,20,21
 494 390 494 390 489 381 c 128,-1,22
 484 372 484 372 474 369 c 0,23,24
 449 362 449 362 444 384 c 0,25,26
 442 396 442 396 435 407.5 c 128,-1,27
 428 419 428 419 415.5 429 c 128,-1,28
 403 439 403 439 386 445 c 128,-1,29
 369 451 369 451 347 451 c 0,30,31
 299 451 299 451 263.5 431 c 128,-1,32
 228 411 228 411 202.5 380.5 c 128,-1,33
 177 350 177 350 161.5 312.5 c 128,-1,34
 146 275 146 275 138 240 c 1,35,36
 172 282 172 282 215.5 302 c 128,-1,37
 259 322 259 322 305 322 c 0,38,39
 354 322 354 322 385 307.5 c 128,-1,40
 416 293 416 293 432 269.5 c 128,-1,41
 448 246 448 246 451.5 216.5 c 128,-1,42
 455 187 455 187 450 158 c 0,0,1
405 155 m 0,43,44
 411 180 411 180 405 203 c 128,-1,45
 399 226 399 226 384 243.5 c 128,-1,46
 369 261 369 261 346.5 271.5 c 128,-1,47
 324 282 324 282 296 282 c 256,48,49
 268 282 268 282 240.5 272 c 128,-1,50
 213 262 213 262 190 244.5 c 128,-1,51
 167 227 167 227 150.5 203 c 128,-1,52
 134 179 134 179 128 151 c 0,53,54
 122 122 122 122 128.5 99 c 128,-1,55
 135 76 135 76 151.5 60.5 c 128,-1,56
 168 45 168 45 191.5 37 c 128,-1,57
 215 29 215 29 243 29 c 256,58,59
 271 29 271 29 297.5 39 c 128,-1,60
 324 49 324 49 346.5 66 c 128,-1,61
 369 83 369 83 384.5 106 c 128,-1,62
 400 129 400 129 405 155 c 0,43,44
EndSplineSet
EndChar
StartChar: seven
Encoding: 55 55 24
Width: 406
Flags: W
Fore
133 9 m 2,0,1
 127 1 127 1 118 -1.5 c 128,-1,2
 109 -4 109 -4 103 1 c 0,3,4
 95 6 95 6 95 14 c 128,-1,5
 95 22 95 22 101 30 c 2,6,-1
 417 443 l 1,7,-1
 146 443 l 2,8,9
 137 443 137 443 131.5 449.5 c 128,-1,10
 126 456 126 456 128 464 c 0,11,12
 130 473 130 473 138 479.5 c 128,-1,13
 146 486 146 486 155 486 c 2,14,-1
 470 486 l 1,15,-1
 457 427 l 1,16,-1
 133 9 l 2,0,1
EndSplineSet
EndChar
StartChar: eight
Encoding: 56 56 25
Width: 450
Flags: W
Fore
438 139 m 0,0,1
 430 104 430 104 408 75.5 c 128,-1,2
 386 47 386 47 355.5 27 c 128,-1,3
 325 7 325 7 289.5 -4 c 128,-1,4
 254 -15 254 -15 221 -15 c 0,5,6
 187 -15 187 -15 156.5 -4 c 128,-1,7
 126 7 126 7 104 27 c 128,-1,8
 82 47 82 47 72 75.5 c 128,-1,9
 62 104 62 104 70 139 c 0,10,11
 79 181 79 181 111 216 c 128,-1,12
 143 251 143 251 189 271 c 1,13,14
 166 287 166 287 155.5 315 c 128,-1,15
 145 343 145 343 152 372 c 0,16,17
 157 398 157 398 174 421 c 128,-1,18
 191 444 191 444 215.5 461.5 c 128,-1,19
 240 479 240 479 269.5 489 c 128,-1,20
 299 499 299 499 331 499 c 0,21,22
 358 499 358 499 383 490 c 128,-1,23
 408 481 408 481 426 464.5 c 128,-1,24
 444 448 444 448 452.5 424.5 c 128,-1,25
 461 401 461 401 455 372 c 0,26,27
 448 343 448 343 426.5 314.5 c 128,-1,28
 405 286 405 286 375 271 c 1,29,30
 410 253 410 253 428.5 217 c 128,-1,31
 447 181 447 181 438 139 c 0,0,1
411 371 m 0,32,33
 415 391 415 391 408.5 407 c 128,-1,34
 402 423 402 423 388.5 434 c 128,-1,35
 375 445 375 445 357 450.5 c 128,-1,36
 339 456 339 456 321 456 c 256,37,38
 303 456 303 456 283 450.5 c 128,-1,39
 263 445 263 445 245 434.5 c 128,-1,40
 227 424 227 424 213.5 408 c 128,-1,41
 200 392 200 392 196 372 c 0,42,43
 193 357 193 357 197.5 342 c 128,-1,44
 202 327 202 327 214 315.5 c 128,-1,45
 226 304 226 304 244 296.5 c 128,-1,46
 262 289 262 289 285 289 c 256,47,48
 308 289 308 289 329.5 296 c 128,-1,49
 351 303 351 303 368 315 c 128,-1,50
 385 327 385 327 396.5 341.5 c 128,-1,51
 408 356 408 356 411 371 c 0,32,33
395 139 m 0,52,53
 400 164 400 164 391.5 184.5 c 128,-1,54
 383 205 383 205 366 218.5 c 128,-1,55
 349 232 349 232 325.5 239.5 c 128,-1,56
 302 247 302 247 277 247 c 256,57,58
 252 247 252 247 225 239.5 c 128,-1,59
 198 232 198 232 174.5 218.5 c 128,-1,60
 151 205 151 205 134 184.5 c 128,-1,61
 117 164 117 164 112 139 c 0,62,63
 107 117 107 117 113.5 97 c 128,-1,64
 120 77 120 77 135.5 61.5 c 128,-1,65
 151 46 151 46 175 37 c 128,-1,66
 199 28 199 28 230 28 c 0,67,68
 258 28 258 28 286 36.5 c 128,-1,69
 314 45 314 45 336.5 60 c 128,-1,70
 359 75 359 75 374.5 95.5 c 128,-1,71
 390 116 390 116 395 139 c 0,52,53
EndSplineSet
EndChar
StartChar: nine
Encoding: 57 57 26
Width: 439
Flags: W
Fore
451 245 m 0,0,1
 438 188 438 188 414 142 c 128,-1,2
 390 96 390 96 357 63.5 c 128,-1,3
 324 31 324 31 282 13.5 c 128,-1,4
 240 -4 240 -4 192 -4 c 0,5,6
 163 -4 163 -4 140 4.5 c 128,-1,7
 117 13 117 13 100.5 26.5 c 128,-1,8
 84 40 84 40 74 57 c 128,-1,9
 64 74 64 74 61 91 c 0,10,11
 59 100 59 100 65 109 c 128,-1,12
 71 118 71 118 81 121 c 0,13,14
 91 125 91 125 97 121 c 128,-1,15
 103 117 103 117 105 108 c 0,16,17
 107 96 107 96 115 84.5 c 128,-1,18
 123 73 123 73 136 63 c 128,-1,19
 149 53 149 53 165.5 47 c 128,-1,20
 182 41 182 41 202 41 c 0,21,22
 248 41 248 41 283 59.5 c 128,-1,23
 318 78 318 78 342.5 106.5 c 128,-1,24
 367 135 367 135 382 170 c 128,-1,25
 397 205 397 205 404 239 c 1,26,27
 372 201 372 201 329.5 183 c 128,-1,28
 287 165 287 165 243 165 c 0,29,30
 206 165 206 165 176 175.5 c 128,-1,31
 146 186 146 186 126 206.5 c 128,-1,32
 106 227 106 227 98.5 256 c 128,-1,33
 91 285 91 285 100 323 c 0,34,35
 108 359 108 359 128 389.5 c 128,-1,36
 148 420 148 420 176.5 442.5 c 128,-1,37
 205 465 205 465 240 477.5 c 128,-1,38
 275 490 275 490 314 490 c 0,39,40
 366 490 366 490 399 472 c 128,-1,41
 432 454 432 454 447.5 421.5 c 128,-1,42
 463 389 463 389 463 344 c 128,-1,43
 463 299 463 299 451 245 c 0,0,1
410 327 m 0,44,45
 415 352 415 352 409.5 374 c 128,-1,46
 404 396 404 396 389.5 412.5 c 128,-1,47
 375 429 375 429 353 439 c 128,-1,48
 331 449 331 449 304 449 c 256,49,50
 277 449 277 449 250.5 439.5 c 128,-1,51
 224 430 224 430 202.5 413.5 c 128,-1,52
 181 397 181 397 165.5 375 c 128,-1,53
 150 353 150 353 145 328 c 0,54,55
 139 302 139 302 145 279 c 128,-1,56
 151 256 151 256 165.5 239.5 c 128,-1,57
 180 223 180 223 202 213.5 c 128,-1,58
 224 204 224 204 251 204 c 256,59,60
 278 204 278 204 304 213.5 c 128,-1,61
 330 223 330 223 352 239.5 c 128,-1,62
 374 256 374 256 389 278.5 c 128,-1,63
 404 301 404 301 410 327 c 0,44,45
EndSplineSet
EndChar
StartChar: colon
Encoding: 58 58 27
Width: 200
Flags: W
Fore
120 282 m 0,0,1
 124 299 124 299 139 311.5 c 128,-1,2
 154 324 154 324 171 324 c 256,3,4
 188 324 188 324 198 311.5 c 128,-1,5
 208 299 208 299 204 282 c 0,6,7
 201 265 201 265 186 252.5 c 128,-1,8
 171 240 171 240 154 240 c 256,9,10
 137 240 137 240 127 252.5 c 128,-1,11
 117 265 117 265 120 282 c 0,0,1
68 37 m 256,12,13
 72 54 72 54 87 66.5 c 128,-1,14
 102 79 102 79 119 79 c 256,15,16
 136 79 136 79 146 66.5 c 128,-1,17
 156 54 156 54 152 37 c 256,18,19
 148 20 148 20 133 7.5 c 128,-1,20
 118 -5 118 -5 101 -5 c 256,21,22
 84 -5 84 -5 74 7.5 c 128,-1,23
 64 20 64 20 68 37 c 256,12,13
EndSplineSet
EndChar
StartChar: semicolon
Encoding: 59 59 28
Width: 200
Flags: W
Fore
120 282 m 0,0,1
 124 299 124 299 139 311.5 c 128,-1,2
 154 324 154 324 171 324 c 256,3,4
 188 324 188 324 198 311.5 c 128,-1,5
 208 299 208 299 204 282 c 0,6,7
 201 265 201 265 186 252.5 c 128,-1,8
 171 240 171 240 154 240 c 256,9,10
 137 240 137 240 127 252.5 c 128,-1,11
 117 265 117 265 120 282 c 0,0,1
62 35 m 0,12,13
 65 49 65 49 75 60.5 c 128,-1,14
 85 72 85 72 97 77 c 0,15,16
 120 86 120 86 138 75 c 128,-1,17
 156 64 156 64 154 41 c 0,18,19
 154 22 154 22 145.5 4 c 128,-1,20
 137 -14 137 -14 124 -29.5 c 128,-1,21
 111 -45 111 -45 95.5 -56.5 c 128,-1,22
 80 -68 80 -68 66 -72 c 0,23,24
 55 -75 55 -75 48 -73.5 c 128,-1,25
 41 -72 41 -72 38 -68 c 128,-1,26
 35 -64 35 -64 37.5 -58 c 128,-1,27
 40 -52 40 -52 49 -47 c 0,28,29
 64 -41 64 -41 82.5 -31 c 128,-1,30
 101 -21 101 -21 112 0 c 1,31,32
 104 -4 104 -4 100 -4 c 0,33,34
 80 -6 80 -6 69 6 c 128,-1,35
 58 18 58 18 62 35 c 0,12,13
EndSplineSet
EndChar
StartChar: less
Encoding: 60 60 29
Width: 460
Flags: W
Fore
387 4 m 256,0,1
 381 -4 381 -4 372 -6.5 c 128,-1,2
 363 -9 363 -9 357 -4 c 2,3,-1
 107 159 l 1,4,5
 108 160 108 160 107 160 c 1,6,7
 103 162 103 162 102 167 c 128,-1,8
 101 172 101 172 102 177.5 c 128,-1,9
 103 183 103 183 106.5 188 c 128,-1,10
 110 193 110 193 115 196 c 2,11,-1
 434 359 l 2,12,13
 442 364 442 364 450 362 c 128,-1,14
 458 360 458 360 461 352 c 256,15,16
 464 344 464 344 459.5 336 c 128,-1,17
 455 328 455 328 447 323 c 2,18,-1
 153 178 l 1,19,-1
 386 33 l 2,20,21
 392 28 392 28 392.5 20 c 128,-1,22
 393 12 393 12 387 4 c 256,0,1
EndSplineSet
EndChar
StartChar: equal
Encoding: 61 61 30
Width: 470
Flags: W
Fore
438 106 m 0,0,1
 433 86 433 86 408 86 c 2,2,-1
 98 86 l 2,3,4
 71 86 71 86 76 106 c 0,5,6
 80 124 80 124 106 124 c 2,7,-1
 416 124 l 2,8,9
 442 124 442 124 438 106 c 0,0,1
466 237 m 0,10,11
 462 218 462 218 436 218 c 2,12,-1
 126 218 l 2,13,14
 100 218 100 218 104 237 c 0,15,16
 107 255 107 255 134 255 c 2,17,-1
 444 255 l 2,18,19
 469 255 469 255 466 237 c 0,10,11
EndSplineSet
EndChar
StartChar: greater
Encoding: 62 62 31
Width: 460
Flags: W
Fore
431 175 m 0,0,1
 428 167 428 167 424 164 c 128,-1,2
 420 161 420 161 419 160 c 1,3,4
 418 160 418 160 417 159 c 2,5,-1
 99 -4 l 2,6,7
 90 -9 90 -9 82 -6.5 c 128,-1,8
 74 -4 74 -4 71 4 c 256,9,10
 68 12 68 12 72.5 20 c 128,-1,11
 77 28 77 28 86 33 c 2,12,-1
 379 178 l 1,13,-1
 147 323 l 2,14,15
 140 328 140 328 139.5 336 c 128,-1,16
 139 344 139 344 145 352 c 256,17,18
 151 360 151 360 160 362 c 128,-1,19
 169 364 169 364 176 359 c 2,20,-1
 425 196 l 2,21,22
 430 193 430 193 431.5 187 c 128,-1,23
 433 181 433 181 431 175 c 0,0,1
EndSplineSet
EndChar
StartChar: question
Encoding: 63 63 32
Width: 431
Flags: W
Fore
450 359 m 0,0,1
 441 318 441 318 420 293.5 c 128,-1,2
 399 269 399 269 372.5 254 c 128,-1,3
 346 239 346 239 316.5 229 c 128,-1,4
 287 219 287 219 261 207 c 0,5,6
 242 199 242 199 230.5 178.5 c 128,-1,7
 219 158 219 158 215 140 c 2,8,-1
 211 121 l 2,9,10
 205 94 205 94 187 94 c 0,11,12
 168 94 168 94 174 121 c 2,13,-1
 178 140 l 2,14,15
 185 172 185 172 202 196 c 128,-1,16
 219 220 219 220 254 238 c 0,17,18
 279 251 279 251 304.5 259 c 128,-1,19
 330 267 330 267 351.5 278 c 128,-1,20
 373 289 373 289 389 307.5 c 128,-1,21
 405 326 405 326 412 359 c 256,22,23
 419 392 419 392 411.5 413.5 c 128,-1,24
 404 435 404 435 388 447 c 128,-1,25
 372 459 372 459 350.5 464 c 128,-1,26
 329 469 329 469 307 469 c 0,27,28
 228 469 228 469 171 405 c 0,29,30
 165 398 165 398 157 398.5 c 128,-1,31
 149 399 149 399 144 405 c 0,32,33
 139 410 139 410 140.5 417.5 c 128,-1,34
 142 425 142 425 148 432 c 0,35,36
 181 467 181 467 222.5 486.5 c 128,-1,37
 264 506 264 506 313 506 c 0,38,39
 387 506 387 506 426 468.5 c 128,-1,40
 465 431 465 431 450 359 c 0,0,1
210 30 m 256,41,42
 207 15 207 15 194 5 c 128,-1,43
 181 -5 181 -5 166 -5 c 256,44,45
 151 -5 151 -5 143.5 5 c 128,-1,46
 136 15 136 15 139 30 c 256,47,48
 142 45 142 45 154.5 55.5 c 128,-1,49
 167 66 167 66 182 66 c 256,50,51
 197 66 197 66 205 55.5 c 128,-1,52
 213 45 213 45 210 30 c 256,41,42
EndSplineSet
EndChar
StartChar: at
Encoding: 64 64 33
Width: 643
Flags: W
Fore
621 236 m 0,0,1
 601 182 601 182 569.5 148.5 c 128,-1,2
 538 115 538 115 504 97 c 0,3,4
 484 87 484 87 466 86.5 c 128,-1,5
 448 86 448 86 437 97 c 0,6,7
 432 102 432 102 430 113 c 128,-1,8
 428 124 428 124 434 135 c 1,9,10
 405 114 405 114 374.5 102 c 128,-1,11
 344 90 344 90 306 90 c 0,12,13
 275 90 275 90 255.5 100.5 c 128,-1,14
 236 111 236 111 226 127.5 c 128,-1,15
 216 144 216 144 214.5 163 c 128,-1,16
 213 182 213 182 219 200 c 0,17,18
 235 251 235 251 284 278.5 c 128,-1,19
 333 306 333 306 397 306 c 0,20,21
 423 305 423 305 442 299 c 0,22,23
 459 294 459 294 472.5 282.5 c 128,-1,24
 486 271 486 271 484 251 c 1,25,26
 496 278 496 278 500.5 299.5 c 128,-1,27
 505 321 505 321 497 338 c 0,28,29
 488 357 488 357 467.5 366.5 c 128,-1,30
 447 376 447 376 420.5 376 c 128,-1,31
 394 376 394 376 366 368.5 c 128,-1,32
 338 361 338 361 315 347 c 0,33,34
 308 343 308 343 301.5 342 c 128,-1,35
 295 341 295 341 293 347 c 0,36,37
 291 352 291 352 295 359 c 128,-1,38
 299 366 299 366 310 373 c 0,39,40
 336 390 336 390 369 399 c 128,-1,41
 402 408 402 408 434 407.5 c 128,-1,42
 466 407 466 407 491.5 396 c 128,-1,43
 517 385 517 385 528 361 c 0,44,45
 539 338 539 338 533.5 312 c 128,-1,46
 528 286 528 286 519 264 c 2,47,-1
 462 137 l 2,48,49
 454 121 454 121 462 117 c 128,-1,50
 470 113 470 113 489 121 c 0,51,52
 518 134 518 134 543.5 163 c 128,-1,53
 569 192 569 192 588 242 c 0,54,55
 595 259 595 259 600 281 c 128,-1,56
 605 303 605 303 606 326.5 c 128,-1,57
 607 350 607 350 601 374 c 128,-1,58
 595 398 595 398 580 420 c 0,59,60
 550 461 550 461 495 474.5 c 128,-1,61
 440 488 440 488 380 472 c 0,62,63
 346 463 346 463 314.5 446.5 c 128,-1,64
 283 430 283 430 256 407.5 c 128,-1,65
 229 385 229 385 208 358 c 128,-1,66
 187 331 187 331 174 301 c 0,67,68
 144 233 144 233 143 185 c 128,-1,69
 142 137 142 137 155.5 104.5 c 128,-1,70
 169 72 169 72 191 53 c 128,-1,71
 213 34 213 34 229 26 c 0,72,73
 256 12 256 12 285.5 8.5 c 128,-1,74
 315 5 315 5 342.5 7 c 128,-1,75
 370 9 370 9 392.5 14 c 128,-1,76
 415 19 415 19 426 24 c 1,77,78
 433 26 433 26 441.5 25 c 128,-1,79
 450 24 450 24 452 18 c 0,80,81
 454 11 454 11 450.5 4.5 c 128,-1,82
 447 -2 447 -2 440 -6 c 0,83,84
 424 -13 424 -13 396 -19 c 128,-1,85
 368 -25 368 -25 335 -26.5 c 128,-1,86
 302 -28 302 -28 268 -23.5 c 128,-1,87
 234 -19 234 -19 207 -5 c 0,88,89
 130 35 130 35 113 118.5 c 128,-1,90
 96 202 96 202 143 309 c 0,91,92
 158 343 158 343 182 374.5 c 128,-1,93
 206 406 206 406 236.5 431.5 c 128,-1,94
 267 457 267 457 302.5 476.5 c 128,-1,95
 338 496 338 496 377 506 c 0,96,97
 412 515 412 515 446.5 515 c 128,-1,98
 481 515 481 515 512 506.5 c 128,-1,99
 543 498 543 498 568 482 c 128,-1,100
 593 466 593 466 610 443 c 0,101,102
 639 402 639 402 640.5 347.5 c 128,-1,103
 642 293 642 293 621 236 c 0,0,1
457 196 m 0,104,105
 463 210 463 210 464.5 224 c 128,-1,106
 466 238 466 238 458.5 249 c 128,-1,107
 451 260 451 260 433 266.5 c 128,-1,108
 415 273 415 273 382 273 c 0,109,110
 362 273 362 273 340.5 268.5 c 128,-1,111
 319 264 319 264 300 255 c 128,-1,112
 281 246 281 246 266.5 232.5 c 128,-1,113
 252 219 252 219 246 200 c 0,114,115
 235 164 235 164 254.5 142 c 128,-1,116
 274 120 274 120 316 120 c 0,117,118
 348 120 348 120 372 127.5 c 128,-1,119
 396 135 396 135 413 146 c 128,-1,120
 430 157 430 157 440.5 170.5 c 128,-1,121
 451 184 451 184 457 196 c 0,104,105
EndSplineSet
EndChar
StartChar: A
Encoding: 65 65 34
Width: 491
Flags: W
Fore
456 27 m 2,0,1
 450 0 450 0 433 0 c 0,2,3
 413 0 413 0 419 27 c 2,4,-1
 461 224 l 1,5,-1
 125 224 l 1,6,-1
 83 27 l 2,7,8
 77 0 77 0 60 0 c 0,9,10
 40 0 40 0 46 27 c 0,11,12
 68 130 68 130 80 185 c 128,-1,13
 92 240 92 240 97 266 c 2,14,-1
 104 300 l 2,15,16
 104 301 104 301 107 314 c 128,-1,17
 110 327 110 327 117.5 346 c 128,-1,18
 125 365 125 365 139.5 387.5 c 128,-1,19
 154 410 154 410 177 431 c 0,20,21
 244 490 244 490 351 490 c 0,22,23
 457 490 457 490 499 431 c 0,24,25
 512 411 512 411 516.5 389 c 128,-1,26
 521 367 521 367 520.5 347.5 c 128,-1,27
 520 328 520 328 517.5 315 c 128,-1,28
 515 303 515 303 515 302 c 2,29,-1
 456 27 l 2,0,1
478 304 m 0,30,31
 482 321 482 321 483 339 c 0,32,33
 483 354 483 354 479.5 371.5 c 128,-1,34
 476 389 476 389 465 406 c 0,35,36
 431 452 431 452 343 452 c 0,37,38
 253 452 253 452 200 405 c 0,39,40
 182 389 182 389 171 371.5 c 128,-1,41
 160 354 160 354 153.5 338.5 c 128,-1,42
 147 323 147 323 145 313 c 128,-1,43
 143 303 143 303 143 302 c 2,44,-1
 134 261 l 1,45,-1
 469 261 l 1,46,47
 470 266 470 266 471.5 273.5 c 128,-1,48
 473 281 473 281 474.5 288 c 128,-1,49
 476 295 476 295 477 299.5 c 128,-1,50
 478 303 478 303 478 304 c 0,30,31
EndSplineSet
EndChar
StartChar: B
Encoding: 66 66 35
Width: 490
Flags: W
Fore
112 159 m 2,0,1
 106 128 106 128 112 105 c 128,-1,2
 118 82 118 82 132.5 66.5 c 128,-1,3
 147 51 147 51 168 43.5 c 128,-1,4
 189 36 189 36 213 36 c 2,5,-1
 301 36 l 2,6,7
 325 37 325 37 348 42.5 c 128,-1,8
 371 48 371 48 390 60 c 128,-1,9
 409 72 409 72 423 90.5 c 128,-1,10
 437 109 437 109 443 135 c 0,11,12
 453 178 453 178 427 201.5 c 128,-1,13
 401 225 401 225 358 225 c 2,14,-1
 187 225 l 2,15,16
 161 225 161 225 164 244 c 0,17,18
 168 262 168 262 195 262 c 2,19,-1
 367 262 l 2,20,21
 387 262 387 262 406 268 c 128,-1,22
 425 274 425 274 440 284.5 c 128,-1,23
 455 295 455 295 465.5 309.5 c 128,-1,24
 476 324 476 324 479 340 c 0,25,26
 485 367 485 367 476.5 388.5 c 128,-1,27
 468 410 468 410 448.5 424.5 c 128,-1,28
 429 439 429 439 400.5 446.5 c 128,-1,29
 372 454 372 454 338 454 c 0,30,31
 309 454 309 454 278.5 446.5 c 128,-1,32
 248 439 248 439 221 422.5 c 128,-1,33
 194 406 194 406 174 381 c 128,-1,34
 154 356 154 356 147 320 c 2,35,-1
 112 159 l 2,0,1
109 320 m 2,36,37
 119 370 119 370 145 403 c 128,-1,38
 171 436 171 436 205 455.5 c 128,-1,39
 239 475 239 475 276 482.5 c 128,-1,40
 313 490 313 490 346 490 c 0,41,42
 388 490 388 490 423 480.5 c 128,-1,43
 458 471 458 471 481.5 452 c 128,-1,44
 505 433 505 433 515 405 c 128,-1,45
 525 377 525 377 517 340 c 256,46,47
 509 303 509 303 483.5 277 c 128,-1,48
 458 251 458 251 429 243 c 1,49,50
 458 228 458 228 473.5 200 c 128,-1,51
 489 172 489 172 481 135 c 0,52,53
 473 100 473 100 454 74.5 c 128,-1,54
 435 49 435 49 409.5 32.5 c 128,-1,55
 384 16 384 16 354 8 c 128,-1,56
 324 0 324 0 294 0 c 2,57,-1
 214 0 l 2,58,59
 178 0 178 0 148.5 10.5 c 128,-1,60
 119 21 119 21 100 42 c 128,-1,61
 81 63 81 63 74 93.5 c 128,-1,62
 67 124 67 124 75 163 c 2,63,-1
 109 320 l 2,36,37
EndSplineSet
EndChar
StartChar: C
Encoding: 67 67 36
Width: 459
Flags: W
Fore
527 416 m 0,0,1
 530 410 530 410 529 402 c 128,-1,2
 528 394 528 394 520 389 c 0,3,4
 504 377 504 377 492 389 c 1,5,6
 474 424 474 424 439 437.5 c 128,-1,7
 404 451 404 451 363 451 c 0,8,9
 316 451 316 451 276 435.5 c 128,-1,10
 236 420 236 420 204.5 392.5 c 128,-1,11
 173 365 173 365 151 326.5 c 128,-1,12
 129 288 129 288 119 243 c 0,13,14
 110 198 110 198 115.5 160 c 128,-1,15
 121 122 121 122 141.5 94.5 c 128,-1,16
 162 67 162 67 195.5 51.5 c 128,-1,17
 229 36 229 36 275 36 c 0,18,19
 316 36 316 36 355.5 48.5 c 128,-1,20
 395 61 395 61 430 96 c 0,21,22
 437 102 437 102 444.5 102 c 128,-1,23
 452 102 452 102 457 97 c 0,24,25
 462 91 462 91 460.5 83 c 128,-1,26
 459 75 459 75 452 69 c 0,27,28
 414 32 414 32 364.5 14.5 c 128,-1,29
 315 -3 315 -3 267 -3 c 0,30,31
 213 -3 213 -3 172.5 15.5 c 128,-1,32
 132 34 132 34 108 67 c 128,-1,33
 84 100 84 100 76.5 145 c 128,-1,34
 69 190 69 190 80 243 c 0,35,36
 92 297 92 297 118 342.5 c 128,-1,37
 144 388 144 388 182.5 420.5 c 128,-1,38
 221 453 221 453 269 471.5 c 128,-1,39
 317 490 317 490 372 490 c 0,40,41
 421 490 421 490 462.5 473 c 128,-1,42
 504 456 504 456 527 416 c 0,0,1
EndSplineSet
EndChar
StartChar: D
Encoding: 68 68 37
Width: 487
Flags: W
Fore
506 243 m 0,0,1
 495 189 495 189 467.5 145.5 c 128,-1,2
 440 102 440 102 399 70 c 0,3,4
 363 42 363 42 326.5 27.5 c 128,-1,5
 290 13 290 13 260 7 c 128,-1,6
 230 1 230 1 210 0.5 c 128,-1,7
 190 0 190 0 188 0 c 2,8,-1
 165 0 l 2,9,10
 147 0 147 0 126.5 5.5 c 128,-1,11
 106 11 106 11 90 23 c 128,-1,12
 74 35 74 35 65.5 54 c 128,-1,13
 57 73 57 73 63 101 c 2,14,-1
 123 385 l 2,15,16
 133 430 133 430 173 458.5 c 128,-1,17
 213 487 213 487 268 487 c 2,18,-1
 291 487 l 2,19,20
 293 487 293 487 312.5 486.5 c 128,-1,21
 332 486 332 486 360 480 c 128,-1,22
 388 474 388 474 418.5 459 c 128,-1,23
 449 444 449 444 473 416 c 0,24,25
 499 384 499 384 508.5 341 c 128,-1,26
 518 298 518 298 506 243 c 0,0,1
469 243 m 256,27,28
 479 290 479 290 471 326.5 c 128,-1,29
 463 363 463 363 441 389 c 0,30,31
 421 413 421 413 394 426 c 128,-1,32
 367 439 367 439 342.5 444.5 c 128,-1,33
 318 450 318 450 301 450.5 c 128,-1,34
 284 451 284 451 283 451 c 2,35,-1
 260 451 l 2,36,37
 222 451 222 451 195 433.5 c 128,-1,38
 168 416 168 416 161 387 c 2,39,-1
 100 100 l 2,40,41
 96 81 96 81 102 69 c 128,-1,42
 108 57 108 57 119.5 49.5 c 128,-1,43
 131 42 131 42 145.5 39 c 128,-1,44
 160 36 160 36 172 36 c 2,45,-1
 195 36 l 2,46,47
 196 36 196 36 213.5 36.5 c 128,-1,48
 231 37 231 37 258 42.5 c 128,-1,49
 285 48 285 48 317 60.5 c 128,-1,50
 349 73 349 73 379 97 c 0,51,52
 412 123 412 123 435.5 159.5 c 128,-1,53
 459 196 459 196 469 243 c 256,27,28
EndSplineSet
EndChar
StartChar: E
Encoding: 69 69 38
Width: 441
Flags: W
Fore
95 324 m 2,0,1
 104 368 104 368 129.5 399.5 c 128,-1,2
 155 431 155 431 188 451 c 128,-1,3
 221 471 221 471 257.5 480.5 c 128,-1,4
 294 490 294 490 326 490 c 0,5,6
 368 490 368 490 398.5 482.5 c 128,-1,7
 429 475 429 475 450 463 c 128,-1,8
 471 451 471 451 482.5 435.5 c 128,-1,9
 494 420 494 420 498 404 c 0,10,11
 500 397 500 397 498.5 389.5 c 128,-1,12
 497 382 497 382 489 378 c 0,13,14
 481 373 481 373 473 375 c 128,-1,15
 465 377 465 377 463 384 c 0,16,17
 452 415 452 415 418.5 434 c 128,-1,18
 385 453 385 453 314 453 c 0,19,20
 285 453 285 453 255.5 443.5 c 128,-1,21
 226 434 226 434 201 416.5 c 128,-1,22
 176 399 176 399 157.5 375.5 c 128,-1,23
 139 352 139 352 133 323 c 2,24,-1
 120 261 l 1,25,-1
 336 261 l 2,26,27
 363 261 363 261 359 243 c 0,28,29
 355 224 355 224 328 224 c 2,30,-1
 112 224 l 1,31,-1
 99 162 l 2,32,33
 92 130 92 130 100 106 c 128,-1,34
 108 82 108 82 126 65.5 c 128,-1,35
 144 49 144 49 169.5 40.5 c 128,-1,36
 195 32 195 32 224 32 c 0,37,38
 295 32 295 32 337 51 c 128,-1,39
 379 70 379 70 403 101 c 0,40,41
 408 108 408 108 417 110 c 128,-1,42
 426 112 426 112 431 107 c 1,43,44
 437 103 437 103 436.5 95.5 c 128,-1,45
 436 88 436 88 431 81 c 0,46,47
 420 65 420 65 401 49.5 c 128,-1,48
 382 34 382 34 356 22 c 128,-1,49
 330 10 330 10 296 2.5 c 128,-1,50
 262 -5 262 -5 220 -5 c 0,51,52
 188 -5 188 -5 155.5 4 c 128,-1,53
 123 13 123 13 98.5 33 c 128,-1,54
 74 53 74 53 62.5 84 c 128,-1,55
 51 115 51 115 60 159 c 2,56,-1
 95 324 l 2,0,1
EndSplineSet
EndChar
StartChar: F
Encoding: 70 70 39
Width: 445
Flags: W
Fore
84 25 m 2,0,1
 78 -1 78 -1 60 -1 c 0,2,3
 41 -1 41 -1 47 25 c 2,4,-1
 111 325 l 2,5,6
 120 369 120 369 145 400 c 128,-1,7
 170 431 170 431 203 451 c 128,-1,8
 236 471 236 471 272.5 480.5 c 128,-1,9
 309 490 309 490 341 490 c 0,10,11
 383 490 383 490 413.5 482.5 c 128,-1,12
 444 475 444 475 465 462.5 c 128,-1,13
 486 450 486 450 498 434 c 128,-1,14
 510 418 510 418 515 402 c 0,15,16
 517 395 517 395 514.5 388.5 c 128,-1,17
 512 382 512 382 504 378 c 0,18,19
 496 373 496 373 488 375 c 128,-1,20
 480 377 480 377 478 384 c 0,21,22
 467 415 467 415 433.5 434 c 128,-1,23
 400 453 400 453 329 453 c 0,24,25
 300 453 300 453 270.5 443.5 c 128,-1,26
 241 434 241 434 216 416.5 c 128,-1,27
 191 399 191 399 172.5 375.5 c 128,-1,28
 154 352 154 352 148 323 c 2,29,-1
 135 261 l 1,30,-1
 351 261 l 2,31,32
 378 261 378 261 374 243 c 0,33,34
 370 224 370 224 343 224 c 2,35,-1
 126 224 l 1,36,-1
 84 25 l 2,0,1
EndSplineSet
EndChar
StartChar: G
Encoding: 71 71 40
Width: 500
Flags: W
Fore
376 490 m 0,0,1
 438 490 438 490 485 467 c 128,-1,2
 532 444 532 444 549 407 c 0,3,4
 551 401 551 401 549 391.5 c 128,-1,5
 547 382 547 382 539 378 c 0,6,7
 531 373 531 373 523.5 375 c 128,-1,8
 516 377 516 377 513 384 c 0,9,10
 495 419 495 419 455 436 c 128,-1,11
 415 453 415 453 367 453 c 0,12,13
 317 453 317 453 275.5 437 c 128,-1,14
 234 421 234 421 202.5 393 c 128,-1,15
 171 365 171 365 150 326 c 128,-1,16
 129 287 129 287 119 241 c 0,17,18
 99 144 99 144 141.5 88 c 128,-1,19
 184 32 184 32 277 32 c 0,20,21
 322 32 322 32 357 45.5 c 128,-1,22
 392 59 392 59 416.5 77 c 128,-1,23
 441 95 441 95 454.5 113.5 c 128,-1,24
 468 132 468 132 470 143 c 2,25,-1
 478 182 l 2,26,27
 482 200 482 200 476 211.5 c 128,-1,28
 470 223 470 223 446 223 c 2,29,-1
 246 223 l 2,30,31
 238 223 238 223 227.5 225.5 c 128,-1,32
 217 228 217 228 220 242 c 256,33,34
 223 256 223 256 234.5 259 c 128,-1,35
 246 262 246 262 254 262 c 2,36,-1
 454 262 l 2,37,38
 496 262 496 262 510.5 239.5 c 128,-1,39
 525 217 525 217 517 182 c 2,40,-1
 509 143 l 2,41,42
 502 113 502 113 485 93.5 c 128,-1,43
 468 74 468 74 445 55 c 0,44,45
 435 47 435 47 418 36.5 c 128,-1,46
 401 26 401 26 378.5 17 c 128,-1,47
 356 8 356 8 328 1.5 c 128,-1,48
 300 -5 300 -5 269 -5 c 0,49,50
 214 -5 214 -5 173 12.5 c 128,-1,51
 132 30 132 30 107.5 62 c 128,-1,52
 83 94 83 94 75.5 139.5 c 128,-1,53
 68 185 68 185 80 241 c 256,54,55
 92 297 92 297 118.5 343 c 128,-1,56
 145 389 145 389 183 421.5 c 128,-1,57
 221 454 221 454 270 472 c 128,-1,58
 319 490 319 490 376 490 c 0,0,1
EndSplineSet
EndChar
StartChar: H
Encoding: 72 72 41
Width: 501
Flags: W
Fore
462 28 m 1,0,1
 457 1 457 1 439 1 c 0,2,3
 419 1 419 1 424 28 c 2,4,-1
 466 224 l 1,5,-1
 130 224 l 1,6,-1
 88 28 l 2,7,8
 83 1 83 1 65 1 c 0,9,10
 46 1 46 1 51 28 c 2,11,-1
 144 462 l 2,12,13
 150 489 150 489 168 489 c 0,14,15
 187 489 187 489 181 462 c 2,16,-1
 138 262 l 1,17,-1
 474 262 l 1,18,-1
 517 462 l 2,19,20
 523 489 523 489 542 489 c 256,21,22
 561 489 561 489 555 462 c 2,23,-1
 462 28 l 1,24,-1
 462 28 l 1,0,1
EndSplineSet
EndChar
StartChar: I
Encoding: 73 73 42
Width: 129
Flags: W
Fore
89 28 m 1,0,1
 84 1 84 1 66 1 c 0,2,3
 47 1 47 1 52 28 c 2,4,-1
 145 462 l 2,5,6
 151 489 151 489 169 489 c 0,7,8
 188 489 188 489 182 462 c 2,9,-1
 89 28 l 1,10,-1
 89 28 l 1,0,1
EndSplineSet
EndChar
StartChar: J
Encoding: 74 74 43
Width: 392
Flags: W
Fore
378 156 m 1,0,1
 367 106 367 106 342 74.5 c 128,-1,2
 317 43 317 43 288.5 25.5 c 128,-1,3
 260 8 260 8 233 1.5 c 128,-1,4
 206 -5 206 -5 192 -5 c 2,5,-1
 175 -5 l 2,6,7
 146 -5 146 -5 120 4.5 c 128,-1,8
 94 14 94 14 75.5 33.5 c 128,-1,9
 57 53 57 53 49.5 81.5 c 128,-1,10
 42 110 42 110 50 148 c 2,11,-1
 63 209 l 2,12,13
 69 236 69 236 88 236 c 0,14,15
 106 236 106 236 100 209 c 2,16,-1
 87 148 l 2,17,18
 83 130 83 130 84.5 109 c 128,-1,19
 86 88 86 88 97 71 c 128,-1,20
 108 54 108 54 130.5 42.5 c 128,-1,21
 153 31 153 31 191 31 c 0,22,23
 202 31 202 31 223.5 36.5 c 128,-1,24
 245 42 245 42 268 56 c 128,-1,25
 291 70 291 70 311.5 94 c 128,-1,26
 332 118 332 118 340 156 c 2,27,-1
 403 456 l 2,28,29
 409 483 409 483 428 483 c 256,30,31
 447 483 447 483 441 456 c 2,32,-1
 378 156 l 1,33,-1
 378 156 l 1,0,1
EndSplineSet
EndChar
StartChar: K
Encoding: 75 75 44
Width: 451
Flags: W
Fore
445 12 m 0,0,1
 445 4 445 4 439 -2 c 128,-1,2
 433 -8 433 -8 425 -10 c 256,3,4
 417 -12 417 -12 411 -7.5 c 128,-1,5
 405 -3 405 -3 406 5 c 0,6,7
 407 55 407 55 395.5 95 c 128,-1,8
 384 135 384 135 365.5 166 c 128,-1,9
 347 197 347 197 325.5 219.5 c 128,-1,10
 304 242 304 242 284.5 257 c 128,-1,11
 265 272 265 272 252 279 c 128,-1,12
 239 286 239 286 238 286 c 1,13,-1
 129 221 l 1,14,-1
 89 26 l 2,15,16
 83 0 83 0 66 0 c 0,17,18
 45 0 45 0 51 26 c 2,19,-1
 143 460 l 2,20,21
 149 487 149 487 169 487 c 0,22,23
 187 487 187 487 181 460 c 2,24,-1
 140 264 l 1,25,26
 209 306 209 306 261.5 337.5 c 128,-1,27
 314 369 314 369 354 392.5 c 128,-1,28
 394 416 394 416 422 432 c 128,-1,29
 450 448 450 448 468 459 c 0,30,31
 511 484 511 484 520 487 c 0,32,33
 527 490 527 490 532 487.5 c 128,-1,34
 537 485 537 485 539.5 480 c 128,-1,35
 542 475 542 475 540.5 469 c 128,-1,36
 539 463 539 463 532 460 c 2,37,-1
 282 312 l 1,38,39
 300 301 300 301 328.5 278 c 128,-1,40
 357 255 357 255 383.5 218.5 c 128,-1,41
 410 182 410 182 428.5 130.5 c 128,-1,42
 447 79 447 79 445 12 c 0,0,1
EndSplineSet
EndChar
StartChar: L
Encoding: 76 76 45
Width: 441
Flags: W
Fore
431 19 m 0,0,1
 427 0 427 0 400 0 c 2,2,-1
 131 0 l 2,3,4
 96 0 96 0 77 22 c 128,-1,5
 58 44 58 44 66 82 c 2,6,-1
 146 460 l 2,7,8
 152 487 152 487 171 487 c 256,9,10
 190 487 190 487 184 460 c 2,11,-1
 103 81 l 2,12,13
 98 61 98 61 106.5 49 c 128,-1,14
 115 37 115 37 138 37 c 2,15,-1
 407 37 l 2,16,17
 434 37 434 37 431 19 c 0,0,1
EndSplineSet
EndChar
StartChar: M
Encoding: 77 77 46
Width: 684
Flags: W
Fore
642 22 m 1,0,1
 636 -5 636 -5 618 -5 c 0,2,3
 599 -5 599 -5 605 22 c 2,4,-1
 673 341 l 2,5,6
 680 374 680 374 674.5 396 c 128,-1,7
 669 418 669 418 655.5 431.5 c 128,-1,8
 642 445 642 445 622 450.5 c 128,-1,9
 602 456 602 456 579 456 c 0,10,11
 560 456 560 456 538 451 c 128,-1,12
 516 446 516 446 495 433 c 128,-1,13
 474 420 474 420 457 397.5 c 128,-1,14
 440 375 440 375 433 341 c 2,15,-1
 365 22 l 2,16,17
 359 -5 359 -5 340 -5 c 256,18,19
 321 -5 321 -5 327 22 c 2,20,-1
 395 341 l 2,21,22
 402 373 402 373 396.5 395 c 128,-1,23
 391 417 391 417 377 430.5 c 128,-1,24
 363 444 363 444 343.5 450 c 128,-1,25
 324 456 324 456 302 456 c 0,26,27
 278 456 278 456 254.5 450 c 128,-1,28
 231 444 231 444 211 430.5 c 128,-1,29
 191 417 191 417 176.5 395 c 128,-1,30
 162 373 162 373 155 341 c 2,31,-1
 87 22 l 2,32,33
 81 -5 81 -5 62 -5 c 0,34,35
 44 -5 44 -5 50 22 c 2,36,-1
 118 341 l 2,37,38
 128 391 128 391 153 421.5 c 128,-1,39
 178 452 178 452 207 468 c 128,-1,40
 236 484 236 484 264.5 489 c 128,-1,41
 293 494 293 494 311 494 c 0,42,43
 362 494 362 494 392 469 c 128,-1,44
 422 444 422 444 429 411 c 1,45,46
 453 449 453 449 496.5 471.5 c 128,-1,47
 540 494 540 494 588 494 c 0,48,49
 606 494 606 494 631 489 c 128,-1,50
 656 484 656 484 677 468 c 128,-1,51
 698 452 698 452 709 421.5 c 128,-1,52
 720 391 720 391 710 341 c 2,53,-1
 642 22 l 1,54,-1
 642 22 l 1,0,1
EndSplineSet
EndChar
StartChar: N
Encoding: 78 78 47
Width: 478
Flags: W
Fore
438 27 m 1,0,1
 432 0 432 0 415 0 c 0,2,3
 395 0 395 0 401 27 c 2,4,-1
 436 189 l 1,5,6
 419 254 419 254 399.5 299.5 c 128,-1,7
 380 345 380 345 360 374 c 128,-1,8
 340 403 340 403 320.5 419 c 128,-1,9
 301 435 301 435 283 442 c 0,10,11
 241 458 241 458 199 434 c 0,12,13
 180 422 180 422 171 399.5 c 128,-1,14
 162 377 162 377 157 357 c 2,15,-1
 87 27 l 2,16,17
 81 0 81 0 64 0 c 0,18,19
 44 0 44 0 50 27 c 2,20,-1
 123 368 l 2,21,22
 128 395 128 395 143.5 421 c 128,-1,23
 159 447 159 447 185 464 c 0,24,25
 235 491 235 491 283 482 c 0,26,27
 304 478 304 478 326 466 c 128,-1,28
 348 454 348 454 370.5 429 c 128,-1,29
 393 404 393 404 413.5 365 c 128,-1,30
 434 326 434 326 452 268 c 1,31,-1
 493 461 l 2,32,33
 499 488 499 488 518 488 c 0,34,35
 536 488 536 488 530 461 c 2,36,-1
 438 27 l 1,37,-1
 438 27 l 1,0,1
EndSplineSet
EndChar
StartChar: O
Encoding: 79 79 48
Width: 520
Flags: W
Fore
540 242 m 0,0,1
 528 187 528 187 501.5 141.5 c 128,-1,2
 475 96 475 96 438 63.5 c 128,-1,3
 401 31 401 31 355 13 c 128,-1,4
 309 -5 309 -5 258 -5 c 0,5,6
 210 -5 210 -5 172 13 c 128,-1,7
 134 31 134 31 110.5 63.5 c 128,-1,8
 87 96 87 96 79 141.5 c 128,-1,9
 71 187 71 187 83 242 c 256,10,11
 95 297 95 297 121.5 343 c 128,-1,12
 148 389 148 389 185.5 421.5 c 128,-1,13
 223 454 223 454 269 472 c 128,-1,14
 315 490 315 490 364 490 c 0,15,16
 415 490 415 490 453 471.5 c 128,-1,17
 491 453 491 453 514 420 c 128,-1,18
 537 387 537 387 544 341.5 c 128,-1,19
 551 296 551 296 540 242 c 0,0,1
503 242 m 0,20,21
 512 285 512 285 507 323.5 c 128,-1,22
 502 362 502 362 483.5 390 c 128,-1,23
 465 418 465 418 432.5 434.5 c 128,-1,24
 400 451 400 451 355 451 c 0,25,26
 311 451 311 451 272.5 435 c 128,-1,27
 234 419 234 419 203 391.5 c 128,-1,28
 172 364 172 364 150.5 325.5 c 128,-1,29
 129 287 129 287 120 242 c 0,30,31
 109 193 109 193 116 154.5 c 128,-1,32
 123 116 123 116 143.5 89 c 128,-1,33
 164 62 164 62 196 48 c 128,-1,34
 228 34 228 34 267 34 c 0,35,36
 310 34 310 34 348.5 49.5 c 128,-1,37
 387 65 387 65 418 92.5 c 128,-1,38
 449 120 449 120 471 158 c 128,-1,39
 493 196 493 196 503 242 c 0,20,21
EndSplineSet
EndChar
StartChar: P
Encoding: 80 80 49
Width: 469
Flags: W
Fore
168 243 m 1,0,1
 158 253 158 253 160.5 262 c 128,-1,2
 163 271 163 271 172 276 c 0,3,4
 183 283 183 283 192 276 c 128,-1,5
 201 269 201 269 204 265 c 0,6,7
 226 242 226 242 266.5 229.5 c 128,-1,8
 307 217 307 217 349.5 221.5 c 128,-1,9
 392 226 392 226 427 251.5 c 128,-1,10
 462 277 462 277 474 329 c 0,11,12
 481 359 481 359 474 381.5 c 128,-1,13
 467 404 467 404 449 420 c 128,-1,14
 431 436 431 436 403.5 444 c 128,-1,15
 376 452 376 452 340 452 c 256,16,17
 304 452 304 452 271 443.5 c 128,-1,18
 238 435 238 435 212 418.5 c 128,-1,19
 186 402 186 402 168 377.5 c 128,-1,20
 150 353 150 353 143 322 c 2,21,-1
 80 26 l 2,22,23
 74 -1 74 -1 56 -1 c 0,24,25
 37 -1 37 -1 43 26 c 2,26,-1
 107 329 l 2,27,28
 116 372 116 372 141 403 c 128,-1,29
 166 434 166 434 199 453 c 128,-1,30
 232 472 232 472 271 481 c 128,-1,31
 310 490 310 490 348 490 c 0,32,33
 381 490 381 490 414.5 482 c 128,-1,34
 448 474 448 474 472.5 455 c 128,-1,35
 497 436 497 436 509 405.5 c 128,-1,36
 521 375 521 375 512 330 c 0,37,38
 502 285 502 285 477.5 255 c 128,-1,39
 453 225 453 225 420 208 c 128,-1,40
 387 191 387 191 349.5 186 c 128,-1,41
 312 181 312 181 277 186.5 c 128,-1,42
 242 192 242 192 213 206.5 c 128,-1,43
 184 221 184 221 168 243 c 1,0,1
EndSplineSet
EndChar
StartChar: Q
Encoding: 81 81 50
Width: 523
Flags: W
Fore
541 242 m 0,0,1
 531 197 531 197 509.5 154.5 c 128,-1,2
 488 112 488 112 454 78 c 1,3,4
 462 61 462 61 466.5 42.5 c 128,-1,5
 471 24 471 24 473 -2 c 0,6,7
 474 -10 474 -10 468.5 -17 c 128,-1,8
 463 -24 463 -24 455 -26 c 256,9,10
 447 -28 447 -28 442 -24.5 c 128,-1,11
 437 -21 437 -21 437 -13 c 1,12,13
 434 7 434 7 431 22 c 128,-1,14
 428 37 428 37 422 50 c 1,15,16
 384 21 384 21 342.5 8 c 128,-1,17
 301 -5 301 -5 259 -5 c 0,18,19
 208 -5 208 -5 170 13 c 128,-1,20
 132 31 132 31 108.5 63.5 c 128,-1,21
 85 96 85 96 78 141.5 c 128,-1,22
 71 187 71 187 83 242 c 0,23,24
 95 296 95 296 121 341.5 c 128,-1,25
 147 387 147 387 183.5 420 c 128,-1,26
 220 453 220 453 266.5 471.5 c 128,-1,27
 313 490 313 490 365 490 c 0,28,29
 419 490 419 490 457 470 c 128,-1,30
 495 450 495 450 517.5 416 c 128,-1,31
 540 382 540 382 545.5 337 c 128,-1,32
 551 292 551 292 541 242 c 0,0,1
503 242 m 0,33,34
 512 284 512 284 507.5 322 c 128,-1,35
 503 360 503 360 485 388.5 c 128,-1,36
 467 417 467 417 435 434 c 128,-1,37
 403 451 403 451 356 451 c 0,38,39
 313 451 313 451 274.5 436 c 128,-1,40
 236 421 236 421 205 393.5 c 128,-1,41
 174 366 174 366 152 327.5 c 128,-1,42
 130 289 130 289 120 242 c 0,43,44
 110 196 110 196 117.5 152.5 c 128,-1,45
 125 109 125 109 153 80 c 1,46,47
 163 95 163 95 179.5 111 c 128,-1,48
 196 127 196 127 217.5 139 c 128,-1,49
 239 151 239 151 266 158 c 128,-1,50
 293 165 293 165 324 164 c 0,51,52
 331 164 331 164 344.5 161 c 128,-1,53
 358 158 358 158 373 152 c 128,-1,54
 388 146 388 146 404 135 c 128,-1,55
 420 124 420 124 434 107 c 1,56,57
 460 134 460 134 477.5 169.5 c 128,-1,58
 495 205 495 205 503 242 c 0,33,34
404 80 m 1,59,60
 383 106 383 106 356.5 115.5 c 128,-1,61
 330 125 330 125 314 126 c 0,62,63
 288 127 288 127 265.5 121 c 128,-1,64
 243 115 243 115 225.5 104.5 c 128,-1,65
 208 94 208 94 196 81 c 128,-1,66
 184 68 184 68 178 57 c 1,67,68
 196 44 196 44 220 39 c 128,-1,69
 244 34 244 34 268 34 c 0,70,71
 304 34 304 34 339 45.5 c 128,-1,72
 374 57 374 57 404 80 c 1,59,60
EndSplineSet
EndChar
StartChar: R
Encoding: 82 82 51
Width: 483
Flags: W
Fore
289 192 m 1,0,1
 311 183 311 183 336 159 c 128,-1,2
 361 135 361 135 382.5 108 c 128,-1,3
 404 81 404 81 418.5 56.5 c 128,-1,4
 433 32 433 32 434 22 c 0,5,6
 435 15 435 15 433.5 9 c 128,-1,7
 432 3 432 3 424 -1 c 0,8,9
 409 -9 409 -9 399 8 c 0,10,11
 374 54 374 54 342.5 90 c 128,-1,12
 311 126 311 126 282 152.5 c 128,-1,13
 253 179 253 179 230 195 c 128,-1,14
 207 211 207 211 199 217 c 1,15,16
 188 223 188 223 186 232 c 128,-1,17
 184 241 184 241 192 249 c 0,18,19
 202 258 202 258 210.5 255.5 c 128,-1,20
 219 253 219 253 224 251 c 0,21,22
 264 228 264 228 306 221.5 c 128,-1,23
 348 215 348 215 384 224.5 c 128,-1,24
 420 234 420 234 446.5 260.5 c 128,-1,25
 473 287 473 287 482 329 c 0,26,27
 495 388 495 388 457 420 c 128,-1,28
 419 452 419 452 348 452 c 0,29,30
 312 452 312 452 279 443.5 c 128,-1,31
 246 435 246 435 220 418.5 c 128,-1,32
 194 402 194 402 176 377.5 c 128,-1,33
 158 353 158 353 151 322 c 2,34,-1
 88 26 l 2,35,36
 82 -1 82 -1 64 -1 c 0,37,38
 45 -1 45 -1 51 26 c 2,39,-1
 115 329 l 2,40,41
 124 372 124 372 149 403 c 128,-1,42
 174 434 174 434 207 453 c 128,-1,43
 240 472 240 472 279 481 c 128,-1,44
 318 490 318 490 356 490 c 0,45,46
 389 490 389 490 422.5 482 c 128,-1,47
 456 474 456 474 480.5 455 c 128,-1,48
 505 436 505 436 517 405.5 c 128,-1,49
 529 375 529 375 520 330 c 0,50,51
 511 291 511 291 489.5 261 c 128,-1,52
 468 231 468 231 437 213 c 128,-1,53
 406 195 406 195 368 189.5 c 128,-1,54
 330 184 330 184 289 192 c 1,0,1
EndSplineSet
EndChar
StartChar: S
Encoding: 83 83 52
Width: 436
Flags: W
Fore
435 135 m 0,0,1
 427 97 427 97 405.5 70.5 c 128,-1,2
 384 44 384 44 353.5 27.5 c 128,-1,3
 323 11 323 11 286.5 3 c 128,-1,4
 250 -5 250 -5 213 -5 c 0,5,6
 150 -5 150 -5 104 18 c 128,-1,7
 58 41 58 41 44 79 c 0,8,9
 41 87 41 87 44.5 94.5 c 128,-1,10
 48 102 48 102 56 106 c 0,11,12
 64 111 64 111 71.5 108.5 c 128,-1,13
 79 106 79 106 82 99 c 0,14,15
 93 70 93 70 131.5 52 c 128,-1,16
 170 34 170 34 222 34 c 0,17,18
 250 34 250 34 278.5 39.5 c 128,-1,19
 307 45 307 45 331 57 c 128,-1,20
 355 69 355 69 372.5 88 c 128,-1,21
 390 107 390 107 396 135 c 0,22,23
 402 160 402 160 390 177 c 128,-1,24
 378 194 378 194 357 204 c 128,-1,25
 336 214 336 214 311 218 c 128,-1,26
 286 222 286 222 265 222 c 0,27,28
 231 222 231 222 198 229 c 128,-1,29
 165 236 165 236 140.5 251 c 128,-1,30
 116 266 116 266 103.5 290 c 128,-1,31
 91 314 91 314 98 348 c 0,32,33
 105 379 105 379 124.5 404.5 c 128,-1,34
 144 430 144 430 173.5 449 c 128,-1,35
 203 468 203 468 241.5 478.5 c 128,-1,36
 280 489 280 489 324 489 c 0,37,38
 387 489 387 489 431.5 466.5 c 128,-1,39
 476 444 476 444 490 406 c 0,40,41
 492 399 492 399 488.5 391.5 c 128,-1,42
 485 384 485 384 477 380 c 0,43,44
 469 375 469 375 462 377 c 128,-1,45
 455 379 455 379 452 386 c 0,46,47
 441 415 441 415 404.5 432 c 128,-1,48
 368 449 368 449 316 449 c 0,49,50
 284 449 284 449 254.5 442 c 128,-1,51
 225 435 225 435 200.5 422 c 128,-1,52
 176 409 176 409 159 390.5 c 128,-1,53
 142 372 142 372 137 348 c 0,54,55
 132 323 132 323 143 306.5 c 128,-1,56
 154 290 154 290 174.5 280 c 128,-1,57
 195 270 195 270 221 265.5 c 128,-1,58
 247 261 247 261 273 261 c 0,59,60
 300 261 300 261 331.5 254.5 c 128,-1,61
 363 248 363 248 388.5 233.5 c 128,-1,62
 414 219 414 219 428 195 c 128,-1,63
 442 171 442 171 435 135 c 0,0,1
EndSplineSet
EndChar
StartChar: T
Encoding: 84 84 53
Width: 433
Flags: W
Fore
241 24 m 2,0,1
 235 -3 235 -3 216 -3 c 0,2,3
 198 -3 198 -3 204 24 c 2,4,-1
 295 453 l 1,5,6
 272 452 272 452 249.5 449.5 c 128,-1,7
 227 447 227 447 205.5 441 c 128,-1,8
 184 435 184 435 163 425 c 128,-1,9
 142 415 142 415 123 398 c 1,10,11
 118 392 118 392 109.5 391 c 128,-1,12
 101 390 101 390 95 395 c 0,13,14
 90 400 90 400 91.5 407 c 128,-1,15
 93 414 93 414 98 419 c 0,16,17
 125 451 125 451 181 469.5 c 128,-1,18
 237 488 237 488 320 488 c 0,19,20
 405 488 405 488 452.5 469.5 c 128,-1,21
 500 451 500 451 514 419 c 0,22,23
 516 414 516 414 514.5 407 c 128,-1,24
 513 400 513 400 505 395 c 256,25,26
 497 390 497 390 490 391.5 c 128,-1,27
 483 393 483 393 479 398 c 0,28,29
 461 426 461 426 423.5 439 c 128,-1,30
 386 452 386 452 332 453 c 1,31,-1
 241 24 l 2,0,1
EndSplineSet
EndChar
StartChar: U
Encoding: 85 85 54
Width: 503
Flags: W
Fore
494 183 m 1,0,1
 494 181 494 181 491.5 168.5 c 128,-1,2
 489 156 489 156 481.5 137.5 c 128,-1,3
 474 119 474 119 460 97 c 128,-1,4
 446 75 446 75 423 54 c 0,5,6
 358 -5 358 -5 250 -5 c 0,7,8
 144 -5 144 -5 102 54 c 0,9,10
 87 75 87 75 82.5 97.5 c 128,-1,11
 78 120 78 120 78.5 139 c 128,-1,12
 79 158 79 158 82 170.5 c 128,-1,13
 85 183 85 183 85 185 c 1,14,-1
 92 219 l 2,15,16
 97 245 97 245 109 300 c 128,-1,17
 121 355 121 355 143 458 c 0,18,19
 149 485 149 485 168 485 c 0,20,21
 186 485 186 485 180 458 c 2,22,-1
 121 183 l 2,23,24
 121 182 121 182 119 172 c 128,-1,25
 117 162 117 162 117 146.5 c 128,-1,26
 117 131 117 131 120.5 113 c 128,-1,27
 124 95 124 95 135 79 c 0,28,29
 170 33 170 33 259 33 c 256,30,31
 348 33 348 33 400 79 c 0,32,33
 417 93 417 93 427.5 111 c 128,-1,34
 438 129 438 129 445 145 c 0,35,36
 453 163 453 163 457 181 c 2,37,-1
 516 458 l 2,38,39
 522 485 522 485 541 485 c 0,40,41
 559 485 559 485 553 458 c 2,42,-1
 494 183 l 1,0,1
EndSplineSet
EndChar
StartChar: V
Encoding: 86 86 55
Width: 428
Flags: W
Fore
381 140 m 2,0,1
 359 87 359 87 335.5 58.5 c 128,-1,2
 312 30 312 30 289.5 16.5 c 128,-1,3
 267 3 267 3 247.5 0.5 c 128,-1,4
 228 -2 228 -2 214 -2 c 256,5,6
 200 -2 200 -2 181.5 0.5 c 128,-1,7
 163 3 163 3 146.5 16.5 c 128,-1,8
 130 30 130 30 118 58.5 c 128,-1,9
 106 87 106 87 106 140 c 2,10,-1
 106 455 l 2,11,12
 107 467 107 467 111 474.5 c 128,-1,13
 115 482 115 482 126 485 c 0,14,15
 134 488 134 488 139.5 480.5 c 128,-1,16
 145 473 145 473 145 459 c 2,17,-1
 144 140 l 2,18,19
 144 99 144 99 152.5 76.5 c 128,-1,20
 161 54 161 54 173 44 c 128,-1,21
 185 34 185 34 198 32.5 c 128,-1,22
 211 31 211 31 221 31 c 256,23,24
 231 31 231 31 244.5 32.5 c 128,-1,25
 258 34 258 34 274.5 44 c 128,-1,26
 291 54 291 54 308.5 76.5 c 128,-1,27
 326 99 326 99 344 140 c 2,28,-1
 479 459 l 2,29,30
 485 473 485 473 493 480.5 c 128,-1,31
 501 488 501 488 510 485 c 0,32,33
 520 482 520 482 520 474.5 c 128,-1,34
 520 467 520 467 515 455 c 2,35,-1
 381 140 l 2,0,1
EndSplineSet
EndChar
StartChar: W
Encoding: 87 87 56
Width: 660
Flags: W
Fore
723 460 m 2,0,-1
 655 141 l 2,1,2
 644 91 644 91 620.5 60.5 c 128,-1,3
 597 30 597 30 569 14 c 128,-1,4
 541 -2 541 -2 513.5 -7 c 128,-1,5
 486 -12 486 -12 468 -12 c 0,6,7
 420 -12 420 -12 386.5 10.5 c 128,-1,8
 353 33 353 33 345 71 c 1,9,10
 324 38 324 38 283 13 c 128,-1,11
 242 -12 242 -12 191 -12 c 0,12,13
 173 -12 173 -12 147 -7 c 128,-1,14
 121 -2 121 -2 98.5 14 c 128,-1,15
 76 30 76 30 64 60.5 c 128,-1,16
 52 91 52 91 63 141 c 2,17,-1
 131 460 l 2,18,19
 137 487 137 487 155 487 c 0,20,21
 174 487 174 487 168 460 c 2,22,-1
 100 141 l 2,23,24
 93 109 93 109 98.5 87 c 128,-1,25
 104 65 104 65 118.5 51.5 c 128,-1,26
 133 38 133 38 154 32 c 128,-1,27
 175 26 175 26 199 26 c 0,28,29
 221 26 221 26 243 32 c 128,-1,30
 265 38 265 38 284.5 51.5 c 128,-1,31
 304 65 304 65 318.5 87 c 128,-1,32
 333 109 333 109 340 141 c 2,33,-1
 408 460 l 2,34,35
 414 487 414 487 433 487 c 256,36,37
 452 487 452 487 446 460 c 2,38,-1
 378 141 l 2,39,40
 371 106 371 106 378.5 84 c 128,-1,41
 386 62 386 62 401.5 49 c 128,-1,42
 417 36 417 36 437 31 c 128,-1,43
 457 26 457 26 476 26 c 0,44,45
 499 26 499 26 521.5 31.5 c 128,-1,46
 544 37 544 37 563 50.5 c 128,-1,47
 582 64 582 64 596.5 86 c 128,-1,48
 611 108 611 108 618 141 c 2,49,-1
 686 460 l 2,50,51
 692 487 692 487 711 487 c 0,52,53
 729 487 729 487 723 460 c 2,0,-1
EndSplineSet
EndChar
StartChar: X
Encoding: 88 88 57
Width: 434
Flags: W
Fore
426 23 m 1,0,1
 428 16 428 16 424 8.5 c 128,-1,2
 420 1 420 1 412 -3 c 256,3,4
 404 -7 404 -7 397 -4.5 c 128,-1,5
 390 -2 390 -2 388 6 c 2,6,-1
 343 163 l 2,7,8
 330 204 330 204 310.5 217 c 128,-1,9
 291 230 291 230 267 230 c 0,10,11
 242 230 242 230 217.5 217 c 128,-1,12
 193 204 193 204 162 163 c 2,13,-1
 51 6 l 2,14,15
 46 -2 46 -2 38 -4.5 c 128,-1,16
 30 -7 30 -7 23 -3 c 0,17,18
 17 1 17 1 15.5 8.5 c 128,-1,19
 14 16 14 16 19 23 c 2,20,-1
 135 183 l 2,21,22
 145 195 145 195 152 204 c 128,-1,23
 159 213 159 213 166.5 220.5 c 128,-1,24
 174 228 174 228 183 235 c 128,-1,25
 192 242 192 242 206 249 c 1,26,27
 180 268 180 268 161 317 c 2,28,-1
 112 459 l 2,29,30
 110 467 110 467 114.5 474.5 c 128,-1,31
 119 482 119 482 127 486 c 0,32,33
 135 489 135 489 142 486.5 c 128,-1,34
 149 484 149 484 151 477 c 2,35,-1
 198 331 l 2,36,37
 205 309 205 309 213.5 296.5 c 128,-1,38
 222 284 222 284 231.5 278 c 128,-1,39
 241 272 241 272 252.5 270.5 c 128,-1,40
 264 269 264 269 276 269 c 256,41,42
 288 269 288 269 299.5 270.5 c 128,-1,43
 311 272 311 272 323.5 278 c 128,-1,44
 336 284 336 284 349.5 296.5 c 128,-1,45
 363 309 363 309 379 331 c 2,46,-1
 488 477 l 2,47,48
 493 484 493 484 501 486.5 c 128,-1,49
 509 489 509 489 516 486 c 1,50,51
 522 482 522 482 523 474.5 c 128,-1,52
 524 467 524 467 519 459 c 2,53,-1
 410 316 l 2,54,55
 390 291 390 291 371.5 275 c 128,-1,56
 353 259 353 259 335 249 c 1,57,58
 349 240 349 240 360 224.5 c 128,-1,59
 371 209 371 209 381 181 c 2,60,-1
 426 23 l 1,61,-1
 426 23 l 1,0,1
EndSplineSet
EndChar
StartChar: Y
Encoding: 89 89 58
Width: 445
Flags: W
Fore
443 131 m 1,0,1
 431 75 431 75 383 39 c 0,2,3
 333 0 333 0 277 0 c 2,4,-1
 128 0 l 2,5,6
 100 0 100 0 105 19 c 0,7,8
 108 38 108 38 136 38 c 2,9,-1
 285 38 l 2,10,11
 327 38 327 38 362 64 c 0,12,13
 399 93 399 93 406 131 c 2,14,-1
 425 220 l 1,15,16
 394 190 394 190 351 172 c 128,-1,17
 308 154 308 154 255 154 c 256,18,19
 202 154 202 154 170.5 169 c 128,-1,20
 139 184 139 184 119 213 c 0,21,22
 104 234 104 234 99.5 256.5 c 128,-1,23
 95 279 95 279 95.5 298 c 128,-1,24
 96 317 96 317 99 329.5 c 128,-1,25
 102 342 102 342 102 344 c 1,26,-1
 105 358 l 2,27,28
 107 369 107 369 111.5 392 c 128,-1,29
 116 415 116 415 126 459 c 0,30,31
 132 486 132 486 152 486 c 0,32,33
 168 486 168 486 162 459 c 2,34,-1
 137 342 l 2,35,36
 137 341 137 341 135 331 c 128,-1,37
 133 321 133 321 133 305.5 c 128,-1,38
 133 290 133 290 136.5 272 c 128,-1,39
 140 254 140 254 152 238 c 0,40,41
 169 215 169 215 193.5 203.5 c 128,-1,42
 218 192 218 192 263 192 c 256,43,44
 308 192 308 192 341.5 204.5 c 128,-1,45
 375 217 375 217 401 240 c 0,46,47
 420 257 420 257 430.5 276 c 128,-1,48
 441 295 441 295 444 310 c 2,49,-1
 476 459 l 2,50,51
 482 486 482 486 501 486 c 0,52,53
 519 486 519 486 513 459 c 2,54,-1
 443 131 l 1,55,-1
 443 131 l 1,0,1
EndSplineSet
EndChar
StartChar: Z
Encoding: 90 90 59
Width: 461
Flags: W
Fore
96 134 m 0,0,1
 191 200 191 200 268 254 c 0,2,3
 301 277 301 277 332.5 299 c 128,-1,4
 364 321 364 321 389 339 c 128,-1,5
 414 357 414 357 430 368 c 128,-1,6
 446 379 446 379 448 381 c 0,7,8
 463 392 463 392 472.5 402 c 128,-1,9
 482 412 482 412 484 424 c 0,10,11
 485 437 485 437 476.5 443.5 c 128,-1,12
 468 450 468 450 445 450 c 2,13,-1
 149 450 l 2,14,15
 121 450 121 450 126 468 c 0,16,17
 130 487 130 487 157 487 c 2,18,-1
 453 487 l 2,19,20
 488 487 488 487 508.5 471.5 c 128,-1,21
 529 456 529 456 522 424 c 0,22,23
 517 401 517 401 504 386.5 c 128,-1,24
 491 372 491 372 466 353 c 2,25,26
 450.5 342 l 130,-1,27
 435 331 435 331 410.5 313.5 c 128,-1,28
 386 296 386 296 354 274 c 128,-1,29
 322 252 322 252 289 229 c 0,30,31
 212 174 212 174 113 106 c 0,32,33
 97 96 97 96 88 85.5 c 128,-1,34
 79 75 79 75 78 63 c 0,35,36
 76 50 76 50 84.5 43.5 c 128,-1,37
 93 37 93 37 116 37 c 2,38,-1
 412 37 l 2,39,40
 439 37 439 37 436 19 c 0,41,42
 432 0 432 0 405 0 c 2,43,-1
 109 0 l 2,44,45
 74 0 74 0 53.5 15.5 c 128,-1,46
 33 31 33 31 40 63 c 0,47,48
 45 86 45 86 58 100.5 c 128,-1,49
 71 115 71 115 96 134 c 0,0,1
EndSplineSet
EndChar
StartChar: bracketleft
Encoding: 91 91 60
Width: 246
Flags: W
Fore
201 -105 m 0,0,1
 198 -123 198 -123 170 -123 c 2,2,-1
 55 -123 l 2,3,4
 39 -123 39 -123 35.5 -114 c 128,-1,5
 32 -105 32 -105 35 -93 c 2,6,-1
 158 486 l 2,7,8
 160 498 160 498 167.5 507 c 128,-1,9
 175 516 175 516 191 516 c 2,10,-1
 306 516 l 2,11,12
 333 516 333 516 329 498 c 0,13,14
 326 479 326 479 298 479 c 2,15,-1
 192 479 l 1,16,-1
 73 -86 l 1,17,-1
 178 -86 l 2,18,19
 205 -86 205 -86 201 -105 c 0,0,1
EndSplineSet
EndChar
StartChar: backslash
Encoding: 92 92 61
Width: 212
Flags: W
Fore
236 17 m 1,0,1
 238 11 238 11 234 4.5 c 128,-1,2
 230 -2 230 -2 223 -5 c 256,3,4
 216 -8 216 -8 210 -5.5 c 128,-1,5
 204 -3 204 -3 202 3 c 2,6,-1
 87 479 l 2,7,8
 85 486 85 486 89 492.5 c 128,-1,9
 93 499 93 499 100 501 c 0,10,11
 108 504 108 504 113.5 502 c 128,-1,12
 119 500 119 500 120 493 c 2,13,-1
 236 17 l 1,14,-1
 236 17 l 1,0,1
EndSplineSet
EndChar
StartChar: bracketright
Encoding: 93 93 62
Width: 245
Flags: W
Fore
170 -93 m 2,0,1
 167 -105 167 -105 159.5 -114 c 128,-1,2
 152 -123 152 -123 135 -123 c 2,3,-1
 20 -123 l 2,4,5
 -5 -123 -5 -123 -2 -105 c 0,6,7
 1 -86 1 -86 28 -86 c 2,8,-1
 134 -86 l 1,9,-1
 254 479 l 1,10,-1
 148 479 l 2,11,12
 123 479 123 479 126 498 c 0,13,14
 130 516 130 516 156 516 c 2,15,-1
 271 516 l 2,16,17
 288 516 288 516 291.5 507 c 128,-1,18
 295 498 295 498 293 486 c 2,19,-1
 170 -93 l 2,0,1
EndSplineSet
EndChar
StartChar: asciicircum
Encoding: 94 94 63
Width: 460
Flags: W
Fore
416 196 m 1,0,1
 416 191 416 191 415 187.5 c 128,-1,2
 414 184 414 184 408 179 c 0,3,4
 400 173 400 173 392.5 173 c 128,-1,5
 385 173 385 173 380 179 c 1,6,-1
 321 439 l 1,7,-1
 152 179 l 1,8,9
 144 173 144 173 136 172 c 128,-1,10
 128 171 128 171 123 177 c 0,11,12
 119 182 119 182 119.5 186 c 128,-1,13
 120 190 120 190 121 194 c 1,14,-1
 316 480 l 1,15,16
 323 486 323 486 331 486 c 128,-1,17
 339 486 339 486 344 480 c 1,18,-1
 416 196 l 1,19,-1
 416 196 l 1,0,1
EndSplineSet
EndChar
StartChar: underscore
Encoding: 95 95 64
Width: 460
Flags: W
Fore
-17 -84 m 1,0,-1
 -10 -50 l 1,1,-1
 449 -50 l 1,2,-1
 442 -84 l 1,3,-1
 -17 -84 l 1,0,-1
EndSplineSet
EndChar
StartChar: grave
Encoding: 96 96 65
Width: 152
Flags: W
Fore
171 353 m 1,0,1
 166 327 166 327 144 326 c 0,2,3
 124 326 124 326 131 353 c 2,4,-1
 155 468 l 2,5,6
 157 482 157 482 164.5 488 c 128,-1,7
 172 494 172 494 182 494 c 0,8,9
 200 494 200 494 195 468 c 2,10,-1
 171 353 l 1,11,-1
 171 353 l 1,0,1
EndSplineSet
EndChar
StartChar: a
Encoding: 97 97 66
Width: 430
Flags: W
Fore
390 18 m 2,0,1
 388 10 388 10 381.5 5 c 128,-1,2
 375 0 375 0 367 0 c 256,3,4
 359 0 359 0 355 5 c 128,-1,5
 351 10 351 10 352 18 c 2,6,-1
 359 50 l 1,7,8
 328 24 328 24 287 9.5 c 128,-1,9
 246 -5 246 -5 195 -5 c 0,10,11
 146 -5 146 -5 116.5 7 c 128,-1,12
 87 19 87 19 72 37 c 128,-1,13
 57 55 57 55 54.5 77 c 128,-1,14
 52 99 52 99 57 119 c 0,15,16
 72 176 72 176 124.5 210 c 128,-1,17
 177 244 177 244 259 244 c 0,18,19
 292 243 292 243 319 236 c 0,20,21
 342 230 342 230 362 217 c 128,-1,22
 382 204 382 204 387 181 c 1,23,24
 395 212 395 212 394.5 236.5 c 128,-1,25
 394 261 394 261 380 281 c 0,26,27
 351 322 351 322 264 322 c 0,28,29
 229 322 229 322 201.5 314 c 128,-1,30
 174 306 174 306 145 292 c 0,31,32
 136 287 136 287 128 286 c 128,-1,33
 120 285 120 285 115 291 c 0,34,35
 111 297 111 297 114 305.5 c 128,-1,36
 117 314 117 314 130 322 c 0,37,38
 155 336 155 336 190.5 347.5 c 128,-1,39
 226 359 226 359 274 359 c 0,40,41
 375 359 375 359 414 307 c 0,42,43
 433 281 433 281 433 251 c 128,-1,44
 433 221 433 221 428 196 c 2,45,-1
 390 18 l 2,0,1
368 117 m 0,46,47
 372 133 372 133 370 149 c 128,-1,48
 368 165 368 165 355 178 c 128,-1,49
 342 191 342 191 316.5 199 c 128,-1,50
 291 207 291 207 249 207 c 0,51,52
 223 207 223 207 197.5 201.5 c 128,-1,53
 172 196 172 196 150 184.5 c 128,-1,54
 128 173 128 173 112.5 156.5 c 128,-1,55
 97 140 97 140 92 119 c 0,56,57
 81 73 81 73 113 51 c 128,-1,58
 145 29 145 29 208 29 c 0,59,60
 249 29 249 29 278 37.5 c 128,-1,61
 307 46 307 46 326 59 c 128,-1,62
 345 72 345 72 355 87.5 c 128,-1,63
 365 103 365 103 368 117 c 0,46,47
EndSplineSet
Substitution: 0 65534 'L026' uni0E38
Substitution: 0 65534 'L026' uni0E38
EndChar
StartChar: b
Encoding: 98 98 67
Width: 458
Flags: W
Fore
462 177 m 0,0,1
 454 139 454 139 434 106 c 128,-1,2
 414 73 414 73 385 49 c 128,-1,3
 356 25 356 25 317.5 11 c 128,-1,4
 279 -3 279 -3 234 -3 c 0,5,6
 130 -3 130 -3 95 62 c 1,7,-1
 85 15 l 2,8,9
 83 7 83 7 76 1 c 128,-1,10
 69 -5 69 -5 61 -5 c 256,11,12
 53 -5 53 -5 49 1 c 128,-1,13
 45 7 45 7 47 15 c 2,14,-1
 161 555 l 2,15,16
 163 563 163 563 170.5 568.5 c 128,-1,17
 178 574 178 574 186 574 c 0,18,19
 205 574 205 574 200 555 c 2,20,-1
 145 294 l 1,21,22
 174 322 174 322 214 339.5 c 128,-1,23
 254 357 254 357 310 357 c 0,24,25
 356 357 356 357 388.5 343 c 128,-1,26
 421 329 421 329 440 304.5 c 128,-1,27
 459 280 459 280 464.5 247 c 128,-1,28
 470 214 470 214 462 177 c 0,0,1
424 177 m 0,29,30
 438 239 438 239 407 278.5 c 128,-1,31
 376 318 376 318 302 318 c 0,32,33
 275 318 275 318 246 310.5 c 128,-1,34
 217 303 217 303 191.5 286 c 128,-1,35
 166 269 166 269 146.5 242.5 c 128,-1,36
 127 216 127 216 120 177 c 0,37,38
 107 116 107 116 137.5 76 c 128,-1,39
 168 36 168 36 242 36 c 0,40,41
 296 36 296 36 330.5 54.5 c 128,-1,42
 365 73 365 73 385.5 97.5 c 128,-1,43
 406 122 406 122 414 145 c 128,-1,44
 422 168 422 168 424 177 c 0,29,30
EndSplineSet
Substitution: 0 65534 'L026' uni0E39
Substitution: 0 65534 'L026' uni0E39
EndChar
StartChar: c
Encoding: 99 99 68
Width: 404
Flags: W
Fore
435 301 m 0,0,1
 440 295 440 295 437.5 286.5 c 128,-1,2
 435 278 435 278 428 273 c 256,3,4
 421 268 421 268 413.5 268.5 c 128,-1,5
 406 269 406 269 402 275 c 0,6,7
 374 318 374 318 288 318 c 0,8,9
 218 318 218 318 169 280.5 c 128,-1,10
 120 243 120 243 106 177 c 0,11,12
 93 115 93 115 124.5 75.5 c 128,-1,13
 156 36 156 36 228 36 c 0,14,15
 314 36 314 36 360 79 c 0,16,17
 367 85 367 85 374.5 85.5 c 128,-1,18
 382 86 382 86 387 80 c 0,19,20
 392 75 392 75 390 67 c 128,-1,21
 388 59 388 59 382 53 c 0,22,23
 321 -3 321 -3 220 -3 c 0,24,25
 178 -3 178 -3 145.5 11 c 128,-1,26
 113 25 113 25 93 49 c 128,-1,27
 73 73 73 73 66.5 106 c 128,-1,28
 60 139 60 139 68 177 c 0,29,30
 75 208 75 208 93 240 c 128,-1,31
 111 272 111 272 139.5 298 c 128,-1,32
 168 324 168 324 207 340.5 c 128,-1,33
 246 357 246 357 296 357 c 0,34,35
 397 357 397 357 435 301 c 0,0,1
EndSplineSet
Substitution: 0 65534 'L026' uni0E3A
Substitution: 0 65534 'L026' uni0E3A
EndChar
StartChar: d
Encoding: 100 100 69
Width: 458
Flags: W
Fore
68 178 m 0,0,1
 76 215 76 215 95.5 248 c 128,-1,2
 115 281 115 281 144.5 305.5 c 128,-1,3
 174 330 174 330 212.5 344 c 128,-1,4
 251 358 251 358 297 358 c 0,5,6
 353 358 353 358 385.5 340.5 c 128,-1,7
 418 323 418 323 435 295 c 1,8,-1
 491 556 l 2,9,10
 493 564 493 564 499.5 569.5 c 128,-1,11
 506 575 506 575 514 575 c 256,12,13
 522 575 522 575 527 569.5 c 128,-1,14
 532 564 532 564 530 556 c 2,15,-1
 415 16 l 2,16,17
 413 8 413 8 406.5 2 c 128,-1,18
 400 -4 400 -4 392 -4 c 256,19,20
 384 -4 384 -4 379.5 2 c 128,-1,21
 375 8 375 8 377 16 c 2,22,-1
 387 63 l 1,23,24
 323 -2 323 -2 220 -2 c 0,25,26
 175 -2 175 -2 142.5 12 c 128,-1,27
 110 26 110 26 91 50 c 128,-1,28
 72 74 72 74 66 107 c 128,-1,29
 60 140 60 140 68 178 c 0,0,1
106 178 m 0,30,31
 104 169 104 169 102.5 146 c 128,-1,32
 101 123 101 123 110.5 98.5 c 128,-1,33
 120 74 120 74 147 55.5 c 128,-1,34
 174 37 174 37 228 37 c 0,35,36
 303 37 303 37 350 77 c 128,-1,37
 397 117 397 117 410 178 c 0,38,39
 419 217 419 217 411.5 243.5 c 128,-1,40
 404 270 404 270 385 287 c 128,-1,41
 366 304 366 304 340.5 311.5 c 128,-1,42
 315 319 315 319 288 319 c 0,43,44
 214 319 214 319 167 279.5 c 128,-1,45
 120 240 120 240 106 178 c 0,30,31
EndSplineSet
EndChar
StartChar: e
Encoding: 101 101 70
Width: 438
Flags: W
Fore
400 96 m 0,0,1
 405 90 405 90 402.5 79.5 c 128,-1,2
 400 69 400 69 392 64 c 1,3,4
 361 32 361 32 318.5 14 c 128,-1,5
 276 -4 276 -4 222 -4 c 0,6,7
 134 -4 134 -4 93.5 46 c 128,-1,8
 53 96 53 96 71 181 c 0,9,10
 78 213 78 213 96.5 245 c 128,-1,11
 115 277 115 277 143.5 303 c 128,-1,12
 172 329 172 329 210.5 345 c 128,-1,13
 249 361 249 361 296 361 c 0,14,15
 353 361 353 361 384 344 c 128,-1,16
 415 327 415 327 428 310 c 0,17,18
 451 280 451 280 452.5 253 c 128,-1,19
 454 226 454 226 443.5 205.5 c 128,-1,20
 433 185 433 185 415.5 173.5 c 128,-1,21
 398 162 398 162 384 162 c 2,22,-1
 105 162 l 1,23,24
 97 102 97 102 132.5 68.5 c 128,-1,25
 168 35 168 35 230 35 c 0,26,27
 275 35 275 35 310 50 c 128,-1,28
 345 65 345 65 368 88 c 0,29,30
 376 96 376 96 385 99 c 128,-1,31
 394 102 394 102 400 96 c 0,0,1
385 200 m 2,32,33
 394 200 394 200 400.5 209 c 128,-1,34
 407 218 407 218 408.5 231 c 128,-1,35
 410 244 410 244 407 258.5 c 128,-1,36
 404 273 404 273 395 283 c 0,37,38
 383 295 383 295 359 308.5 c 128,-1,39
 335 322 335 322 288 322 c 0,40,41
 243 322 243 322 211.5 307 c 128,-1,42
 180 292 180 292 159.5 271.5 c 128,-1,43
 139 251 139 251 128.5 230.5 c 128,-1,44
 118 210 118 210 114 200 c 1,45,-1
 385 200 l 2,32,33
EndSplineSet
EndChar
StartChar: f
Encoding: 102 102 71
Width: 206
Flags: W
Fore
352 554 m 0,0,1
 347 534 347 534 322 534 c 2,2,-1
 292 534 l 2,3,4
 239 534 239 534 214 504 c 128,-1,5
 189 474 189 474 179 428 c 2,6,-1
 156 318 l 1,7,8
 166 330 166 330 178 336.5 c 128,-1,9
 190 343 190 343 201 346 c 0,10,11
 213 350 213 350 225 350 c 2,12,-1
 243 350 l 2,13,14
 269 350 269 350 265 332 c 0,15,16
 260 312 260 312 235 312 c 2,17,-1
 214 312 l 2,18,19
 197 312 197 312 184 304 c 128,-1,20
 171 296 171 296 162 284.5 c 128,-1,21
 153 273 153 273 147 260 c 128,-1,22
 141 247 141 247 139 237 c 2,23,-1
 93 23 l 2,24,25
 87 -4 87 -4 70 -4 c 0,26,27
 50 -4 50 -4 56 23 c 2,28,-1
 142 428 l 2,29,30
 157 497 157 497 199.5 534.5 c 128,-1,31
 242 572 242 572 308 572 c 2,32,-1
 330 572 l 2,33,34
 356 572 356 572 352 554 c 0,0,1
EndSplineSet
EndChar
StartChar: g
Encoding: 103 103 72
Width: 453
Flags: W
Fore
410 -4 m 2,0,1
 396 -67 396 -67 355 -110 c 128,-1,2
 314 -153 314 -153 252 -169 c 0,3,4
 222 -177 222 -177 193 -176.5 c 128,-1,5
 164 -176 164 -176 139.5 -169.5 c 128,-1,6
 115 -163 115 -163 97.5 -150.5 c 128,-1,7
 80 -138 80 -138 73 -120 c 0,8,9
 68 -104 68 -104 85 -95 c 0,10,11
 92 -91 92 -91 99.5 -93 c 128,-1,12
 107 -95 107 -95 109 -101 c 0,13,14
 113 -112 113 -112 126 -121 c 128,-1,15
 139 -130 139 -130 158 -135 c 128,-1,16
 177 -140 177 -140 200.5 -140 c 128,-1,17
 224 -140 224 -140 249 -133 c 0,18,19
 263 -130 263 -130 281.5 -122 c 128,-1,20
 300 -114 300 -114 318 -99 c 128,-1,21
 336 -84 336 -84 351 -61 c 128,-1,22
 366 -38 366 -38 373 -4 c 2,23,-1
 388 67 l 1,24,25
 359 39 359 39 317.5 18.5 c 128,-1,26
 276 -2 276 -2 220 -2 c 0,27,28
 174 -2 174 -2 141.5 12 c 128,-1,29
 109 26 109 26 90 50.5 c 128,-1,30
 71 75 71 75 65.5 107.5 c 128,-1,31
 60 140 60 140 68 178 c 256,32,33
 76 216 76 216 96 249 c 128,-1,34
 116 282 116 282 145.5 306 c 128,-1,35
 175 330 175 330 213.5 344 c 128,-1,36
 252 358 252 358 297 358 c 0,37,38
 399 358 399 358 436 293 c 1,39,-1
 446 340 l 2,40,41
 448 348 448 348 454.5 354 c 128,-1,42
 461 360 461 360 469 360 c 256,43,44
 477 360 477 360 481 354 c 128,-1,45
 485 348 485 348 483 340 c 2,46,-1
 410 -4 l 2,0,1
106 178 m 0,47,48
 93 116 93 116 123.5 76.5 c 128,-1,49
 154 37 154 37 228 37 c 0,50,51
 255 37 255 37 284 44.5 c 128,-1,52
 313 52 313 52 338.5 69 c 128,-1,53
 364 86 364 86 383.5 112.5 c 128,-1,54
 403 139 403 139 410 178 c 0,55,56
 423 239 423 239 392.5 279 c 128,-1,57
 362 319 362 319 288 319 c 0,58,59
 234 319 234 319 199.5 300.5 c 128,-1,60
 165 282 165 282 144.5 257.5 c 128,-1,61
 124 233 124 233 116 210 c 128,-1,62
 108 187 108 187 106 178 c 0,47,48
EndSplineSet
EndChar
StartChar: h
Encoding: 104 104 73
Width: 450
Flags: W
Fore
407 16 m 1,0,1
 405 8 405 8 398.5 2 c 128,-1,2
 392 -4 392 -4 384 -4 c 256,3,4
 376 -4 376 -4 371.5 2 c 128,-1,5
 367 8 367 8 369 16 c 2,6,-1
 404 180 l 2,7,8
 434 321 434 321 293 321 c 0,9,10
 262 321 262 321 233 309 c 128,-1,11
 204 297 204 297 180.5 276.5 c 128,-1,12
 157 256 157 256 140.5 229.5 c 128,-1,13
 124 203 124 203 118 174 c 2,14,-1
 85 16 l 2,15,16
 83 8 83 8 76.5 2 c 128,-1,17
 70 -4 70 -4 62 -4 c 256,18,19
 54 -4 54 -4 50 2 c 128,-1,20
 46 8 46 8 48 16 c 2,21,-1
 165 565 l 2,22,23
 167 573 167 573 173 579 c 128,-1,24
 179 585 179 585 187 585 c 256,25,26
 195 585 195 585 199.5 579 c 128,-1,27
 204 573 204 573 202 565 c 2,28,-1
 142 283 l 1,29,30
 168 315 168 315 209 337.5 c 128,-1,31
 250 360 250 360 301 360 c 0,32,33
 344 360 344 360 374.5 346 c 128,-1,34
 405 332 405 332 422.5 308 c 128,-1,35
 440 284 440 284 445 251 c 128,-1,36
 450 218 450 218 442 180 c 2,37,-1
 407 16 l 1,38,-1
 407 16 l 1,0,1
EndSplineSet
EndChar
StartChar: i
Encoding: 105 105 74
Width: 125
Flags: W
Fore
85 23 m 2,0,1
 80 -4 80 -4 62 -4 c 0,2,3
 43 -4 43 -4 48 23 c 2,4,-1
 114 330 l 2,5,6
 118 357 118 357 138 357 c 0,7,8
 155 357 155 357 151 330 c 2,9,-1
 85 23 l 2,0,1
179 430 m 0,10,11
 177 420 177 420 167.5 412.5 c 128,-1,12
 158 405 158 405 148 405 c 256,13,14
 138 405 138 405 132 412.5 c 128,-1,15
 126 420 126 420 128 430 c 0,16,17
 130 439 130 439 139 447 c 128,-1,18
 148 455 148 455 158 455 c 256,19,20
 168 455 168 455 174.5 447 c 128,-1,21
 181 439 181 439 179 430 c 0,10,11
EndSplineSet
EndChar
StartChar: j
Encoding: 106 106 75
Width: 125
Flags: W
Fore
71 -46 m 2,0,1
 63 -81 63 -81 51.5 -109.5 c 128,-1,2
 40 -138 40 -138 22.5 -159 c 128,-1,3
 5 -180 5 -180 -19 -191.5 c 128,-1,4
 -43 -203 -43 -203 -76 -203 c 0,5,6
 -93 -203 -93 -203 -90 -184 c 0,7,8
 -88 -176 -88 -176 -82 -171 c 128,-1,9
 -76 -166 -76 -166 -68 -166 c 0,10,11
 -26 -166 -26 -166 -3 -138 c 128,-1,12
 20 -110 20 -110 34 -46 c 2,13,-1
 114 331 l 2,14,15
 116 339 116 339 121 348 c 128,-1,16
 126 357 126 357 138 357 c 0,17,18
 149 357 149 357 151 348 c 128,-1,19
 153 339 153 339 151 331 c 2,20,-1
 71 -46 l 2,0,1
179 430 m 0,21,22
 177 420 177 420 167.5 412.5 c 128,-1,23
 158 405 158 405 148 405 c 256,24,25
 138 405 138 405 132 412.5 c 128,-1,26
 126 420 126 420 128 430 c 0,27,28
 130 439 130 439 139 447 c 128,-1,29
 148 455 148 455 158 455 c 256,30,31
 168 455 168 455 174.5 447 c 128,-1,32
 181 439 181 439 179 430 c 0,21,22
EndSplineSet
EndChar
StartChar: k
Encoding: 107 107 76
Width: 393
Flags: W
Fore
448 343 m 0,0,1
 454 332 454 332 439 319 c 1,2,3
 425.5 312 l 130,-1,4
 412 305 412 305 389 294.5 c 128,-1,5
 366 284 366 284 337 270.5 c 128,-1,6
 308 257 308 257 278 243 c 1,7,8
 318 212 318 212 346.5 154.5 c 128,-1,9
 375 97 375 97 374 21 c 0,10,11
 374 13 374 13 368 7 c 128,-1,12
 362 1 362 1 354 -1 c 256,13,14
 346 -3 346 -3 340.5 1.5 c 128,-1,15
 335 6 335 6 335 14 c 0,16,17
 337 87 337 87 308 141.5 c 128,-1,18
 279 196 279 196 236 224 c 1,19,20
 198 206 l 0,21,22
 181 198 181 198 161 189 c 128,-1,23
 121 171 l 1,24,25
 110 120 110 120 104 91.5 c 128,-1,26
 98 63 98 63 95 49 c 0,27,28
 91 32 91 32 90 28 c 1,29,-1
 90 27 l 1,30,31
 84 0 84 0 67 0 c 0,32,33
 47 0 47 0 53 27 c 2,34,-1
 164 547 l 2,35,36
 170 575 170 575 191 575 c 0,37,38
 207 575 207 575 201 547 c 2,39,-1
 130 212 l 1,40,41
 146 219 146 219 174 232 c 128,-1,42
 202 245 202 245 234.5 260.5 c 128,-1,43
 267 276 267 276 301 291.5 c 128,-1,44
 335 307 335 307 363 319.5 c 128,-1,45
 391 332 391 332 409 340.5 c 128,-1,46
 427 349 427 349 429 349 c 2,47,48
 437 353 437 353 441.5 350.5 c 128,-1,49
 446 348 446 348 448 343 c 0,0,1
EndSplineSet
EndChar
StartChar: l
Encoding: 108 108 77
Width: 125
Flags: W
Fore
86 27 m 1,0,1
 80 0 80 0 63 0 c 0,2,3
 43 0 43 0 49 27 c 2,4,-1
 160 549 l 2,5,6
 166 577 166 577 185 577 c 0,7,8
 203 577 203 577 197 549 c 2,9,-1
 86 27 l 1,10,-1
 86 27 l 1,0,1
EndSplineSet
EndChar
StartChar: m
Encoding: 109 109 78
Width: 633
Flags: W
Fore
115 343 m 2,0,1
 117 351 117 351 123.5 356.5 c 128,-1,2
 130 362 130 362 138 362 c 256,3,4
 146 362 146 362 150 356.5 c 128,-1,5
 154 351 154 351 152 343 c 2,6,-1
 142 296 l 1,7,8
 162 323 162 323 198 342.5 c 128,-1,9
 234 362 234 362 276 362 c 0,10,11
 316 362 316 362 342.5 345.5 c 128,-1,12
 369 329 369 329 380 297 c 1,13,14
 400 323 400 323 431 342.5 c 128,-1,15
 462 362 462 362 509 362 c 0,16,17
 587 362 587 362 618 318.5 c 128,-1,18
 649 275 649 275 629 182 c 2,19,-1
 595 19 l 2,20,21
 593 11 593 11 586.5 5.5 c 128,-1,22
 580 0 580 0 572 0 c 256,23,24
 564 0 564 0 559.5 5.5 c 128,-1,25
 555 11 555 11 557 19 c 2,26,-1
 591 182 l 2,27,28
 607 254 607 254 586 290 c 128,-1,29
 565 326 565 326 502 326 c 0,30,31
 482 326 482 326 462.5 318.5 c 128,-1,32
 443 311 443 311 427.5 298 c 128,-1,33
 412 285 412 285 400.5 268 c 128,-1,34
 389 251 389 251 385 232 c 2,35,-1
 340 19 l 2,36,37
 338 11 338 11 331.5 5.5 c 128,-1,38
 325 0 325 0 317 0 c 256,39,40
 309 0 309 0 304.5 5.5 c 128,-1,41
 300 11 300 11 302 19 c 2,42,-1
 347 232 l 2,43,44
 354 269 354 269 333 297.5 c 128,-1,45
 312 326 312 326 269 326 c 0,46,47
 235 326 235 326 210 314 c 128,-1,48
 185 302 185 302 167 282.5 c 128,-1,49
 149 263 149 263 137 238.5 c 128,-1,50
 125 214 125 214 119 188 c 2,51,-1
 84 19 l 2,52,53
 79 0 79 0 61 0 c 0,54,55
 53 0 53 0 49 5.5 c 128,-1,56
 45 11 45 11 47 19 c 2,57,-1
 81 183 l 1,58,-1
 115 343 l 2,0,1
EndSplineSet
EndChar
StartChar: n
Encoding: 110 110 79
Width: 450
Flags: W
Fore
408 19 m 1,0,1
 406 11 406 11 399.5 5.5 c 128,-1,2
 393 0 393 0 385 0 c 256,3,4
 377 0 377 0 373 5.5 c 128,-1,5
 369 11 369 11 371 19 c 2,6,-1
 405 182 l 2,7,8
 419 245 419 245 389 284 c 128,-1,9
 359 323 359 323 293 323 c 0,10,11
 229 323 229 323 182 284.5 c 128,-1,12
 135 246 135 246 121 179 c 2,13,-1
 87 19 l 2,14,15
 82 0 82 0 64 0 c 0,16,17
 56 0 56 0 52 5.5 c 128,-1,18
 48 11 48 11 50 19 c 2,19,-1
 118 342 l 2,20,21
 120 350 120 350 126 355.5 c 128,-1,22
 132 361 132 361 140 361 c 256,23,24
 148 361 148 361 152 355.5 c 128,-1,25
 156 350 156 350 154 342 c 2,26,-1
 143 291 l 1,27,28
 172 323 172 323 211 342.5 c 128,-1,29
 250 362 250 362 301 362 c 0,30,31
 382 362 382 362 421 314.5 c 128,-1,32
 460 267 460 267 442 182 c 2,33,-1
 408 19 l 1,34,-1
 408 19 l 1,0,1
EndSplineSet
EndChar
StartChar: o
Encoding: 111 111 80
Width: 448
Flags: W
Fore
451 180 m 0,0,1
 441 135 441 135 419 101.5 c 128,-1,2
 397 68 397 68 367 45.5 c 128,-1,3
 337 23 337 23 300 11.5 c 128,-1,4
 263 0 263 0 223 0 c 0,5,6
 184 0 184 0 152 12 c 128,-1,7
 120 24 120 24 99 47.5 c 128,-1,8
 78 71 78 71 70 104.5 c 128,-1,9
 62 138 62 138 71 180 c 0,10,11
 78 213 78 213 94.5 245 c 128,-1,12
 111 277 111 277 139 302.5 c 128,-1,13
 167 328 167 328 206.5 344 c 128,-1,14
 246 360 246 360 299 360 c 0,15,16
 342 360 342 360 374.5 347 c 128,-1,17
 407 334 407 334 427 310 c 128,-1,18
 447 286 447 286 453.5 253 c 128,-1,19
 460 220 460 220 451 180 c 0,0,1
416 180 m 0,20,21
 423 213 423 213 416.5 239.5 c 128,-1,22
 410 266 410 266 393 284.5 c 128,-1,23
 376 303 376 303 350 313 c 128,-1,24
 324 323 324 323 291 323 c 0,25,26
 259 323 259 323 229 313.5 c 128,-1,27
 199 304 199 304 174.5 286 c 128,-1,28
 150 268 150 268 131.5 241.5 c 128,-1,29
 113 215 113 215 106 180 c 0,30,31
 92 114 92 114 127.5 75.5 c 128,-1,32
 163 37 163 37 230 37 c 0,33,34
 285 37 285 37 320.5 56 c 128,-1,35
 356 75 356 75 376.5 99.5 c 128,-1,36
 397 124 397 124 405.5 147.5 c 128,-1,37
 414 171 414 171 416 180 c 0,20,21
EndSplineSet
EndChar
StartChar: p
Encoding: 112 112 81
Width: 458
Flags: W
Fore
463 180 m 256,0,1
 455 142 455 142 435.5 109.5 c 128,-1,2
 416 77 416 77 387 52.5 c 128,-1,3
 358 28 358 28 319.5 14 c 128,-1,4
 281 0 281 0 235 0 c 0,5,6
 179 0 179 0 146 17.5 c 128,-1,7
 113 35 113 35 96 63 c 1,8,-1
 40 -198 l 2,9,10
 38 -206 38 -206 31.5 -211.5 c 128,-1,11
 25 -217 25 -217 17 -217 c 256,12,13
 9 -217 9 -217 4.5 -211.5 c 128,-1,14
 0 -206 0 -206 1 -198 c 2,15,-1
 116 342 l 2,16,17
 118 350 118 350 124.5 356 c 128,-1,18
 131 362 131 362 139 362 c 256,19,20
 147 362 147 362 151.5 356 c 128,-1,21
 156 350 156 350 154 342 c 2,22,-1
 144 295 l 1,23,24
 209 360 209 360 311 360 c 0,25,26
 356 360 356 360 388.5 346 c 128,-1,27
 421 332 421 332 440 308 c 128,-1,28
 459 284 459 284 465 251 c 128,-1,29
 471 218 471 218 463 180 c 256,0,1
425 180 m 0,30,31
 427 189 427 189 428.5 212 c 128,-1,32
 430 235 430 235 420 259.5 c 128,-1,33
 410 284 410 284 383.5 302.5 c 128,-1,34
 357 321 357 321 303 321 c 0,35,36
 228 321 228 321 181 281 c 128,-1,37
 134 241 134 241 121 180 c 0,38,39
 112 141 112 141 119.5 114.5 c 128,-1,40
 127 88 127 88 146 71 c 128,-1,41
 165 54 165 54 190.5 46.5 c 128,-1,42
 216 39 216 39 243 39 c 0,43,44
 317 39 317 39 364 78.5 c 128,-1,45
 411 118 411 118 425 180 c 0,30,31
EndSplineSet
EndChar
StartChar: q
Encoding: 113 113 82
Width: 458
Flags: W
Fore
71 180 m 256,0,1
 79 218 79 218 98.5 251 c 128,-1,2
 118 284 118 284 147.5 308 c 128,-1,3
 177 332 177 332 215.5 346 c 128,-1,4
 254 360 254 360 299 360 c 0,5,6
 403 360 403 360 438 295 c 1,7,-1
 448 342 l 2,8,9
 450 350 450 350 456.5 356 c 128,-1,10
 463 362 463 362 471 362 c 256,11,12
 479 362 479 362 483.5 356 c 128,-1,13
 488 350 488 350 486 342 c 2,14,-1
 371 -198 l 2,15,16
 369 -206 369 -206 362 -211.5 c 128,-1,17
 355 -217 355 -217 347 -217 c 0,18,19
 329 -217 329 -217 332 -198 c 2,20,-1
 388 63 l 1,21,22
 359 35 359 35 319 17.5 c 128,-1,23
 279 0 279 0 223 0 c 0,24,25
 177 0 177 0 144.5 14 c 128,-1,26
 112 28 112 28 93 52.5 c 128,-1,27
 74 77 74 77 68.5 109.5 c 128,-1,28
 63 142 63 142 71 180 c 256,0,1
109 180 m 0,29,30
 95 118 95 118 126 78.5 c 128,-1,31
 157 39 157 39 231 39 c 0,32,33
 258 39 258 39 287 46.5 c 128,-1,34
 316 54 316 54 341.5 71 c 128,-1,35
 367 88 367 88 386.5 114.5 c 128,-1,36
 406 141 406 141 413 180 c 0,37,38
 426 241 426 241 395.5 281 c 128,-1,39
 365 321 365 321 291 321 c 0,40,41
 237 321 237 321 202.5 302.5 c 128,-1,42
 168 284 168 284 147.5 259.5 c 128,-1,43
 127 235 127 235 119 212 c 128,-1,44
 111 189 111 189 109 180 c 0,29,30
EndSplineSet
EndChar
StartChar: r
Encoding: 114 114 83
Width: 283
Flags: W
Fore
113 330 m 2,0,1
 119 357 119 357 137 357 c 0,2,3
 156 357 156 357 150 330 c 2,4,-1
 135 263 l 1,5,6
 145 280 145 280 163.5 297 c 128,-1,7
 182 314 182 314 204.5 327.5 c 128,-1,8
 227 341 227 341 251 349 c 128,-1,9
 275 357 275 357 298 357 c 2,10,-1
 329 357 l 2,11,12
 356 357 356 357 353 339 c 0,13,14
 348 319 348 319 321 319 c 2,15,-1
 289 319 l 2,16,17
 256 319 256 319 227 304.5 c 128,-1,18
 198 290 198 290 174.5 266.5 c 128,-1,19
 151 243 151 243 135 213 c 128,-1,20
 119 183 119 183 112 151 c 2,21,-1
 85 27 l 2,22,23
 79 0 79 0 62 0 c 0,24,25
 42 0 42 0 48 27 c 2,26,-1
 113 330 l 2,0,1
EndSplineSet
EndChar
StartChar: s
Encoding: 115 115 84
Width: 347
Flags: W
Fore
383 309 m 0,0,1
 390 294 390 294 372 284 c 0,2,3
 354 276 354 276 345 291 c 1,4,5
 338 308 338 308 317 319 c 128,-1,6
 296 330 296 330 267 332 c 256,7,8
 238 334 238 334 207.5 327.5 c 128,-1,9
 177 321 177 321 160 307 c 0,10,11
 134 284 134 284 138 257 c 128,-1,12
 142 230 142 230 178 218 c 2,13,14
 191.5 212.5 l 130,-1,15
 205 207 205 207 220.5 201 c 128,-1,16
 236 195 236 195 249 190 c 128,-1,17
 261 185 261 185 262 185 c 1,18,19
 275 180 275 180 288 173.5 c 128,-1,20
 301 167 301 167 312 158.5 c 128,-1,21
 323 150 323 150 330.5 139.5 c 128,-1,22
 338 129 338 129 340 116 c 0,23,24
 344 82 344 82 329 57 c 128,-1,25
 314 32 314 32 288 16 c 128,-1,26
 262 0 262 0 229 -6.5 c 128,-1,27
 196 -13 196 -13 163 -10 c 0,28,29
 114 -6 114 -6 82 15 c 128,-1,30
 50 36 50 36 45 73 c 0,31,32
 44 81 44 81 49.5 88 c 128,-1,33
 55 95 55 95 64 98 c 0,34,35
 74 100 74 100 81 96.5 c 128,-1,36
 88 93 88 93 89 85 c 0,37,38
 92 66 92 66 102 54.5 c 128,-1,39
 112 43 112 43 124.5 36.5 c 128,-1,40
 137 30 137 30 149.5 27.5 c 128,-1,41
 162 25 162 25 169 24 c 0,42,43
 197 21 197 21 223.5 25 c 128,-1,44
 250 29 250 29 269 40 c 128,-1,45
 288 51 288 51 297.5 67.5 c 128,-1,46
 307 84 307 84 303 105 c 0,47,48
 301 117 301 117 291 126 c 128,-1,49
 281 135 281 135 267 142.5 c 128,-1,50
 253 150 253 150 236.5 156 c 128,-1,51
 220 162 220 162 204 168 c 0,52,53
 193 172 193 172 173.5 179.5 c 128,-1,54
 154 187 154 187 146 191 c 0,55,56
 126 201 126 201 114.5 217 c 128,-1,57
 103 233 103 233 100.5 251.5 c 128,-1,58
 98 270 98 270 107 290.5 c 128,-1,59
 116 311 116 311 138 329 c 0,60,61
 164 350 164 350 201.5 360 c 128,-1,62
 239 370 239 370 278 366 c 0,63,64
 316 363 316 363 344 348 c 128,-1,65
 372 333 372 333 383 309 c 0,0,1
EndSplineSet
EndChar
StartChar: t
Encoding: 116 116 85
Width: 222
Flags: W
Fore
227 19 m 0,0,1
 222 0 222 0 196 0 c 2,2,-1
 178 0 l 2,3,4
 112 0 112 0 85 39.5 c 128,-1,5
 58 79 58 79 72 145 c 2,6,-1
 156 538 l 2,7,8
 162 565 162 565 181 565 c 0,9,10
 199 565 199 565 193 538 c 2,11,-1
 153 350 l 1,12,-1
 223 350 l 2,13,14
 248 350 248 350 245 330 c 0,15,16
 240 312 240 312 215 312 c 2,17,-1
 145 312 l 1,18,-1
 109 145 l 2,19,20
 98 94 98 94 116 66 c 128,-1,21
 134 38 134 38 186 38 c 2,22,-1
 204 38 l 2,23,24
 230 38 230 38 227 19 c 0,0,1
EndSplineSet
EndChar
StartChar: u
Encoding: 117 117 86
Width: 447
Flags: W
Fore
404 15 m 1,0,1
 399 -4 399 -4 382 -4 c 0,2,3
 374 -4 374 -4 370 1.5 c 128,-1,4
 366 7 366 7 368 15 c 2,5,-1
 378 63 l 1,6,7
 349 31 349 31 310 13 c 128,-1,8
 271 -5 271 -5 220 -5 c 0,9,10
 134 -5 134 -5 98 44 c 0,11,12
 87 59 87 59 81.5 76 c 128,-1,13
 76 93 76 93 74.5 110 c 128,-1,14
 73 127 73 127 75 144 c 128,-1,15
 77 161 77 161 80 175 c 2,16,-1
 114 338 l 2,17,18
 116 346 116 346 122.5 351.5 c 128,-1,19
 129 357 129 357 137 357 c 256,20,21
 145 357 145 357 149.5 351.5 c 128,-1,22
 154 346 154 346 152 338 c 2,23,-1
 118 175 l 2,24,25
 113 152 113 152 113.5 122.5 c 128,-1,26
 114 93 114 93 131 71 c 0,27,28
 156 34 156 34 229 34 c 256,29,30
 302 34 302 34 345 71 c 0,31,32
 386 106 386 106 401 175 c 2,33,-1
 435 338 l 2,34,35
 440 357 440 357 458 357 c 0,36,37
 466 357 466 357 470 351.5 c 128,-1,38
 474 346 474 346 472 338 c 2,39,-1
 404 15 l 1,40,-1
 404 15 l 1,0,1
EndSplineSet
EndChar
StartChar: v
Encoding: 118 118 87
Width: 382
Flags: W
Fore
304 70 m 2,0,1
 287 42 287 42 260.5 19 c 128,-1,2
 234 -4 234 -4 190 -4 c 0,3,4
 168 -4 168 -4 153.5 2.5 c 128,-1,5
 139 9 139 9 129.5 19.5 c 128,-1,6
 120 30 120 30 114.5 43.5 c 128,-1,7
 109 57 109 57 106 72 c 2,8,-1
 72 332 l 2,9,10
 71 340 71 340 76 347 c 128,-1,11
 81 354 81 354 88 357 c 1,12,13
 96 359 96 359 102.5 356 c 128,-1,14
 109 353 109 353 110 345 c 2,15,-1
 143 87 l 2,16,17
 149 61 149 61 159.5 45 c 128,-1,18
 170 29 170 29 197 29 c 256,19,20
 224 29 224 29 241 45 c 128,-1,21
 258 61 258 61 274 85 c 2,22,-1
 418 345 l 2,23,24
 422 353 422 353 429.5 356 c 128,-1,25
 437 359 437 359 443 357 c 0,26,27
 451 354 451 354 452.5 347 c 128,-1,28
 454 340 454 340 450 332 c 2,29,-1
 304 70 l 2,0,1
EndSplineSet
EndChar
StartChar: w
Encoding: 119 119 88
Width: 598
Flags: W
Fore
611 175 m 1,0,1
 591 82 591 82 541.5 38.5 c 128,-1,2
 492 -5 492 -5 414 -5 c 0,3,4
 367 -5 367 -5 344 14.5 c 128,-1,5
 321 34 321 34 312 60 c 1,6,7
 288 28 288 28 254.5 11.5 c 128,-1,8
 221 -5 221 -5 181 -5 c 0,9,10
 137 -5 137 -5 110 9 c 128,-1,11
 83 23 83 23 70 47.5 c 128,-1,12
 57 72 57 72 55.5 104 c 128,-1,13
 54 136 54 136 62 172 c 2,14,-1
 97 338 l 2,15,16
 99 346 99 346 105.5 351.5 c 128,-1,17
 112 357 112 357 120 357 c 256,18,19
 128 357 128 357 132 351.5 c 128,-1,20
 136 346 136 346 134 338 c 2,21,-1
 99 172 l 2,22,23
 93 145 93 145 93 119.5 c 128,-1,24
 93 94 93 94 102.5 74.5 c 128,-1,25
 112 55 112 55 132.5 43 c 128,-1,26
 153 31 153 31 189 31 c 0,27,28
 210 31 210 31 230 39 c 128,-1,29
 250 47 250 47 265.5 60 c 128,-1,30
 281 73 281 73 292 90 c 128,-1,31
 303 107 303 107 307 125 c 2,32,-1
 352 338 l 2,33,34
 354 346 354 346 360.5 351.5 c 128,-1,35
 367 357 367 357 375 357 c 256,36,37
 383 357 383 357 387.5 351.5 c 128,-1,38
 392 346 392 346 390 338 c 2,39,-1
 345 125 l 2,40,41
 341 106 341 106 345 89 c 128,-1,42
 349 72 349 72 359.5 59 c 128,-1,43
 370 46 370 46 386 38.5 c 128,-1,44
 402 31 402 31 422 31 c 0,45,46
 485 31 485 31 521 67 c 128,-1,47
 557 103 557 103 573 175 c 2,48,-1
 607 338 l 2,49,50
 609 346 609 346 615.5 351.5 c 128,-1,51
 622 357 622 357 630 357 c 256,52,53
 638 357 638 357 642.5 351.5 c 128,-1,54
 647 346 647 346 645 338 c 2,55,-1
 611 175 l 1,56,-1
 611 175 l 1,0,1
EndSplineSet
EndChar
StartChar: x
Encoding: 120 120 89
Width: 383
Flags: W
Fore
372 30 m 1,0,1
 375 23 375 23 372 14.5 c 128,-1,2
 369 6 369 6 362 1 c 0,3,4
 343 -9 343 -9 336 6 c 0,5,6
 315 50 315 50 303.5 73.5 c 128,-1,7
 292 97 292 97 287 108 c 2,8,-1
 280 122 l 2,9,10
 271 139 271 139 256.5 150.5 c 128,-1,11
 242 162 242 162 225 162 c 256,12,13
 208 162 208 162 188.5 151 c 128,-1,14
 169 140 169 140 154 123 c 2,15,-1
 48 6 l 2,16,17
 41 -1 41 -1 33 -2.5 c 128,-1,18
 25 -4 25 -4 20 1 c 256,19,20
 15 6 15 6 15.5 14.5 c 128,-1,21
 16 23 16 23 22 30 c 0,22,23
 62 74 62 74 83 98 c 128,-1,24
 104 122 104 122 115 133 c 0,25,26
 126 146 126 146 129 148 c 0,27,28
 137 156 137 156 148.5 164.5 c 128,-1,29
 160 173 160 173 172 181 c 1,30,31
 163 188 163 188 155 196 c 128,-1,32
 147 204 147 204 142 212 c 2,33,-1
 85 326 l 2,34,35
 82 333 82 333 84.5 341.5 c 128,-1,36
 87 350 87 350 95 355 c 0,37,38
 102 360 102 360 109.5 359 c 128,-1,39
 117 358 117 358 121 351 c 0,40,41
 142 308 142 308 153.5 285.5 c 128,-1,42
 165 263 165 263 170 252 c 2,43,-1
 177 238 l 2,44,45
 186 221 186 221 201 210.5 c 128,-1,46
 216 200 216 200 233 200 c 256,47,48
 250 200 250 200 269 210 c 128,-1,49
 288 220 288 220 304 237 c 2,50,-1
 409 351 l 2,51,52
 416 358 416 358 424 359 c 128,-1,53
 432 360 432 360 437 355 c 256,54,55
 442 350 442 350 441.5 341.5 c 128,-1,56
 441 333 441 333 435 326 c 0,57,58
 395 283 395 283 374 260 c 128,-1,59
 353 237 353 237 343 226 c 0,60,61
 332 214 332 214 329 212 c 0,62,63
 312 195 312 195 287 181 c 1,64,65
 296 173 296 173 303.5 164.5 c 128,-1,66
 311 156 311 156 316 147 c 2,67,-1
 372 30 l 1,68,-1
 372 30 l 1,0,1
EndSplineSet
EndChar
StartChar: y
Encoding: 121 121 90
Width: 419
Flags: W
Fore
384 -13 m 1,0,1
 370 -76 370 -76 329 -118.5 c 128,-1,2
 288 -161 288 -161 226 -178 c 0,3,4
 196 -186 196 -186 167 -185.5 c 128,-1,5
 138 -185 138 -185 113.5 -178.5 c 128,-1,6
 89 -172 89 -172 71.5 -159.5 c 128,-1,7
 54 -147 54 -147 47 -129 c 0,8,9
 42 -113 42 -113 59 -104 c 0,10,11
 67 -100 67 -100 74 -102 c 128,-1,12
 81 -104 81 -104 83 -110 c 0,13,14
 87 -121 87 -121 100 -130 c 128,-1,15
 113 -139 113 -139 132 -144 c 128,-1,16
 151 -149 151 -149 174.5 -149 c 128,-1,17
 198 -149 198 -149 223 -142 c 0,18,19
 237 -139 237 -139 255.5 -131 c 128,-1,20
 274 -123 274 -123 292 -108 c 128,-1,21
 310 -93 310 -93 325 -70 c 128,-1,22
 340 -47 340 -47 347 -13 c 2,23,-1
 364 66 l 1,24,25
 335 34 335 34 296.5 16 c 128,-1,26
 258 -2 258 -2 207 -2 c 0,27,28
 117 -2 117 -2 83 47 c 128,-1,29
 49 96 49 96 66 178 c 2,30,-1
 101 341 l 2,31,32
 103 349 103 349 109.5 354.5 c 128,-1,33
 116 360 116 360 124 360 c 0,34,35
 141 360 141 360 138 341 c 2,36,-1
 103 178 l 2,37,38
 87 103 87 103 118 68.5 c 128,-1,39
 149 34 149 34 215 34 c 0,40,41
 285 34 285 34 327 71.5 c 128,-1,42
 369 109 369 109 383 178 c 2,43,-1
 416 334 l 2,44,45
 418 342 418 342 423.5 351.5 c 128,-1,46
 429 361 429 361 443 361 c 256,47,48
 457 361 457 361 458 351.5 c 128,-1,49
 459 342 459 342 457 334 c 2,50,-1
 384 -13 l 1,51,-1
 384 -13 l 1,0,1
EndSplineSet
EndChar
StartChar: z
Encoding: 122 122 91
Width: 393
Flags: W
Fore
113 125 m 0,0,1
 173 160 173 160 221 188 c 0,2,3
 242 200 242 200 262 212 c 128,-1,4
 282 224 282 224 298 233.5 c 128,-1,5
 314 243 314 243 324.5 249.5 c 128,-1,6
 335 256 335 256 337 258 c 0,7,8
 352 269 352 269 360 275.5 c 128,-1,9
 368 282 368 282 371 294 c 0,10,11
 379 320 379 320 333 320 c 2,12,-1
 141 320 l 2,13,14
 114 320 114 320 117 338 c 0,15,16
 121 357 121 357 148 357 c 2,17,-1
 340 357 l 2,18,19
 375 357 375 357 395.5 341.5 c 128,-1,20
 416 326 416 326 409 294 c 0,21,22
 404 271 404 271 390 257.5 c 128,-1,23
 376 244 376 244 354 230 c 2,24,25
 338 220.5 l 130,-1,26
 322 211 322 211 297 196.5 c 128,-1,27
 272 182 272 182 243 165 c 128,-1,28
 214 148 214 148 189.5 133.5 c 128,-1,29
 165 119 165 119 148 109.5 c 128,-1,30
 132 100 132 100 131 100 c 1,31,32
 100 81 100 81 95 61 c 0,33,34
 91 37 91 37 135 37 c 2,35,-1
 327 37 l 2,36,37
 354 37 354 37 351 19 c 0,38,39
 347 0 347 0 320 0 c 2,40,-1
 128 0 l 2,41,42
 93 0 93 0 72 14.5 c 128,-1,43
 51 29 51 29 58 61 c 0,44,45
 63 84 63 84 76.5 97.5 c 128,-1,46
 90 111 90 111 113 125 c 0,0,1
EndSplineSet
EndChar
StartChar: braceleft
Encoding: 123 123 92
Width: 227
Flags: W
Fore
170 -113 m 0,0,1
 147 -140 147 -140 106 -82 c 0,2,3
 91 -61 91 -61 90.5 -34.5 c 128,-1,4
 90 -8 90 -8 96 20 c 2,5,-1
 110 85 l 2,6,7
 117 119 117 119 110.5 138 c 128,-1,8
 104 157 104 157 94 167.5 c 128,-1,9
 84 178 84 178 75 183.5 c 128,-1,10
 66 189 66 189 69 197 c 0,11,12
 72 204 72 204 83.5 209.5 c 128,-1,13
 95 215 95 215 109 225.5 c 128,-1,14
 123 236 123 236 136.5 255 c 128,-1,15
 150 274 150 274 157 308 c 2,16,-1
 171 374 l 2,17,18
 177 401 177 401 189 427.5 c 128,-1,19
 201 454 201 454 224 475 c 0,20,21
 291 533 291 533 302 506 c 0,22,23
 306 497 306 497 302.5 491.5 c 128,-1,24
 299 486 299 486 290.5 480.5 c 128,-1,25
 282 475 282 475 270 468 c 128,-1,26
 258 461 258 461 246 448 c 0,27,28
 230 432 230 432 221.5 413 c 128,-1,29
 213 394 213 394 208 374 c 2,30,-1
 194 308 l 2,31,32
 184 263 184 263 165.5 237.5 c 128,-1,33
 147 212 147 212 114 197 c 1,34,35
 140 181 140 181 148 155.5 c 128,-1,36
 156 130 156 130 147 85 c 2,37,-1
 133 20 l 2,38,39
 128 0 128 0 129 -19.5 c 128,-1,40
 130 -39 130 -39 139 -55 c 0,41,42
 146 -68 146 -68 155 -75 c 128,-1,43
 164 -82 164 -82 170 -87 c 128,-1,44
 176 -92 176 -92 177.5 -97.5 c 128,-1,45
 179 -103 179 -103 170 -113 c 0,0,1
EndSplineSet
EndChar
StartChar: bar
Encoding: 124 124 93
Width: 157
Flags: W
Fore
74 -110 m 1,0,1
 68 -137 68 -137 50 -137 c 0,2,3
 31 -137 31 -137 37 -110 c 2,4,-1
 169 510 l 2,5,6
 175 537 175 537 194 537 c 0,7,8
 212 537 212 537 206 510 c 2,9,-1
 74 -110 l 1,10,-1
 74 -110 l 1,0,1
EndSplineSet
EndChar
StartChar: braceright
Encoding: 125 125 94
Width: 227
Flags: W
Fore
247 197 m 1,0,1
 247 189 247 189 236 183.5 c 128,-1,2
 225 178 225 178 210.5 167.5 c 128,-1,3
 196 157 196 157 181.5 138 c 128,-1,4
 167 119 167 119 160 85 c 2,5,-1
 146 20 l 2,6,7
 140 -8 140 -8 128 -34.5 c 128,-1,8
 116 -61 116 -61 92 -82 c 0,9,10
 27 -140 27 -140 14 -113 c 0,11,12
 10 -104 10 -104 13.5 -98.5 c 128,-1,13
 17 -93 17 -93 26 -87.5 c 128,-1,14
 35 -82 35 -82 47 -75 c 128,-1,15
 59 -68 59 -68 71 -55 c 0,16,17
 86 -39 86 -39 95 -19.5 c 128,-1,18
 104 0 104 0 109 20 c 2,19,-1
 123 85 l 2,20,21
 132 130 132 130 151 155.5 c 128,-1,22
 170 181 170 181 202 197 c 1,23,24
 176 212 176 212 168 237.5 c 128,-1,25
 160 263 160 263 170 308 c 2,26,-1
 184 374 l 2,27,28
 189 394 189 394 187.5 413 c 128,-1,29
 186 432 186 432 178 448 c 0,30,31
 171 461 171 461 162 468 c 128,-1,32
 153 475 153 475 146.5 480.5 c 128,-1,33
 140 486 140 486 139 491.5 c 128,-1,34
 138 497 138 497 146 506 c 0,35,36
 170 533 170 533 210 475 c 0,37,38
 226 454 226 454 226.5 427.5 c 128,-1,39
 227 401 227 401 221 374 c 2,40,-1
 207 308 l 2,41,42
 200 274 200 274 205.5 255 c 128,-1,43
 211 236 211 236 220.5 225.5 c 128,-1,44
 230 215 230 215 239 209.5 c 128,-1,45
 248 204 248 204 247 197 c 1,0,1
EndSplineSet
EndChar
StartChar: asciitilde
Encoding: 126 126 95
Width: 390
Flags: W
Fore
405 228 m 0,0,1
 403 210 403 210 395.5 192.5 c 128,-1,2
 388 175 388 175 375.5 160.5 c 128,-1,3
 363 146 363 146 345.5 137 c 128,-1,4
 328 128 328 128 304 128 c 0,5,6
 290 128 290 128 275 134.5 c 128,-1,7
 260 141 260 141 245 151 c 2,8,-1
 177 192 l 2,9,10
 163 201 163 201 151.5 201 c 128,-1,11
 140 201 140 201 131 193.5 c 128,-1,12
 122 186 122 186 115.5 171.5 c 128,-1,13
 109 157 109 157 105 139 c 0,14,15
 104 133 104 133 101 129 c 256,16,17
 98 125 98 125 93 122 c 128,-1,18
 88 119 88 119 79 119 c 0,19,20
 63 119 63 119 61 128 c 0,21,22
 60 132 60 132 62 138 c 2,23,24
 69 178 69 178 90 207 c 128,-1,25
 111 236 111 236 149 242 c 0,26,27
 167 245 167 245 182.5 239.5 c 128,-1,28
 198 234 198 234 207 228 c 2,29,-1
 286 178 l 2,30,31
 298 169 298 169 310.5 169 c 128,-1,32
 323 169 323 169 333.5 176.5 c 128,-1,33
 344 184 344 184 350.5 197 c 128,-1,34
 357 210 357 210 359 227 c 0,35,36
 360 233 360 233 364 238 c 0,37,38
 367 243 367 243 372 246.5 c 128,-1,39
 377 250 377 250 386 250 c 0,40,41
 394 250 394 250 398 246.5 c 128,-1,42
 402 243 402 243 404 239 c 0,43,44
 406 234 406 234 405 228 c 0,0,1
EndSplineSet
EndChar
StartChar: uni0E33.alt1
Encoding: 65539 -1 96
Width: 387
Flags: W
Fore
341 17 m 2,0,1
 339 9 339 9 332.5 3 c 128,-1,2
 326 -3 326 -3 318 -3 c 256,3,4
 310 -3 310 -3 305 3 c 128,-1,5
 300 9 300 9 302 17 c 2,6,-1
 357 276 l 2,7,8
 367 321 367 321 341.5 346 c 128,-1,9
 316 371 316 371 263 371 c 0,10,11
 219 371 219 371 183.5 351.5 c 128,-1,12
 148 332 148 332 134 310 c 0,13,14
 129 302 129 302 121.5 298.5 c 128,-1,15
 114 295 114 295 107 298 c 1,16,17
 99 300 99 300 97.5 307.5 c 128,-1,18
 96 315 96 315 100 323 c 0,19,20
 111 341 111 341 129.5 357 c 128,-1,21
 148 373 148 373 171 385 c 128,-1,22
 194 397 194 397 220 403.5 c 128,-1,23
 246 410 246 410 272 410 c 256,24,25
 298 410 298 410 323.5 401 c 128,-1,26
 349 392 349 392 367 374.5 c 128,-1,27
 385 357 385 357 394 332 c 128,-1,28
 403 307 403 307 396 276 c 2,29,-1
 341 17 l 2,0,1
14 527 m 0,30,31
 7 495 7 495 -20.5 475.5 c 128,-1,32
 -48 456 -48 456 -83 456 c 0,33,34
 -97 456 -97 456 -110.5 460.5 c 128,-1,35
 -124 465 -124 465 -134 473.5 c 128,-1,36
 -144 482 -144 482 -148.5 495.5 c 128,-1,37
 -153 509 -153 509 -149 527 c 0,38,39
 -143 557 -143 557 -114.5 578 c 128,-1,40
 -86 599 -86 599 -52 599 c 0,41,42
 -14 599 -14 599 3 577.5 c 128,-1,43
 20 556 20 556 14 527 c 0,30,31
-20 527 m 0,44,45
 -18 539 -18 539 -27 551.5 c 128,-1,46
 -36 564 -36 564 -60 564 c 0,47,48
 -81 564 -81 564 -96.5 552 c 128,-1,49
 -112 540 -112 540 -114 527 c 0,50,51
 -117 515 -117 515 -112 508 c 128,-1,52
 -107 501 -107 501 -100 497.5 c 128,-1,53
 -93 494 -93 494 -85.5 492.5 c 128,-1,54
 -78 491 -78 491 -75 491 c 0,55,56
 -55 491 -55 491 -39.5 501.5 c 128,-1,57
 -24 512 -24 512 -20 527 c 0,44,45
EndSplineSet
EndChar
StartChar: quotedbl
Encoding: 34 34 97
Width: 200
Flags: W
Fore
154 348 m 2,0,1
 152 335 152 335 147 328.5 c 128,-1,2
 142 322 142 322 130 321 c 0,3,4
 108 321 108 321 114 348 c 2,5,-1
 139 463 l 2,6,7
 143 489 143 489 164 489 c 0,8,9
 183 489 183 489 178 463 c 2,10,-1
 154 348 l 2,0,1
232 349 m 2,11,12
 230 336 230 336 224.5 329.5 c 128,-1,13
 219 323 219 323 207 322 c 0,14,15
 186 322 186 322 192 349 c 2,16,-1
 216 464 l 2,17,18
 220 490 220 490 242 490 c 0,19,20
 260 490 260 490 255 464 c 2,21,-1
 232 349 l 2,11,12
EndSplineSet
EndChar
StartChar: exclam
Encoding: 33 33 98
Width: 185
Flags: W
Fore
142 140 m 2,0,1
 135 114 135 114 118 114 c 0,2,3
 98 114 98 114 104 140 c 2,4,-1
 170 477 l 2,5,6
 172 491 172 491 182 497.5 c 128,-1,7
 192 504 192 504 201 504 c 256,8,9
 210 504 210 504 217 497.5 c 128,-1,10
 224 491 224 491 220 477 c 2,11,-1
 142 140 l 2,0,1
130 29 m 0,12,13
 128 18 128 18 117 9 c 128,-1,14
 106 0 106 0 94 0 c 256,15,16
 82 0 82 0 75 8 c 128,-1,17
 68 16 68 16 70 28 c 0,18,19
 73 41 73 41 82.5 49.5 c 128,-1,20
 92 58 92 58 105 58 c 256,21,22
 118 58 118 58 125 50 c 128,-1,23
 132 42 132 42 130 29 c 0,12,13
EndSplineSet
EndChar
StartChar: uni0E4E.alt1
Encoding: 65540 -1 99
Width: 0
Flags: W
Fore
69 678 m 0,0,1
 70 678 70 678 74.5 677.5 c 128,-1,2
 79 677 79 677 83 675.5 c 128,-1,3
 87 674 87 674 88 671 c 128,-1,4
 89 668 89 668 85 664 c 1,5,6
 45 663 45 663 19 647 c 128,-1,7
 -7 631 -7 631 -11 607 c 128,-1,8
 -15 583 -15 583 9 576 c 1,9,10
 13 576 13 576 16 572.5 c 128,-1,11
 19 569 19 569 17 563 c 0,12,13
 14 553 14 553 0 551 c 0,14,15
 -76 548 -76 548 -88 504 c 0,16,17
 -92 474 -92 474 -45 474 c 0,18,19
 -30 474 -30 474 -21 475 c 1,20,-1
 -33 452 l 1,21,22
 -57 449 -57 449 -74 449 c 0,23,24
 -137 452 -137 452 -131 502 c 1,25,26
 -114 562 -114 562 -32 570 c 1,27,28
 -56 589 -56 589 -46.5 620 c 128,-1,29
 -37 651 -37 651 -5 667 c 128,-1,30
 27 683 27 683 69 678 c 0,0,1
EndSplineSet
EndChar
StartChar: exclamdown
Encoding: 161 161 100
Width: 185
Flags: W
Fore
95 -119 m 2,0,1
 93 -133 93 -133 83 -139.5 c 128,-1,2
 73 -146 73 -146 64 -146 c 256,3,4
 55 -146 55 -146 48 -139.5 c 128,-1,5
 41 -133 41 -133 45 -119 c 2,6,-1
 123 218 l 2,7,8
 129 244 129 244 147 244 c 256,9,10
 165 244 165 244 161 218 c 2,11,-1
 95 -119 l 2,0,1
195 329 m 0,12,13
 193 316 193 316 182 308 c 128,-1,14
 171 300 171 300 158 300 c 256,15,16
 145 300 145 300 139.5 308.5 c 128,-1,17
 134 317 134 317 137 330 c 0,18,19
 139 342 139 342 149.5 350 c 128,-1,20
 160 358 160 358 172 358 c 256,21,22
 184 358 184 358 190.5 349 c 128,-1,23
 197 340 197 340 195 329 c 0,12,13
EndSplineSet
EndChar
StartChar: cent
Encoding: 162 162 101
Width: 433
Flags: W
Fore
384 141 m 1,0,1
 392 146 392 146 400 146.5 c 128,-1,2
 408 147 408 147 413 142 c 0,3,4
 417 137 417 137 415.5 128.5 c 128,-1,5
 414 120 414 120 408 113 c 0,6,7
 391 96 391 96 366.5 84 c 128,-1,8
 342 72 342 72 314.5 65.5 c 128,-1,9
 287 59 287 59 258.5 58 c 128,-1,10
 230 57 230 57 205 62 c 1,11,-1
 170 -6 l 2,12,13
 166 -13 166 -13 159.5 -16.5 c 128,-1,14
 153 -20 153 -20 147 -18 c 0,15,16
 140 -16 140 -16 138 -10 c 128,-1,17
 136 -4 136 -4 140 3 c 2,18,-1
 173 70 l 1,19,20
 155 76 155 76 140 85.5 c 128,-1,21
 125 95 125 95 115 109 c 0,22,23
 102 127 102 127 96.5 145.5 c 128,-1,24
 91 164 91 164 90 181.5 c 128,-1,25
 89 199 89 199 91 213.5 c 128,-1,26
 93 228 93 228 95 237 c 0,27,28
 102 270 102 270 122 304 c 128,-1,29
 142 338 142 338 173.5 364 c 128,-1,30
 205 390 205 390 248 405 c 128,-1,31
 291 420 291 420 345 415 c 1,32,-1
 377 478 l 2,33,34
 381 485 381 485 389 488.5 c 128,-1,35
 397 492 397 492 402 490 c 256,36,37
 407 488 407 488 409 482 c 128,-1,38
 411 476 411 476 408 469 c 2,39,-1
 379 411 l 1,40,41
 406 405 406 405 427 393 c 128,-1,42
 448 381 448 381 461 361 c 0,43,44
 466 355 466 355 465 345.5 c 128,-1,45
 464 336 464 336 457 331 c 0,46,47
 449 325 449 325 440 327 c 128,-1,48
 431 329 431 329 427 336 c 0,49,50
 407 365 407 365 360 374 c 1,51,-1
 221 97 l 1,52,53
 242 93 242 93 265.5 94.5 c 128,-1,54
 289 96 289 96 311.5 101.5 c 128,-1,55
 334 107 334 107 353 117 c 128,-1,56
 372 127 372 127 384 141 c 1,0,1
147 137 m 0,57,58
 155 126 155 126 166 118.5 c 128,-1,59
 177 111 177 111 191 106 c 1,60,-1
 327 379 l 1,61,62
 288 384 288 384 254.5 372 c 128,-1,63
 221 360 221 360 195.5 339 c 128,-1,64
 170 318 170 318 154 290.5 c 128,-1,65
 138 263 138 263 132 237 c 0,66,67
 131 232 131 232 129.5 220.5 c 128,-1,68
 128 209 128 209 128.5 195 c 128,-1,69
 129 181 129 181 133 165.5 c 128,-1,70
 137 150 137 150 147 137 c 0,57,58
EndSplineSet
EndChar
StartChar: sterling
Encoding: 163 163 102
Width: 400
Flags: W
Fore
380 30 m 1,0,1
 351 6 351 6 324.5 -1.5 c 128,-1,2
 298 -9 298 -9 275.5 -6.5 c 128,-1,3
 253 -4 253 -4 235 3 c 128,-1,4
 217 10 217 10 205 15 c 0,5,6
 182 24 182 24 163.5 24 c 128,-1,7
 145 24 145 24 129.5 20 c 128,-1,8
 114 16 114 16 102 9.5 c 128,-1,9
 90 3 90 3 81 -1 c 1,10,-1
 58 44 l 1,11,12
 79 58 79 58 98.5 73.5 c 128,-1,13
 118 89 118 89 135 109 c 0,14,15
 154 131 154 131 162 149.5 c 128,-1,16
 170 168 170 168 171.5 182.5 c 128,-1,17
 173 197 173 197 170.5 208 c 128,-1,18
 168 219 168 219 166 226 c 1,19,-1
 103 226 l 1,20,-1
 98 259 l 1,21,-1
 156 259 l 1,22,23
 147 273 147 273 140 299.5 c 128,-1,24
 133 326 133 326 139 354 c 0,25,26
 144 383 144 383 162 409.5 c 128,-1,27
 180 436 180 436 206 455.5 c 128,-1,28
 232 475 232 475 265 485.5 c 128,-1,29
 298 496 298 496 333 492 c 0,30,31
 378 487 378 487 399.5 466.5 c 128,-1,32
 421 446 421 446 428.5 421.5 c 128,-1,33
 436 397 436 397 434 374 c 128,-1,34
 432 351 432 351 430 341 c 1,35,-1
 396 341 l 1,36,37
 400 362 400 362 398 381.5 c 128,-1,38
 396 401 396 401 387 417 c 128,-1,39
 378 433 378 433 361 443.5 c 128,-1,40
 344 454 344 454 318 457 c 0,41,42
 298 459 298 459 273 452.5 c 128,-1,43
 248 446 248 446 225.5 430.5 c 128,-1,44
 203 415 203 415 188 390.5 c 128,-1,45
 173 366 173 366 173 331 c 0,46,47
 173 320 173 320 178.5 299.5 c 128,-1,48
 184 279 184 279 197 259 c 1,49,-1
 317 259 l 1,50,-1
 322 226 l 1,51,-1
 204 226 l 1,52,53
 204 218 204 218 205.5 210.5 c 128,-1,54
 207 203 207 203 207.5 193 c 128,-1,55
 208 183 208 183 205.5 171 c 128,-1,56
 203 159 203 159 195 142 c 0,57,58
 175 104 175 104 150.5 81 c 128,-1,59
 126 58 126 58 109 44 c 1,60,61
 128 53 128 53 143.5 56 c 128,-1,62
 159 59 159 59 174.5 57.5 c 128,-1,63
 190 56 190 56 207.5 51 c 128,-1,64
 225 46 225 46 248 39 c 0,65,66
 269 31 269 31 283.5 28.5 c 128,-1,67
 298 26 298 26 310 27.5 c 128,-1,68
 322 29 322 29 334 35.5 c 128,-1,69
 346 42 346 42 363 53 c 1,70,-1
 380 30 l 1,0,1
EndSplineSet
EndChar
StartChar: currency
Encoding: 164 164 103
Width: 486
Flags: W
Fore
462 229 m 0,0,1
 455 195 455 195 440 169 c 128,-1,2
 425 143 425 143 406 123 c 1,3,-1
 421 103 l 2,4,5
 438 83 438 83 421 68 c 0,6,7
 403 53 403 53 387 75 c 2,8,-1
 371 95 l 1,9,10
 343 77 343 77 312.5 68 c 128,-1,11
 282 59 282 59 255 59 c 0,12,13
 192 59 192 59 155 93 c 1,14,-1
 133 75 l 2,15,16
 107 52 107 52 95 68 c 0,17,18
 85 83 85 83 108 103 c 2,19,-1
 131 122 l 1,20,21
 109 166 109 166 121 225 c 0,22,23
 129 258 129 258 144.5 285.5 c 128,-1,24
 160 313 160 313 181 334 c 1,25,-1
 163 359 l 2,26,27
 147 378 147 378 164 395 c 1,28,29
 182 408 182 408 200 389 c 2,30,-1
 220 363 l 1,31,32
 245 379 245 379 272.5 387.5 c 128,-1,33
 300 396 300 396 327 396 c 0,34,35
 359 396 359 396 383.5 387.5 c 128,-1,36
 408 379 408 379 425 364 c 1,37,-1
 455 389 l 2,38,39
 479 409 479 409 490 395 c 0,40,41
 502 378 502 378 477 359 c 2,42,-1
 449 336 l 1,43,44
 462 314 462 314 465.5 286.5 c 128,-1,45
 469 259 469 259 462 229 c 0,0,1
160 226 m 0,46,47
 154 198 154 198 159 174 c 128,-1,48
 164 150 164 150 178 132 c 128,-1,49
 192 114 192 114 213.5 104 c 128,-1,50
 235 94 235 94 263 94 c 0,51,52
 290 94 290 94 316.5 104 c 128,-1,53
 343 114 343 114 365 132 c 128,-1,54
 387 150 387 150 403 174 c 128,-1,55
 419 198 419 198 425 226 c 0,56,57
 431 253 431 253 425.5 277.5 c 128,-1,58
 420 302 420 302 405.5 320 c 128,-1,59
 391 338 391 338 369 348.5 c 128,-1,60
 347 359 347 359 320 359 c 0,61,62
 292 359 292 359 266 348.5 c 128,-1,63
 240 338 240 338 218 320 c 128,-1,64
 196 302 196 302 181 277.5 c 128,-1,65
 166 253 166 253 160 226 c 0,46,47
EndSplineSet
EndChar
StartChar: yen
Encoding: 165 165 104
Width: 400
Flags: W
Fore
466 486 m 0,0,1
 474 481 474 481 474.5 473 c 128,-1,2
 475 465 475 465 468 457 c 2,3,-1
 312 271 l 1,4,-1
 387 271 l 2,5,6
 395 271 395 271 400 265.5 c 128,-1,7
 405 260 405 260 403 252 c 256,8,9
 401 244 401 244 394 238.5 c 128,-1,10
 387 233 387 233 379 233 c 2,11,-1
 279 233 l 1,12,-1
 271 223 l 1,13,-1
 260 173 l 1,14,-1
 366 173 l 2,15,16
 374 173 374 173 379 167.5 c 128,-1,17
 384 162 384 162 382 154 c 256,18,19
 380 146 380 146 373 141 c 128,-1,20
 366 136 366 136 358 136 c 2,21,-1
 252 136 l 1,22,-1
 228 19 l 2,23,24
 226 9 226 9 218 2.5 c 128,-1,25
 210 -4 210 -4 201 -4 c 256,26,27
 192 -4 192 -4 187.5 2.5 c 128,-1,28
 183 9 183 9 185 19 c 2,29,-1
 209 136 l 1,30,-1
 105 136 l 2,31,32
 97 136 97 136 92 141 c 128,-1,33
 87 146 87 146 89 154 c 256,34,35
 91 162 91 162 98 167.5 c 128,-1,36
 105 173 105 173 113 173 c 2,37,-1
 217 173 l 1,38,-1
 228 223 l 1,39,-1
 224 233 l 1,40,-1
 126 233 l 2,41,42
 118 233 118 233 113 238.5 c 128,-1,43
 108 244 108 244 110 252 c 256,44,45
 112 260 112 260 119 265.5 c 128,-1,46
 126 271 126 271 134 271 c 2,47,-1
 206 271 l 1,48,-1
 132 457 l 2,49,50
 128 465 128 465 132.5 473 c 128,-1,51
 137 481 137 481 145 486 c 0,52,53
 154 491 154 491 163 489 c 128,-1,54
 172 487 172 487 175 479 c 2,55,-1
 259 271 l 1,56,-1
 260 271 l 1,57,-1
 433 479 l 2,58,59
 440 487 440 487 449.5 489 c 128,-1,60
 459 491 459 491 466 486 c 0,0,1
EndSplineSet
EndChar
StartChar: brokenbar
Encoding: 166 166 105
Width: 158
Flags: W
Fore
188 516 m 0,0,1
 205 516 205 516 201 490 c 2,2,-1
 151 256 l 2,3,4
 145 229 145 229 127 229 c 256,5,6
 109 229 109 229 115 256 c 2,7,-1
 165 490 l 2,8,9
 169 516 169 516 188 516 c 0,0,1
108 138 m 256,10,11
 126 138 126 138 120 111 c 2,12,-1
 71 -122 l 2,13,14
 65 -149 65 -149 47 -149 c 256,15,16
 29 -149 29 -149 35 -122 c 2,17,-1
 84 111 l 2,18,19
 90 138 90 138 108 138 c 256,10,11
EndSplineSet
EndChar
StartChar: section
Encoding: 167 167 106
Width: 385
Flags: W
Fore
123 64 m 0,0,1
 113 19 113 19 135.5 -2.5 c 128,-1,2
 158 -24 158 -24 202 -19 c 0,3,4
 224 -17 224 -17 243 -3 c 128,-1,5
 262 11 262 11 271.5 30 c 128,-1,6
 281 49 281 49 278.5 69 c 128,-1,7
 276 89 276 89 255 103 c 2,8,-1
 130 185 l 2,9,10
 107 199 107 199 101 223 c 128,-1,11
 95 247 95 247 103 272 c 128,-1,12
 111 297 111 297 132 319 c 128,-1,13
 153 341 153 341 185 353 c 1,14,15
 165 372 165 372 165 398.5 c 128,-1,16
 165 425 165 425 181.5 449.5 c 128,-1,17
 198 474 198 474 229 491.5 c 128,-1,18
 260 509 260 509 301 509 c 0,19,20
 332 509 332 509 352 499 c 128,-1,21
 372 489 372 489 382.5 473.5 c 128,-1,22
 393 458 393 458 395.5 438 c 128,-1,23
 398 418 398 418 394 399 c 0,24,25
 391 380 391 380 374 380 c 0,26,27
 358 380 358 380 361 399 c 0,28,29
 363 409 363 409 362.5 422.5 c 128,-1,30
 362 436 362 436 355.5 448 c 128,-1,31
 349 460 349 460 334 468.5 c 128,-1,32
 319 477 319 477 293 478 c 0,33,34
 272 479 272 479 251 469 c 128,-1,35
 230 459 230 459 217 444 c 128,-1,36
 204 429 204 429 201.5 410 c 128,-1,37
 199 391 199 391 214 374 c 0,38,39
 221 367 221 367 244.5 350.5 c 128,-1,40
 268 334 268 334 294 317 c 128,-1,41
 320 300 320 300 341 286.5 c 128,-1,42
 362 273 362 273 364 272 c 1,43,44
 383 256 383 256 385.5 232.5 c 128,-1,45
 388 209 388 209 377.5 186 c 128,-1,46
 367 163 367 163 345.5 142.5 c 128,-1,47
 324 122 324 122 296 112 c 1,48,49
 317 92 317 92 315.5 64.5 c 128,-1,50
 314 37 314 37 298 11.5 c 128,-1,51
 282 -14 282 -14 253.5 -32.5 c 128,-1,52
 225 -51 225 -51 192 -52 c 0,53,54
 133 -55 133 -55 103.5 -23 c 128,-1,55
 74 9 74 9 85 65 c 0,56,57
 87 76 87 76 94.5 80.5 c 128,-1,58
 102 85 102 85 111 85 c 0,59,60
 128 85 128 85 123 64 c 0,0,1
199 332 m 1,61,62
 176 324 176 324 160 309.5 c 128,-1,63
 144 295 144 295 137.5 277.5 c 128,-1,64
 131 260 131 260 136 242.5 c 128,-1,65
 141 225 141 225 160 212 c 2,66,-1
 281 133 l 1,67,68
 305 141 305 141 321.5 156 c 128,-1,69
 338 171 338 171 345.5 188 c 128,-1,70
 353 205 353 205 349 222.5 c 128,-1,71
 345 240 345 240 328 252 c 2,72,-1
 199 332 l 1,61,62
EndSplineSet
EndChar
StartChar: dieresis
Encoding: 168 168 107
Width: 216
Flags: W
Fore
234 433 m 0,0,1
 236 447 236 447 246.5 456 c 128,-1,2
 257 465 257 465 271 465 c 256,3,4
 285 465 285 465 292 456 c 128,-1,5
 299 447 299 447 297 433 c 0,6,7
 294 419 294 419 283 410.5 c 128,-1,8
 272 402 272 402 258 402 c 256,9,10
 244 402 244 402 237.5 410.5 c 128,-1,11
 231 419 231 419 234 433 c 0,0,1
102 433 m 0,12,13
 104 447 104 447 114.5 456 c 128,-1,14
 125 465 125 465 139 465 c 256,15,16
 153 465 153 465 160 456 c 128,-1,17
 167 447 167 447 165 433 c 0,18,19
 162 419 162 419 151 410.5 c 128,-1,20
 140 402 140 402 126 402 c 256,21,22
 112 402 112 402 105.5 410.5 c 128,-1,23
 99 419 99 419 102 433 c 0,12,13
EndSplineSet
EndChar
StartChar: copyright
Encoding: 169 169 108
Width: 590
Flags: W
Fore
90 244 m 0,0,1
 101 296 101 296 131 342.5 c 128,-1,2
 161 389 161 389 203 423.5 c 128,-1,3
 245 458 245 458 295.5 478 c 128,-1,4
 346 498 346 498 399 498 c 0,5,6
 451 498 451 498 493.5 478 c 128,-1,7
 536 458 536 458 563.5 423.5 c 128,-1,8
 591 389 591 389 601 342.5 c 128,-1,9
 611 296 611 296 600 244 c 0,10,11
 589 191 589 191 559 145 c 128,-1,12
 529 99 529 99 487 64.5 c 128,-1,13
 445 30 445 30 394 10 c 128,-1,14
 343 -10 343 -10 291 -10 c 0,15,16
 238 -10 238 -10 196 10 c 128,-1,17
 154 30 154 30 126.5 64.5 c 128,-1,18
 99 99 99 99 89 145 c 128,-1,19
 79 191 79 191 90 244 c 0,0,1
298 21 m 0,20,21
 344 21 344 21 388.5 38.5 c 128,-1,22
 433 56 433 56 470 86.5 c 128,-1,23
 507 117 507 117 533 157.5 c 128,-1,24
 559 198 559 198 569 244 c 256,25,26
 579 290 579 290 570 331 c 128,-1,27
 561 372 561 372 537 403 c 128,-1,28
 513 434 513 434 476 451.5 c 128,-1,29
 439 469 439 469 393 469 c 0,30,31
 346 469 346 469 301.5 451.5 c 128,-1,32
 257 434 257 434 220 403 c 128,-1,33
 183 372 183 372 156.5 331 c 128,-1,34
 130 290 130 290 120 244 c 256,35,36
 110 198 110 198 119.5 157.5 c 128,-1,37
 129 117 129 117 153 86.5 c 128,-1,38
 177 56 177 56 214 38.5 c 128,-1,39
 251 21 251 21 298 21 c 0,20,21
433 157 m 0,40,41
 438 162 438 162 444.5 162.5 c 128,-1,42
 451 163 451 163 455 158 c 0,43,44
 460 153 460 153 458 146 c 128,-1,45
 456 139 456 139 451 134 c 0,46,47
 400 84 400 84 310 84 c 0,48,49
 277 84 277 84 249 94 c 128,-1,50
 221 104 221 104 201.5 124.5 c 128,-1,51
 182 145 182 145 174.5 174.5 c 128,-1,52
 167 204 167 204 175 243 c 0,53,54
 181 270 181 270 197 298 c 128,-1,55
 213 326 213 326 238.5 348.5 c 128,-1,56
 264 371 264 371 299 385.5 c 128,-1,57
 334 400 334 400 378 400 c 0,58,59
 424 400 424 400 453 388 c 128,-1,60
 482 376 482 376 498 352 c 0,61,62
 502 347 502 347 499.5 340 c 128,-1,63
 497 333 497 333 492 328 c 0,64,65
 486 323 486 323 479.5 323.5 c 128,-1,66
 473 324 473 324 469 329 c 0,67,68
 445 367 445 367 371 367 c 0,69,70
 311 367 311 367 267 335.5 c 128,-1,71
 223 304 223 304 210 243 c 0,72,73
 197 180 197 180 226 150 c 128,-1,74
 255 120 255 120 318 120 c 0,75,76
 393 120 393 120 433 157 c 0,40,41
EndSplineSet
EndChar
StartChar: ordfeminine
Encoding: 170 170 109
Width: 257
Flags: W
Fore
164 206 m 0,0,1
 145 206 145 206 128.5 210.5 c 128,-1,2
 112 215 112 215 100.5 224.5 c 128,-1,3
 89 234 89 234 84 248.5 c 128,-1,4
 79 263 79 263 84 283 c 0,5,6
 92 318 92 318 124.5 338.5 c 128,-1,7
 157 359 157 359 202 359 c 0,8,9
 237 359 237 359 251.5 348.5 c 128,-1,10
 266 338 266 338 272 330 c 1,11,12
 278 365 278 365 261.5 380.5 c 128,-1,13
 245 396 245 396 207 396 c 0,14,15
 187 396 187 396 171.5 391.5 c 128,-1,16
 156 387 156 387 140 379 c 0,17,18
 129 374 129 374 125.5 376 c 128,-1,19
 122 378 122 378 120 380 c 0,20,21
 115 385 115 385 119.5 392 c 128,-1,22
 124 399 124 399 129 402 c 0,23,24
 149 413 149 413 170.5 418.5 c 128,-1,25
 192 424 192 424 214 424 c 0,26,27
 266 424 266 424 287 401 c 128,-1,28
 308 378 308 378 297 327 c 2,29,-1
 275 224 l 2,30,31
 272 209 272 209 257 209 c 0,32,33
 252 209 252 209 249.5 213.5 c 128,-1,34
 247 218 247 218 249 224 c 2,35,-1
 251 234 l 1,36,37
 233 220 233 220 210.5 213 c 128,-1,38
 188 206 188 206 164 206 c 0,0,1
194 329 m 0,39,40
 181 329 181 329 167.5 326 c 128,-1,41
 154 323 154 323 142.5 317 c 128,-1,42
 131 311 131 311 122.5 302 c 128,-1,43
 114 293 114 293 111 281 c 0,44,45
 106 258 106 258 123 246 c 128,-1,46
 140 234 140 234 172 234 c 0,47,48
 197 234 197 234 213.5 240 c 128,-1,49
 230 246 230 246 239 254 c 128,-1,50
 248 262 248 262 252 269.5 c 128,-1,51
 256 277 256 277 257 281 c 0,52,53
 260 296 260 296 255 305 c 128,-1,54
 250 314 250 314 240 319.5 c 128,-1,55
 230 325 230 325 217.5 327 c 128,-1,56
 205 329 205 329 194 329 c 0,39,40
EndSplineSet
EndChar
StartChar: guillemotleft
Encoding: 171 171 110
Width: 300
Flags: W
Fore
183 327 m 2,0,1
 194 340 194 340 207 333 c 1,2,3
 212 329 212 329 212.5 322 c 128,-1,4
 213 315 213 315 208 309 c 2,5,-1
 103 187 l 1,6,-1
 156 65 l 2,7,8
 159 59 159 59 155.5 52 c 128,-1,9
 152 45 152 45 145 42 c 0,10,11
 130 34 130 34 123 47 c 2,12,-1
 67 187 l 1,13,-1
 183 327 l 2,0,1
295 327 m 2,14,15
 306 340 306 340 319 333 c 1,16,17
 324 329 324 329 324.5 322 c 128,-1,18
 325 315 325 315 320 309 c 2,19,-1
 215 187 l 1,20,-1
 268 65 l 2,21,22
 271 59 271 59 267.5 52 c 128,-1,23
 264 45 264 45 257 42 c 0,24,25
 242 34 242 34 235 47 c 2,26,-1
 179 187 l 1,27,-1
 295 327 l 2,14,15
EndSplineSet
EndChar
StartChar: logicalnot
Encoding: 172 172 111
Width: 512
Flags: W
Fore
108 283 m 2,0,-1
 532 283 l 1,1,-1
 489 84 l 2,2,3
 487 76 487 76 480 70 c 128,-1,4
 473 64 473 64 465 64 c 0,5,6
 456 64 456 64 451.5 70 c 128,-1,7
 447 76 447 76 449 84 c 2,8,-1
 483 243 l 1,9,-1
 99 243 l 2,10,11
 91 243 91 243 86 248.5 c 128,-1,12
 81 254 81 254 83 262 c 0,13,14
 85 271 85 271 92.5 277 c 128,-1,15
 100 283 100 283 108 283 c 2,0,-1
EndSplineSet
EndChar
StartChar: registered
Encoding: 174 174 112
Width: 572
Flags: W
Fore
592 244 m 256,0,1
 581 191 581 191 551.5 145 c 128,-1,2
 522 99 522 99 480 64.5 c 128,-1,3
 438 30 438 30 387 10 c 128,-1,4
 336 -10 336 -10 284 -10 c 0,5,6
 231 -10 231 -10 189 10 c 128,-1,7
 147 30 147 30 120 64.5 c 128,-1,8
 93 99 93 99 82.5 145 c 128,-1,9
 72 191 72 191 83 244 c 256,10,11
 94 297 94 297 124 343.5 c 128,-1,12
 154 390 154 390 196 424.5 c 128,-1,13
 238 459 238 459 289 479 c 128,-1,14
 340 499 340 499 393 499 c 0,15,16
 445 499 445 499 487 479 c 128,-1,17
 529 459 529 459 556 424.5 c 128,-1,18
 583 390 583 390 593 343.5 c 128,-1,19
 603 297 603 297 592 244 c 256,0,1
563 244 m 256,20,21
 573 291 573 291 564 332 c 128,-1,22
 555 373 555 373 531 403.5 c 128,-1,23
 507 434 507 434 469.5 451.5 c 128,-1,24
 432 469 432 469 386 469 c 0,25,26
 339 469 339 469 294.5 451.5 c 128,-1,27
 250 434 250 434 213 403.5 c 128,-1,28
 176 373 176 373 149.5 332 c 128,-1,29
 123 291 123 291 113 244 c 256,30,31
 103 197 103 197 112 156.5 c 128,-1,32
 121 116 121 116 145 85 c 128,-1,33
 169 54 169 54 206.5 36.5 c 128,-1,34
 244 19 244 19 291 19 c 0,35,36
 337 19 337 19 382 36.5 c 128,-1,37
 427 54 427 54 464 85 c 128,-1,38
 501 116 501 116 527 156.5 c 128,-1,39
 553 197 553 197 563 244 c 256,20,21
336 210 m 1,40,41
 352 206 352 206 367.5 191 c 128,-1,42
 383 176 383 176 395.5 159 c 128,-1,43
 408 142 408 142 416 126 c 128,-1,44
 424 110 424 110 425 103 c 0,45,46
 427 95 427 95 416 90 c 1,47,48
 404 82 404 82 397 94 c 0,49,50
 382 126 382 126 363.5 149.5 c 128,-1,51
 345 173 345 173 328 188.5 c 128,-1,52
 311 204 311 204 297.5 213 c 128,-1,53
 284 222 284 222 279 225 c 1,54,55
 271 227 271 227 268.5 233 c 128,-1,56
 266 239 266 239 273 246 c 0,57,58
 277 251 277 251 283.5 251.5 c 128,-1,59
 290 252 290 252 294 250 c 0,60,61
 319 239 319 239 345 236 c 128,-1,62
 371 233 371 233 393.5 238 c 128,-1,63
 416 243 416 243 432 258 c 128,-1,64
 448 273 448 273 454 300 c 0,65,66
 463 341 463 341 440 362 c 128,-1,67
 417 383 417 383 372 383 c 0,68,69
 322 383 322 383 288.5 361 c 128,-1,70
 255 339 255 339 245 296 c 2,71,-1
 205 105 l 2,72,73
 201 90 201 90 188 90 c 0,74,75
 172 90 172 90 176 105 c 2,76,-1
 217 300 l 2,77,78
 224 331 224 331 240.5 352.5 c 128,-1,79
 257 374 257 374 279 387 c 128,-1,80
 301 400 301 400 326.5 405.5 c 128,-1,81
 352 411 352 411 378 411 c 0,82,83
 399 411 399 411 421 405.5 c 128,-1,84
 443 400 443 400 459 387.5 c 128,-1,85
 475 375 475 375 483 353.5 c 128,-1,86
 491 332 491 332 484 301 c 0,87,88
 473 249 473 249 430.5 225.5 c 128,-1,89
 388 202 388 202 336 210 c 1,40,41
EndSplineSet
EndChar
StartChar: macron
Encoding: 175 175 113
Width: 216
Flags: W
Fore
117 422 m 1,0,-1
 124 454 l 1,1,-1
 283 454 l 1,2,-1
 276 422 l 1,3,-1
 117 422 l 1,0,-1
EndSplineSet
EndChar
StartChar: degree
Encoding: 176 176 114
Width: 216
Flags: W
Fore
216 499 m 256,0,1
 234 499 234 499 248.5 491.5 c 128,-1,2
 263 484 263 484 272.5 471.5 c 128,-1,3
 282 459 282 459 285.5 442.5 c 128,-1,4
 289 426 289 426 285 408 c 256,5,6
 281 390 281 390 270.5 373.5 c 128,-1,7
 260 357 260 357 245 345 c 128,-1,8
 230 333 230 333 212.5 326 c 128,-1,9
 195 319 195 319 177 319 c 256,10,11
 159 319 159 319 144 326 c 128,-1,12
 129 333 129 333 119.5 345 c 128,-1,13
 110 357 110 357 106 373.5 c 128,-1,14
 102 390 102 390 106 408 c 256,15,16
 110 426 110 426 120.5 442.5 c 128,-1,17
 131 459 131 459 146 471.5 c 128,-1,18
 161 484 161 484 179.5 491.5 c 128,-1,19
 198 499 198 499 216 499 c 256,0,1
184 352 m 256,20,21
 207 352 207 352 227 368.5 c 128,-1,22
 247 385 247 385 252 408 c 256,23,24
 257 431 257 431 244 447.5 c 128,-1,25
 231 464 231 464 208 464 c 256,26,27
 185 464 185 464 165 447.5 c 128,-1,28
 145 431 145 431 140 408 c 256,29,30
 135 385 135 385 148 368.5 c 128,-1,31
 161 352 161 352 184 352 c 256,20,21
EndSplineSet
EndChar
StartChar: plusminus
Encoding: 177 177 115
Width: 429
Flags: W
Fore
130 188 m 2,0,1
 105 188 105 188 108 207 c 0,2,3
 112 227 112 227 139 227 c 2,4,-1
 244 227 l 1,5,-1
 264 320 l 2,6,7
 268 346 268 346 289 346 c 0,8,9
 307 346 307 346 303 320 c 2,10,-1
 283 227 l 1,11,-1
 387 227 l 2,12,13
 413 227 413 227 409 207 c 0,14,15
 406 188 406 188 378 188 c 2,16,-1
 274 188 l 1,17,-1
 256 99 l 2,18,19
 250 72 250 72 231 72 c 0,20,21
 211 72 211 72 217 99 c 2,22,-1
 235 188 l 1,23,-1
 130 188 l 2,0,1
347 38 m 2,24,25
 372 38 372 38 369 19 c 0,26,27
 364 0 364 0 339 0 c 2,28,-1
 94 0 l 2,29,30
 66 0 66 0 71 19 c 0,31,32
 74 38 74 38 102 38 c 2,33,-1
 347 38 l 2,24,25
EndSplineSet
EndChar
StartChar: twosuperior
Encoding: 178 178 116
Width: 308
Flags: W
Fore
308 208 m 1,0,1
 306 200 306 200 299.5 195 c 128,-1,2
 293 190 293 190 284 190 c 2,3,-1
 101 190 l 2,4,5
 87 190 87 190 85 202 c 128,-1,6
 83 214 83 214 96 225 c 2,7,-1
 118 240 l 2,8,9
 135 251 135 251 170.5 275.5 c 128,-1,10
 206 300 206 300 272 347 c 0,11,12
 291 361 291 361 298.5 377.5 c 128,-1,13
 306 394 306 394 302.5 408.5 c 128,-1,14
 299 423 299 423 286 433 c 128,-1,15
 273 443 273 443 253 443 c 0,16,17
 230 443 230 443 214.5 438 c 128,-1,18
 199 433 199 433 189 424.5 c 128,-1,19
 179 416 179 416 173 404.5 c 128,-1,20
 167 393 167 393 164 380 c 0,21,22
 162 372 162 372 155.5 368 c 128,-1,23
 149 364 149 364 142 364 c 256,24,25
 135 364 135 364 130 370 c 128,-1,26
 125 376 125 376 127 383 c 0,27,28
 156 479 156 479 260 479 c 0,29,30
 292 479 292 479 312.5 462.5 c 128,-1,31
 333 446 333 446 338.5 421.5 c 128,-1,32
 344 397 344 397 332.5 369.5 c 128,-1,33
 321 342 321 342 290 320 c 2,34,35
 274 308.5 l 130,-1,36
 258 297 258 297 236 282 c 128,-1,37
 214 267 214 267 191.5 251 c 128,-1,38
 169 235 169 235 155 225 c 1,39,-1
 291 225 l 2,40,41
 300 225 300 225 304 220 c 1,42,-1
 308 208 l 1,0,1
EndSplineSet
EndChar
StartChar: threesuperior
Encoding: 179 179 117
Width: 300
Flags: W
Fore
310 274 m 0,0,1
 306 256 306 256 294 240.5 c 128,-1,2
 282 225 282 225 266 213.5 c 128,-1,3
 250 202 250 202 231.5 196 c 128,-1,4
 213 190 213 190 195 190 c 0,5,6
 181 190 181 190 164.5 195.5 c 128,-1,7
 148 201 148 201 134.5 212 c 128,-1,8
 121 223 121 223 114 240 c 128,-1,9
 107 257 107 257 112 280 c 0,10,11
 114 288 114 288 119.5 293.5 c 128,-1,12
 125 299 125 299 133 299 c 0,13,14
 150 299 150 299 147 280 c 0,15,16
 141 251 141 251 160 239 c 128,-1,17
 179 227 179 227 203 227 c 0,18,19
 225 227 225 227 246 239 c 128,-1,20
 267 251 267 251 272 274 c 0,21,22
 276 292 276 292 273 303 c 128,-1,23
 270 314 270 314 265 320 c 128,-1,24
 260 326 260 326 254.5 328 c 128,-1,25
 249 330 249 330 247 330 c 2,26,-1
 200 330 l 2,27,28
 193 330 193 330 188 335 c 128,-1,29
 183 340 183 340 185 348 c 256,30,31
 187 356 187 356 193.5 361.5 c 128,-1,32
 200 367 200 367 208 367 c 2,33,-1
 259 367 l 1,34,35
 272 369 272 369 281 382 c 128,-1,36
 290 395 290 395 290 408 c 0,37,38
 291 422 291 422 280 433.5 c 128,-1,39
 269 445 269 445 247 445 c 0,40,41
 219 445 219 445 199.5 434.5 c 128,-1,42
 180 424 180 424 175 403 c 0,43,44
 173 395 173 395 167 390 c 128,-1,45
 161 385 161 385 153 385 c 0,46,47
 146 385 146 385 142 390.5 c 128,-1,48
 138 396 138 396 140 403 c 0,49,50
 148 440 148 440 179 460.5 c 128,-1,51
 210 481 210 481 255 481 c 0,52,53
 290 481 290 481 309.5 461.5 c 128,-1,54
 329 442 329 442 327 416 c 0,55,56
 326 397 326 397 314.5 378 c 128,-1,57
 303 359 303 359 284 348 c 1,58,59
 300 340 300 340 308 322.5 c 128,-1,60
 316 305 316 305 310 274 c 0,0,1
EndSplineSet
EndChar
StartChar: acute
Encoding: 180 180 118
Width: 216
Flags: W
Fore
194 386 m 1,0,-1
 163 386 l 1,1,-1
 252 490 l 1,2,-1
 311 490 l 1,3,-1
 194 386 l 1,0,-1
EndSplineSet
EndChar
StartChar: mu
Encoding: 181 181 119
Width: 477
Flags: W
Fore
101 73 m 1,0,1
 98 59 98 59 93.5 33 c 128,-1,2
 89 7 89 7 85 -21.5 c 128,-1,3
 81 -50 81 -50 77 -78 c 128,-1,4
 73 -106 73 -106 72 -125 c 0,5,6
 71 -137 71 -137 69 -148.5 c 128,-1,7
 67 -160 67 -160 63 -170 c 128,-1,8
 59 -180 59 -180 52.5 -186 c 128,-1,9
 46 -192 46 -192 36 -192 c 0,10,11
 18 -192 18 -192 16 -174 c 128,-1,12
 14 -156 14 -156 25 -125 c 0,13,14
 31 -102 31 -102 38 -76 c 0,15,16
 44 -53 44 -53 50.5 -23 c 128,-1,17
 57 7 57 7 65 41 c 2,18,-1
 128 338 l 2,19,20
 130 346 130 346 136.5 351.5 c 128,-1,21
 143 357 143 357 151 357 c 256,22,23
 159 357 159 357 163.5 351.5 c 128,-1,24
 168 346 168 346 166 338 c 2,25,-1
 130 165 l 2,26,27
 117 105 117 105 147.5 69.5 c 128,-1,28
 178 34 178 34 243 34 c 0,29,30
 385 34 385 34 415 175 c 2,31,-1
 449 338 l 2,32,33
 454 357 454 357 472 357 c 0,34,35
 480 357 480 357 484 351.5 c 128,-1,36
 488 346 488 346 486 338 c 2,37,-1
 418 15 l 2,38,39
 413 -4 413 -4 396 -4 c 0,40,41
 388 -4 388 -4 384 1.5 c 128,-1,42
 380 7 380 7 382 15 c 2,43,-1
 392 63 l 1,44,45
 363 31 363 31 324 13 c 128,-1,46
 285 -5 285 -5 234 -5 c 0,47,48
 182 -5 182 -5 147 13 c 128,-1,49
 112 31 112 31 101 73 c 1,0,1
EndSplineSet
EndChar
StartChar: paragraph
Encoding: 182 182 120
Width: 400
Flags: W
Fore
419 469 m 0,0,1
 424 464 424 464 426 451.5 c 128,-1,2
 428 439 428 439 425 424 c 2,3,-1
 304 -142 l 2,4,5
 302 -150 302 -150 295 -155.5 c 128,-1,6
 288 -161 288 -161 280 -161 c 256,7,8
 272 -161 272 -161 267.5 -155.5 c 128,-1,9
 263 -150 263 -150 265 -142 c 2,10,-1
 386 424 l 2,11,12
 390 445 390 445 369 445 c 2,13,-1
 321 445 l 1,14,-1
 197 -137 l 2,15,16
 195 -145 195 -145 188.5 -150.5 c 128,-1,17
 182 -156 182 -156 174 -156 c 0,18,19
 156 -156 156 -156 159 -137 c 2,20,-1
 234 214 l 1,21,22
 204 213 204 213 180.5 223 c 128,-1,23
 157 233 157 233 142 251 c 128,-1,24
 127 269 127 269 121.5 293.5 c 128,-1,25
 116 318 116 318 122 347 c 256,26,27
 128 376 128 376 144 401 c 128,-1,28
 160 426 160 426 182.5 445 c 128,-1,29
 205 464 205 464 232.5 474.5 c 128,-1,30
 260 485 260 485 289 485 c 2,31,-1
 378 485 l 2,32,33
 379 485 379 485 383.5 485 c 128,-1,34
 388 485 388 485 394.5 483.5 c 128,-1,35
 401 482 401 482 407.5 478.5 c 128,-1,36
 414 475 414 475 419 469 c 0,0,1
EndSplineSet
EndChar
StartChar: periodcentered
Encoding: 183 183 121
Width: 230
Flags: W
Fore
230 236 m 0,0,1
 224 209 224 209 201 190.5 c 128,-1,2
 178 172 178 172 151 172 c 0,3,4
 125 172 125 172 109.5 190.5 c 128,-1,5
 94 209 94 209 100 236 c 0,6,7
 105 263 105 263 128.5 282 c 128,-1,8
 152 301 152 301 178 301 c 0,9,10
 205 301 205 301 220 282 c 128,-1,11
 235 263 235 263 230 236 c 0,0,1
EndSplineSet
EndChar
StartChar: cedilla
Encoding: 184 184 122
Width: 216
Flags: W
Fore
153 -83 m 0,0,1
 148 -107 148 -107 130 -121 c 128,-1,2
 112 -135 112 -135 89.5 -140 c 128,-1,3
 67 -145 67 -145 44.5 -142 c 128,-1,4
 22 -139 22 -139 7 -128 c 1,5,-1
 33 -103 l 1,6,7
 39 -109 39 -109 51 -112 c 128,-1,8
 63 -115 63 -115 75.5 -114 c 128,-1,9
 88 -113 88 -113 98 -107 c 128,-1,10
 108 -101 108 -101 111 -88 c 0,11,12
 114 -71 114 -71 98.5 -61.5 c 128,-1,13
 83 -52 83 -52 59 -54 c 1,14,-1
 110 4 l 1,15,-1
 147 4 l 1,16,-1
 108 -35 l 1,17,18
 118 -37 118 -37 127 -41 c 128,-1,19
 136 -45 136 -45 142.5 -51 c 128,-1,20
 149 -57 149 -57 152 -65 c 128,-1,21
 155 -73 155 -73 153 -83 c 0,0,1
EndSplineSet
EndChar
StartChar: onesuperior
Encoding: 185 185 123
Width: 233
Flags: W
Fore
192 210 m 2,0,1
 190 202 190 202 184 196.5 c 128,-1,2
 178 191 178 191 170 191 c 256,3,4
 162 191 162 191 158 196.5 c 128,-1,5
 154 202 154 202 156 210 c 2,6,-1
 204 434 l 1,7,-1
 150 416 l 2,8,9
 142 413 142 413 136 416 c 128,-1,10
 130 419 130 419 129 426 c 0,11,12
 127 434 127 434 131.5 439.5 c 128,-1,13
 136 445 136 445 144 449 c 2,14,-1
 225 478 l 2,15,16
 233 480 233 480 236.5 478.5 c 128,-1,17
 240 477 240 477 242 475 c 0,18,19
 247 470 247 470 246 463 c 128,-1,20
 245 456 245 456 244 454 c 1,21,-1
 192 210 l 2,0,1
EndSplineSet
EndChar
StartChar: ordmasculine
Encoding: 186 186 124
Width: 268
Flags: W
Fore
320 308 m 0,0,1
 313 276 313 276 296.5 253 c 128,-1,2
 280 230 280 230 259 215.5 c 128,-1,3
 238 201 238 201 215 194 c 128,-1,4
 192 187 192 187 172 187 c 0,5,6
 120 187 120 187 93 220 c 128,-1,7
 66 253 66 253 77 304 c 0,8,9
 83 332 83 332 98 355 c 128,-1,10
 113 378 113 378 133.5 393.5 c 128,-1,11
 154 409 154 409 177 417.5 c 128,-1,12
 200 426 200 426 223 426 c 0,13,14
 251 426 251 426 272 416.5 c 128,-1,15
 293 407 293 407 305.5 391 c 128,-1,16
 318 375 318 375 321.5 353.5 c 128,-1,17
 325 332 325 332 320 308 c 0,0,1
287 306 m 0,18,19
 290 321 290 321 288 337 c 128,-1,20
 286 353 286 353 278 366 c 128,-1,21
 270 379 270 379 255.5 387.5 c 128,-1,22
 241 396 241 396 218 396 c 0,23,24
 196 396 196 396 178 388 c 128,-1,25
 160 380 160 380 146.5 367.5 c 128,-1,26
 133 355 133 355 124 338.5 c 128,-1,27
 115 322 115 322 111 305 c 0,28,29
 106 283 106 283 110.5 266.5 c 128,-1,30
 115 250 115 250 125.5 239 c 128,-1,31
 136 228 136 228 150.5 222.5 c 128,-1,32
 165 217 165 217 180 217 c 0,33,34
 213 217 213 217 245 239 c 128,-1,35
 277 261 277 261 287 306 c 0,18,19
EndSplineSet
EndChar
StartChar: guillemotright
Encoding: 187 187 125
Width: 300
Flags: W
Fore
312 187 m 1,0,-1
 196 47 l 2,1,2
 191 41 191 41 184 39.5 c 128,-1,3
 177 38 177 38 172 42 c 0,4,5
 167 45 167 45 166.5 52 c 128,-1,6
 166 59 166 59 171 65 c 2,7,-1
 276 187 l 1,8,-1
 223 309 l 2,9,10
 221 315 221 315 224 322 c 128,-1,11
 227 329 227 329 234 333 c 0,12,13
 241 336 241 336 247.5 334.5 c 128,-1,14
 254 333 254 333 256 327 c 2,15,-1
 312 187 l 1,0,-1
200 187 m 1,16,-1
 84 47 l 2,17,18
 79 41 79 41 72 39.5 c 128,-1,19
 65 38 65 38 60 42 c 0,20,21
 55 45 55 45 54.5 52 c 128,-1,22
 54 59 54 59 59 65 c 2,23,-1
 164 187 l 1,24,-1
 111 309 l 2,25,26
 109 315 109 315 112 322 c 128,-1,27
 115 329 115 329 122 333 c 0,28,29
 129 336 129 336 135.5 334.5 c 128,-1,30
 142 333 142 333 144 327 c 2,31,-1
 200 187 l 1,16,-1
EndSplineSet
EndChar
StartChar: onequarter
Encoding: 188 188 126
Width: 604
Flags: W
Fore
529 477 m 1,0,-1
 566 477 l 1,1,-1
 158 -11 l 1,2,-1
 121 -11 l 1,3,-1
 529 477 l 1,0,-1
192 210 m 2,4,5
 190 202 190 202 184 196.5 c 128,-1,6
 178 191 178 191 170 191 c 256,7,8
 162 191 162 191 158 196.5 c 128,-1,9
 154 202 154 202 156 210 c 2,10,-1
 204 434 l 1,11,-1
 150 416 l 2,12,13
 142 413 142 413 136 416 c 128,-1,14
 130 419 130 419 129 426 c 0,15,16
 127 434 127 434 131.5 439.5 c 128,-1,17
 136 445 136 445 144 449 c 2,18,-1
 225 478 l 2,19,20
 233 480 233 480 236.5 478.5 c 128,-1,21
 240 477 240 477 242 475 c 0,22,23
 247 470 247 470 246 463 c 128,-1,24
 245 456 245 456 244 454 c 1,25,-1
 192 210 l 2,4,5
590 74 m 0,26,27
 588 66 588 66 582 61 c 128,-1,28
 576 56 576 56 568 56 c 2,29,-1
 549 56 l 1,30,-1
 541 17 l 2,31,32
 539 9 539 9 533 4 c 128,-1,33
 527 -1 527 -1 519 -1 c 0,34,35
 500 -1 500 -1 503 17 c 2,36,-1
 511 56 l 1,37,-1
 358 56 l 1,38,39
 352 55 352 55 348.5 58 c 128,-1,40
 345 61 345 61 344 66 c 128,-1,41
 343 71 343 71 344.5 76 c 128,-1,42
 346 81 346 81 351 85 c 2,43,-1
 566 284 l 2,44,45
 577 292 577 292 587.5 288 c 128,-1,46
 598 284 598 284 595 270 c 2,47,-1
 557 91 l 1,48,-1
 576 91 l 2,49,50
 580 91 580 91 586.5 88.5 c 128,-1,51
 593 86 593 86 590 74 c 0,26,27
519 91 m 1,52,-1
 547 224 l 1,53,-1
 405 91 l 1,54,-1
 519 91 l 1,52,-1
EndSplineSet
Ligature: 0 0 'frac' one fraction four
Ligature: 0 0 'frac' one slash four
EndChar
StartChar: onehalf
Encoding: 189 189 127
Width: 603
Flags: W
Fore
499 480 m 1,0,-1
 537 480 l 1,1,-1
 130 -8 l 1,2,-1
 93 -8 l 1,3,-1
 499 480 l 1,0,-1
155 213 m 2,4,-1
 202 437 l 1,5,-1
 149 419 l 2,6,7
 140 416 140 416 134 419 c 128,-1,8
 128 422 128 422 127 429 c 0,9,10
 125 437 125 437 129.5 442.5 c 128,-1,11
 134 448 134 448 142 452 c 2,12,-1
 223 481 l 2,13,14
 237 484 237 484 241 478 c 1,15,16
 246 473 246 473 244.5 466 c 128,-1,17
 243 459 243 459 243 457 c 1,18,-1
 191 213 l 2,19,20
 186 194 186 194 169 194 c 0,21,22
 161 194 161 194 157 199.5 c 128,-1,23
 153 205 153 205 155 213 c 2,4,-1
580 18 m 0,24,25
 578 10 578 10 572 5 c 128,-1,26
 566 0 566 0 557 0 c 2,27,-1
 374 0 l 2,28,29
 360 0 360 0 358 12 c 128,-1,30
 356 24 356 24 369 35 c 2,31,-1
 391 50 l 2,32,33
 408 61 408 61 443.5 85.5 c 128,-1,34
 479 110 479 110 545 157 c 0,35,36
 564 171 564 171 571 187.5 c 128,-1,37
 578 204 578 204 574.5 218.5 c 128,-1,38
 571 233 571 233 558 243 c 128,-1,39
 545 253 545 253 525 253 c 0,40,41
 502 253 502 253 486.5 248 c 128,-1,42
 471 243 471 243 461 234.5 c 128,-1,43
 451 226 451 226 445.5 214.5 c 128,-1,44
 440 203 440 203 437 190 c 0,45,46
 435 182 435 182 428 178 c 128,-1,47
 421 174 421 174 414 174 c 256,48,49
 407 174 407 174 402.5 180 c 128,-1,50
 398 186 398 186 400 193 c 0,51,52
 429 289 429 289 533 289 c 0,53,54
 565 289 565 289 585.5 272.5 c 128,-1,55
 606 256 606 256 611 231.5 c 128,-1,56
 616 207 616 207 604.5 179.5 c 128,-1,57
 593 152 593 152 562 130 c 2,58,59
 546.5 118.5 l 130,-1,60
 531 107 531 107 509 92 c 128,-1,61
 487 77 487 77 464.5 61 c 128,-1,62
 442 45 442 45 428 35 c 1,63,-1
 564 35 l 2,64,65
 568 35 568 35 575.5 33 c 128,-1,66
 583 31 583 31 580 18 c 0,24,25
EndSplineSet
Ligature: 0 0 'frac' one fraction two
Ligature: 0 0 'frac' one slash two
EndChar
StartChar: threequarters
Encoding: 190 190 128
Width: 602
Flags: W
Fore
554 485 m 1,0,-1
 591 485 l 1,1,-1
 184 -3 l 1,2,-1
 147 -3 l 1,3,-1
 554 485 l 1,0,-1
285 276 m 0,4,5
 281 258 281 258 269.5 242.5 c 128,-1,6
 258 227 258 227 241.5 215.5 c 128,-1,7
 225 204 225 204 206.5 198 c 128,-1,8
 188 192 188 192 170 192 c 0,9,10
 156 192 156 192 139.5 197.5 c 128,-1,11
 123 203 123 203 109.5 214 c 128,-1,12
 96 225 96 225 89 242 c 128,-1,13
 82 259 82 259 87 282 c 0,14,15
 89 290 89 290 94.5 295.5 c 128,-1,16
 100 301 100 301 108 301 c 0,17,18
 127 301 127 301 122 282 c 0,19,20
 116 253 116 253 135 241 c 128,-1,21
 154 229 154 229 178 229 c 0,22,23
 200 229 200 229 221 241 c 128,-1,24
 242 253 242 253 247 276 c 0,25,26
 251 294 251 294 248 305 c 128,-1,27
 245 316 245 316 240 322 c 128,-1,28
 235 328 235 328 229.5 330 c 128,-1,29
 224 332 224 332 222 332 c 1,30,-1
 223 332 l 1,31,-1
 175 332 l 2,32,33
 168 332 168 332 163.5 337 c 128,-1,34
 159 342 159 342 161 350 c 256,35,36
 163 358 163 358 169 363.5 c 128,-1,37
 175 369 175 369 183 369 c 2,38,-1
 234 369 l 1,39,40
 248 371 248 371 256.5 384 c 128,-1,41
 265 397 265 397 266 410 c 0,42,43
 266 424 266 424 256.5 435.5 c 128,-1,44
 247 447 247 447 225 447 c 0,45,46
 197 447 197 447 176.5 436.5 c 128,-1,47
 156 426 156 426 151 405 c 0,48,49
 149 397 149 397 143 392 c 128,-1,50
 137 387 137 387 129 387 c 0,51,52
 122 387 122 387 118 392.5 c 128,-1,53
 114 398 114 398 116 405 c 0,54,55
 124 442 124 442 155.5 462.5 c 128,-1,56
 187 483 187 483 232 483 c 0,57,58
 267 483 267 483 285 462.5 c 128,-1,59
 303 442 303 442 302 418 c 0,60,61
 302 399 302 399 290 380 c 128,-1,62
 278 361 278 361 260 350 c 1,63,64
 272 342 272 342 282 324.5 c 128,-1,65
 292 307 292 307 285 276 c 0,4,5
587 75 m 0,66,67
 585 67 585 67 579.5 62.5 c 128,-1,68
 574 58 574 58 566 58 c 2,69,-1
 547 58 l 1,70,-1
 539 19 l 2,71,72
 537 11 537 11 530 6 c 128,-1,73
 523 1 523 1 515 1 c 256,74,75
 507 1 507 1 503 6.5 c 128,-1,76
 499 12 499 12 501 19 c 2,77,-1
 509 58 l 1,78,-1
 356 58 l 2,79,80
 345 57 345 57 341.5 68 c 128,-1,81
 338 79 338 79 348 87 c 2,82,-1
 563 286 l 1,83,84
 575 294 575 294 585 289.5 c 128,-1,85
 595 285 595 285 592 272 c 2,86,-1
 554 93 l 1,87,-1
 573 93 l 2,88,89
 577 93 577 93 583.5 90.5 c 128,-1,90
 590 88 590 88 587 75 c 0,66,67
516 93 m 1,91,-1
 545 226 l 1,92,-1
 402 93 l 1,93,-1
 516 93 l 1,91,-1
EndSplineSet
Ligature: 0 0 'frac' three fraction four
Ligature: 0 0 'frac' three slash four
EndChar
StartChar: questiondown
Encoding: 191 191 129
Width: 418
Flags: W
Fore
47 -11 m 0,0,1
 55 25 55 25 77 54.5 c 128,-1,2
 99 84 99 84 132 101 c 0,3,4
 152 111 152 111 165.5 115.5 c 128,-1,5
 179 120 179 120 190 123 c 128,-1,6
 201 126 201 126 211 129.5 c 128,-1,7
 221 133 221 133 235 141 c 0,8,9
 253 152 253 152 265.5 171 c 128,-1,10
 278 190 278 190 282 208 c 2,11,-1
 286 227 l 2,12,13
 292 254 292 254 309 254 c 0,14,15
 329 254 329 254 323 227 c 2,16,-1
 319 208 l 2,17,18
 312 176 312 176 295 152.5 c 128,-1,19
 278 129 278 129 243 110 c 0,20,21
 228 102 228 102 214.5 97.5 c 128,-1,22
 201 93 201 93 187 89 c 128,-1,23
 173 85 173 85 159.5 79.5 c 128,-1,24
 146 74 146 74 131 62 c 0,25,26
 113 48 113 48 101.5 28.5 c 128,-1,27
 90 9 90 9 85 -11 c 0,28,29
 78 -44 78 -44 85.5 -65.5 c 128,-1,30
 93 -87 93 -87 109 -99 c 128,-1,31
 125 -111 125 -111 146.5 -116 c 128,-1,32
 168 -121 168 -121 190 -121 c 0,33,34
 269 -121 269 -121 326 -57 c 0,35,36
 332 -50 332 -50 340 -50.5 c 128,-1,37
 348 -51 348 -51 353 -57 c 0,38,39
 358 -62 358 -62 356.5 -69.5 c 128,-1,40
 355 -77 355 -77 349 -84 c 0,41,42
 316 -119 316 -119 274.5 -138.5 c 128,-1,43
 233 -158 233 -158 184 -158 c 0,44,45
 110 -158 110 -158 71 -120.5 c 128,-1,46
 32 -83 32 -83 47 -11 c 0,0,1
287 318 m 256,47,48
 290 333 290 333 303 343 c 128,-1,49
 316 353 316 353 331 353 c 256,50,51
 346 353 346 353 353.5 343 c 128,-1,52
 361 333 361 333 358 318 c 256,53,54
 355 303 355 303 342.5 292.5 c 128,-1,55
 330 282 330 282 315 282 c 256,56,57
 300 282 300 282 292 292.5 c 128,-1,58
 284 303 284 303 287 318 c 256,47,48
EndSplineSet
EndChar
StartChar: Aring
Encoding: 197 197 134
Width: 493
Flags: W
Fore
383 640 m 0,0,1
 406 640 406 640 419 622 c 128,-1,2
 432 604 432 604 427 580 c 256,3,4
 422 556 422 556 401 538.5 c 128,-1,5
 380 521 380 521 357 521 c 0,6,7
 331 521 331 521 318 538.5 c 128,-1,8
 305 556 305 556 310 580 c 256,9,10
 315 604 315 604 336 622 c 128,-1,11
 357 640 357 640 383 640 c 0,0,1
363 548 m 0,12,13
 376 548 376 548 387 557 c 128,-1,14
 398 566 398 566 401 580 c 256,15,16
 404 594 404 594 397 603 c 128,-1,17
 390 612 390 612 377 612 c 0,18,19
 362 612 362 612 350 603 c 128,-1,20
 338 594 338 594 335 580 c 256,21,22
 332 566 332 566 340 557 c 128,-1,23
 348 548 348 548 363 548 c 0,12,13
515 302 m 1,24,25
 517.5 315 l 130,-1,26
 520 328 520 328 520.5 347.5 c 128,-1,27
 521 367 521 367 516.5 389 c 128,-1,28
 512 411 512 411 499 431 c 0,29,30
 457 490 457 490 351 490 c 0,31,32
 244 490 244 490 177 431 c 0,33,34
 154 410 154 410 139.5 387.5 c 128,-1,35
 125 365 125 365 117.5 346 c 128,-1,36
 110 327 110 327 107 314 c 128,-1,37
 104 301 104 301 104 300 c 2,38,-1
 97 266 l 2,39,40
 92 240 92 240 80 185 c 128,-1,41
 68 130 68 130 46 27 c 0,42,43
 40 0 40 0 60 0 c 0,44,45
 77 0 77 0 83 27 c 2,46,-1
 128 237 l 1,47,-1
 464 237 l 1,48,-1
 419 27 l 2,49,50
 413 0 413 0 433 0 c 0,51,52
 450 0 450 0 456 27 c 2,53,-1
 515 302 l 1,24,25
478 304 m 1,54,55
 478 305 478 305 476 294.5 c 128,-1,56
 474 284 474 284 472 274 c 1,57,-1
 137 274 l 1,58,-1
 143 302 l 2,59,60
 143 303 143 303 145 313 c 128,-1,61
 147 323 147 323 153.5 338.5 c 128,-1,62
 160 354 160 354 171 371.5 c 128,-1,63
 182 389 182 389 200 405 c 0,64,65
 253 452 253 452 343 452 c 0,66,67
 431 452 431 452 465 406 c 0,68,69
 476 389 476 389 479.5 371.5 c 128,-1,70
 483 354 483 354 483 339 c 0,71,72
 482 321 482 321 478 304 c 1,54,55
EndSplineSet
EndChar
StartChar: AE
Encoding: 198 198 135
Width: 834
Flags: W
Fore
125 224 m 1,0,-1
 83 27 l 2,1,2
 77 0 77 0 60 0 c 0,3,4
 40 0 40 0 46 27 c 2,5,-1
 104 300 l 2,6,7
 104 301 104 301 107 314 c 128,-1,8
 110 327 110 327 117.5 346 c 128,-1,9
 125 365 125 365 139.5 387.5 c 128,-1,10
 154 410 154 410 177 431 c 0,11,12
 244 490 244 490 351 490 c 0,13,14
 481 490 481 490 513 389 c 1,15,16
 531 413 531 413 555 432 c 128,-1,17
 579 451 579 451 606 464 c 128,-1,18
 633 477 633 477 660.5 483.5 c 128,-1,19
 688 490 688 490 713 490 c 0,20,21
 755 490 755 490 785.5 482.5 c 128,-1,22
 816 475 816 475 837 463 c 128,-1,23
 858 451 858 451 869.5 435.5 c 128,-1,24
 881 420 881 420 885 404 c 0,25,26
 887 397 887 397 885.5 389.5 c 128,-1,27
 884 382 884 382 876 378 c 0,28,29
 868 373 868 373 860 375 c 128,-1,30
 852 377 852 377 850 384 c 0,31,32
 839 415 839 415 805.5 434 c 128,-1,33
 772 453 772 453 701 453 c 0,34,35
 672 453 672 453 642 442.5 c 128,-1,36
 612 432 612 432 587 414.5 c 128,-1,37
 562 397 562 397 543.5 372.5 c 128,-1,38
 525 348 525 348 519 319 c 2,39,-1
 507 261 l 1,40,-1
 723 261 l 2,41,42
 750 261 750 261 746 243 c 0,43,44
 742 224 742 224 715 224 c 2,45,-1
 499 224 l 1,46,-1
 489 176 l 2,47,48
 482 144 482 144 489.5 118 c 128,-1,49
 497 92 497 92 514.5 73 c 128,-1,50
 532 54 532 54 557 43 c 128,-1,51
 582 32 582 32 611 32 c 0,52,53
 682 32 682 32 724 51 c 128,-1,54
 766 70 766 70 790 101 c 0,55,56
 795 108 795 108 804 110 c 128,-1,57
 813 112 813 112 818 107 c 1,58,59
 824 103 824 103 823.5 95.5 c 128,-1,60
 823 88 823 88 818 81 c 0,61,62
 795 49 795 49 744 23.5 c 128,-1,63
 693 -2 693 -2 608 -2 c 0,64,65
 587 -2 587 -2 566 2.5 c 128,-1,66
 545 7 545 7 526 17 c 128,-1,67
 507 27 507 27 491.5 41.5 c 128,-1,68
 476 56 476 56 467 77 c 1,69,-1
 456 27 l 2,70,71
 450 0 450 0 433 0 c 0,72,73
 413 0 413 0 419 27 c 2,74,-1
 461 224 l 1,75,-1
 125 224 l 1,0,-1
480 314 m 2,76,77
 490 377 490 377 452.5 414.5 c 128,-1,78
 415 452 415 452 343 452 c 0,79,80
 253 452 253 452 200 405 c 0,81,82
 182 389 182 389 171 371.5 c 128,-1,83
 160 354 160 354 153.5 338.5 c 128,-1,84
 147 323 147 323 145 313 c 128,-1,85
 143 303 143 303 143 302 c 2,86,-1
 134 261 l 1,87,-1
 469 261 l 1,88,-1
 480 314 l 2,76,77
EndSplineSet
EndChar
StartChar: Eth
Encoding: 208 208 145
Width: 522
Flags: W
Fore
56 260 m 1,0,-1
 116 260 l 1,1,-1
 142 385 l 2,2,3
 152 430 152 430 192 458.5 c 128,-1,4
 232 487 232 487 287 487 c 2,5,-1
 310 487 l 2,6,7
 312 487 312 487 331.5 486.5 c 128,-1,8
 351 486 351 486 379 480 c 128,-1,9
 407 474 407 474 437.5 459 c 128,-1,10
 468 444 468 444 492 416 c 0,11,12
 518 384 518 384 527.5 341 c 128,-1,13
 537 298 537 298 525 243 c 0,14,15
 514 189 514 189 486.5 145.5 c 128,-1,16
 459 102 459 102 418 70 c 0,17,18
 382 42 382 42 345.5 27.5 c 128,-1,19
 309 13 309 13 279 7 c 128,-1,20
 249 1 249 1 229 0.5 c 128,-1,21
 209 0 209 0 207 0 c 2,22,-1
 184 0 l 2,23,24
 166 0 166 0 145.5 5.5 c 128,-1,25
 125 11 125 11 109 23 c 128,-1,26
 93 35 93 35 84.5 54 c 128,-1,27
 76 73 76 73 82 101 c 2,28,-1
 109 227 l 1,29,-1
 49 227 l 1,30,-1
 56 260 l 1,0,-1
488 243 m 256,31,32
 498 290 498 290 490 326.5 c 128,-1,33
 482 363 482 363 460 389 c 0,34,35
 440 413 440 413 413 426 c 128,-1,36
 386 439 386 439 361.5 444.5 c 128,-1,37
 337 450 337 450 320 450.5 c 128,-1,38
 303 451 303 451 302 451 c 2,39,-1
 279 451 l 2,40,41
 241 451 241 451 214 433.5 c 128,-1,42
 187 416 187 416 180 387 c 2,43,-1
 153 260 l 1,44,-1
 286 260 l 1,45,-1
 279 227 l 1,46,-1
 146 227 l 1,47,-1
 119 100 l 2,48,49
 115 81 115 81 121 69 c 128,-1,50
 127 57 127 57 138.5 49.5 c 128,-1,51
 150 42 150 42 164.5 39 c 128,-1,52
 179 36 179 36 191 36 c 2,53,-1
 214 36 l 2,54,55
 215 36 215 36 232.5 36.5 c 128,-1,56
 250 37 250 37 277 42.5 c 128,-1,57
 304 48 304 48 336 60.5 c 128,-1,58
 368 73 368 73 398 97 c 0,59,60
 431 123 431 123 454.5 159.5 c 128,-1,61
 478 196 478 196 488 243 c 256,31,32
EndSplineSet
EndChar
StartChar: multiply
Encoding: 215 215 152
Width: 400
Flags: W
Fore
131 273 m 2,0,1
 114 291 114 291 131 305 c 0,2,3
 147 318 147 318 163 300 c 2,4,-1
 241 197 l 1,5,-1
 362 300 l 2,6,7
 386 318 386 318 396 305 c 0,8,9
 407 291 407 291 384 273 c 2,10,-1
 262 170 l 1,11,-1
 342 68 l 2,12,13
 358 49 358 49 341 36 c 0,14,15
 325 22 325 22 309 41 c 2,16,-1
 229 143 l 1,17,-1
 107 40 l 2,18,19
 83 21 83 21 73 35 c 0,20,21
 68 41 68 41 70.5 49 c 128,-1,22
 73 57 73 57 86 67 c 2,23,-1
 209 170 l 1,24,-1
 131 273 l 2,0,1
EndSplineSet
EndChar
StartChar: Oslash
Encoding: 216 216 153
Width: 542
Flags: W
Fore
137 -5 m 2,0,1
 113 -37 113 -37 99 -27 c 0,2,3
 84 -18 84 -18 109 13 c 2,4,-1
 132 42 l 1,5,6
 97 74 97 74 82.5 125.5 c 128,-1,7
 68 177 68 177 82 242 c 0,8,9
 94 297 94 297 121.5 343 c 128,-1,10
 149 389 149 389 188 421.5 c 128,-1,11
 227 454 227 454 275 472 c 128,-1,12
 323 490 323 490 375 490 c 256,13,14
 427 490 427 490 470 471 c 1,15,-1
 493 500 l 2,16,17
 519 532 519 532 532 521 c 1,18,19
 547 512 547 512 522 482 c 2,20,-1
 500 453 l 1,21,22
 544 421 544 421 560.5 366 c 128,-1,23
 577 311 577 311 563 242 c 0,24,25
 551 187 551 187 524 141.5 c 128,-1,26
 497 96 497 96 458 63.5 c 128,-1,27
 419 31 419 31 370.5 13 c 128,-1,28
 322 -5 322 -5 269 -5 c 0,29,30
 204 -5 204 -5 159 22 c 1,31,-1
 137 -5 l 2,0,1
524 242 m 0,32,33
 536 299 536 299 523 345.5 c 128,-1,34
 510 392 510 392 473 420 c 1,35,-1
 185 56 l 1,36,37
 223 34 223 34 278 34 c 0,38,39
 323 34 323 34 363.5 49.5 c 128,-1,40
 404 65 404 65 436.5 92.5 c 128,-1,41
 469 120 469 120 491.5 158 c 128,-1,42
 514 196 514 196 524 242 c 0,32,33
121 242 m 0,43,44
 109 186 109 186 119.5 144 c 128,-1,45
 130 102 130 102 159 76 c 1,46,-1
 442 436 l 1,47,48
 426 443 426 443 407 447 c 128,-1,49
 388 451 388 451 366 451 c 0,50,51
 320 451 320 451 279.5 435 c 128,-1,52
 239 419 239 419 207 391.5 c 128,-1,53
 175 364 175 364 152.5 325.5 c 128,-1,54
 130 287 130 287 121 242 c 0,43,44
EndSplineSet
EndChar
StartChar: Thorn
Encoding: 222 222 159
Width: 432
Flags: W
Fore
326 402 m 2,0,1
 341 402 341 402 364.5 398 c 128,-1,2
 388 394 388 394 409 379.5 c 128,-1,3
 430 365 430 365 441 336 c 128,-1,4
 452 307 452 307 442 258 c 0,5,6
 434 221 434 221 416 195 c 128,-1,7
 398 169 398 169 374.5 152.5 c 128,-1,8
 351 136 351 136 325 128 c 128,-1,9
 299 120 299 120 277 120 c 2,10,-1
 124 120 l 1,11,-1
 101 14 l 2,12,13
 96 -13 96 -13 78 -13 c 256,14,15
 60 -13 60 -13 65 14 c 2,16,-1
 162 469 l 2,17,18
 168 496 168 496 186 496 c 256,19,20
 204 496 204 496 198 469 c 2,21,-1
 184 402 l 1,22,-1
 326 402 l 2,0,1
287 149 m 2,23,24
 306 149 306 149 325.5 156 c 128,-1,25
 345 163 345 163 361.5 176.5 c 128,-1,26
 378 190 378 190 390 210 c 128,-1,27
 402 230 402 230 408 256 c 0,28,29
 420 315 420 315 398 341.5 c 128,-1,30
 376 368 376 368 334 368 c 2,31,-1
 177 368 l 1,32,-1
 130 149 l 1,33,-1
 287 149 l 2,23,24
EndSplineSet
EndChar
StartChar: uni00DF
Encoding: 223 223 160
Width: 402
Flags: W
Fore
401 398 m 0,0,1
 394 367 394 367 372.5 344.5 c 128,-1,2
 351 322 351 322 334 318 c 1,3,4
 426 273 426 273 404 166 c 0,5,6
 397 132 397 132 380 102.5 c 128,-1,7
 363 73 363 73 338.5 50.5 c 128,-1,8
 314 28 314 28 283 15 c 128,-1,9
 252 2 252 2 217 2 c 2,10,-1
 142 2 l 2,11,12
 136 2 136 2 132 6 c 128,-1,13
 128 10 128 10 130 17 c 0,14,15
 132 23 132 23 137.5 28 c 128,-1,16
 143 33 143 33 149 33 c 2,17,-1
 216 33 l 2,18,19
 246 33 246 33 272 43.5 c 128,-1,20
 298 54 298 54 318.5 72.5 c 128,-1,21
 339 91 339 91 353 116 c 128,-1,22
 367 141 367 141 373 169 c 0,23,24
 378 197 378 197 372 222 c 128,-1,25
 366 247 366 247 351 265.5 c 128,-1,26
 336 284 336 284 313.5 295 c 128,-1,27
 291 306 291 306 263 306 c 2,28,-1
 200 306 l 1,29,-1
 206 337 l 1,30,-1
 272 337 l 2,31,32
 285 337 285 337 299.5 338.5 c 128,-1,33
 314 340 314 340 327.5 345.5 c 128,-1,34
 341 351 341 351 351.5 362 c 128,-1,35
 362 373 362 373 367 392 c 0,36,37
 374 420 374 420 365.5 436 c 128,-1,38
 357 452 357 452 345 461 c 0,39,40
 336 468 336 468 322.5 471.5 c 128,-1,41
 309 475 309 475 294 475.5 c 128,-1,42
 279 476 279 476 263.5 473 c 128,-1,43
 248 470 248 470 235 463 c 0,44,45
 229 460 229 460 221.5 455 c 128,-1,46
 214 450 214 450 206 440.5 c 128,-1,47
 198 431 198 431 190.5 415 c 128,-1,48
 183 399 183 399 178 374 c 2,49,-1
 101 14 l 2,50,51
 100 8 100 8 94.5 3.5 c 128,-1,52
 89 -1 89 -1 81 -1 c 0,53,54
 75 -1 75 -1 70.5 3.5 c 128,-1,55
 66 8 66 8 67 14 c 2,56,-1
 145 380 l 2,57,58
 156 432 156 432 195 468 c 128,-1,59
 234 504 234 504 294 504 c 0,60,61
 358 504 358 504 385 476 c 128,-1,62
 412 448 412 448 401 398 c 0,0,1
EndSplineSet
EndChar
StartChar: ae
Encoding: 230 230 167
Width: 749
Flags: W
Fore
683 86 m 0,0,1
 692 94 692 94 701 96.5 c 128,-1,2
 710 99 710 99 716 93 c 0,3,4
 721 88 721 88 718.5 77.5 c 128,-1,5
 716 67 716 67 709 62 c 1,6,7
 677 30 677 30 634 12 c 128,-1,8
 591 -6 591 -6 537 -6 c 0,9,10
 479 -6 479 -6 444 15.5 c 128,-1,11
 409 37 409 37 391 76 c 1,12,13
 344 25 344 25 295 10 c 128,-1,14
 246 -5 246 -5 196 -5 c 256,15,16
 146 -5 146 -5 116 6.5 c 128,-1,17
 86 18 86 18 71 36 c 128,-1,18
 56 54 56 54 53 75.5 c 128,-1,19
 50 97 50 97 55 117 c 0,20,21
 71 176 71 176 124 209.5 c 128,-1,22
 177 243 177 243 259 243 c 0,23,24
 292 242 292 242 319 235 c 0,25,26
 342 229 342 229 362 216 c 128,-1,27
 382 203 382 203 386 180 c 1,28,29
 409 254 409 254 374.5 287 c 128,-1,30
 340 320 340 320 264 320 c 0,31,32
 229 320 229 320 201 312.5 c 128,-1,33
 173 305 173 305 144 291 c 0,34,35
 136 287 136 287 127.5 286 c 128,-1,36
 119 285 119 285 114 291 c 0,37,38
 110 296 110 296 113 304.5 c 128,-1,39
 116 313 116 313 130 320 c 0,40,41
 156 335 156 335 191 347 c 128,-1,42
 226 359 226 359 274 359 c 0,43,44
 340 359 340 359 378.5 337.5 c 128,-1,45
 417 316 417 316 430 267 c 1,46,47
 460 305 460 305 506.5 332 c 128,-1,48
 553 359 553 359 615 359 c 0,49,50
 643 359 643 359 664 354 c 128,-1,51
 685 349 685 349 700.5 341.5 c 128,-1,52
 716 334 716 334 726.5 325 c 128,-1,53
 737 316 737 316 744 307 c 0,54,55
 766 277 766 277 767.5 250 c 128,-1,56
 769 223 769 223 758 203 c 128,-1,57
 747 183 747 183 729 171.5 c 128,-1,58
 711 160 711 160 694 160 c 2,59,-1
 422 160 l 1,60,61
 407 33 407 33 546 33 c 0,62,63
 592 33 592 33 626 48 c 128,-1,64
 660 63 660 63 683 86 c 0,0,1
606 319 m 0,65,66
 561 319 561 319 529 304.5 c 128,-1,67
 497 290 497 290 476.5 270.5 c 128,-1,68
 456 251 456 251 445.5 230.5 c 128,-1,69
 435 210 435 210 431 198 c 1,70,-1
 701 198 l 2,71,72
 711 198 711 198 717 207 c 128,-1,73
 723 216 723 216 725 229 c 128,-1,74
 727 242 727 242 723.5 256 c 128,-1,75
 720 270 720 270 711 280 c 0,76,77
 700 293 700 293 676.5 306 c 128,-1,78
 653 319 653 319 606 319 c 0,65,66
367 116 m 0,79,80
 371 132 371 132 369 148.5 c 128,-1,81
 367 165 367 165 354 177.5 c 128,-1,82
 341 190 341 190 316 198 c 128,-1,83
 291 206 291 206 249 206 c 0,84,85
 223 206 223 206 197.5 200 c 128,-1,86
 172 194 172 194 150.5 183 c 128,-1,87
 129 172 129 172 113.5 155.5 c 128,-1,88
 98 139 98 139 92 117 c 0,89,90
 80 73 80 73 112.5 51 c 128,-1,91
 145 29 145 29 208 29 c 0,92,93
 249 29 249 29 277.5 37.5 c 128,-1,94
 306 46 306 46 325 58.5 c 128,-1,95
 344 71 344 71 353.5 86.5 c 128,-1,96
 363 102 363 102 367 116 c 0,79,80
EndSplineSet
EndChar
StartChar: eth
Encoding: 240 240 177
Width: 453
Flags: W
Fore
463 250 m 2,0,-1
 412 10 l 2,1,2
 407 -9 407 -9 390 -9 c 0,3,4
 382 -9 382 -9 378 -3.5 c 128,-1,5
 374 2 374 2 376 10 c 2,6,-1
 386 57 l 1,7,8
 351 23 351 23 310 7.5 c 128,-1,9
 269 -8 269 -8 217 -8 c 0,10,11
 192 -8 192 -8 161 0.5 c 128,-1,12
 130 9 130 9 105.5 29.5 c 128,-1,13
 81 50 81 50 68 84.5 c 128,-1,14
 55 119 55 119 66 171 c 0,15,16
 73 206 73 206 93.5 238.5 c 128,-1,17
 114 271 114 271 144 296 c 128,-1,18
 174 321 174 321 212 336 c 128,-1,19
 250 351 250 351 293 351 c 0,20,21
 350 351 350 351 386.5 329.5 c 128,-1,22
 423 308 423 308 431 281 c 1,23,24
 435 334 435 334 414.5 376.5 c 128,-1,25
 394 419 394 419 363 439 c 1,26,-1
 302 414 l 1,27,-1
 289 437 l 1,28,-1
 339 457 l 1,29,30
 323 468 323 468 302.5 475 c 128,-1,31
 282 482 282 482 264 487 c 1,32,33
 258 491 258 491 257.5 496.5 c 128,-1,34
 257 502 257 502 260.5 506.5 c 128,-1,35
 264 511 264 511 270.5 513.5 c 128,-1,36
 277 516 277 516 284 514 c 0,37,38
 310 509 310 509 334 498.5 c 128,-1,39
 358 488 358 488 375 475 c 1,40,-1
 437 503 l 1,41,-1
 453 478 l 1,42,-1
 403 458 l 1,43,44
 441 428 441 428 459.5 374.5 c 128,-1,45
 478 321 478 321 463 250 c 2,0,-1
351 71 m 0,46,47
 368 86 368 86 379 103 c 128,-1,48
 390 120 390 120 396.5 135 c 128,-1,49
 403 150 403 150 405.5 160 c 128,-1,50
 408 170 408 170 408 171 c 0,51,52
 416 210 416 210 407.5 236.5 c 128,-1,53
 399 263 399 263 380 280 c 128,-1,54
 361 297 361 297 335.5 304.5 c 128,-1,55
 310 312 310 312 285 312 c 0,56,57
 250 312 250 312 220 300.5 c 128,-1,58
 190 289 190 289 166 269.5 c 128,-1,59
 142 250 142 250 126 224.5 c 128,-1,60
 110 199 110 199 104 171 c 0,61,62
 102 162 102 162 100.5 139 c 128,-1,63
 99 116 99 116 108.5 92 c 128,-1,64
 118 68 118 68 144.5 49 c 128,-1,65
 171 30 171 30 225 30 c 0,66,67
 264 30 264 30 295.5 40.5 c 128,-1,68
 327 51 327 51 351 71 c 0,46,47
EndSplineSet
EndChar
StartChar: divide
Encoding: 247 247 184
Width: 504
Flags: W
Fore
355 316 m 0,0,1
 352 302 352 302 340.5 291.5 c 128,-1,2
 329 281 329 281 314 281 c 256,3,4
 299 281 299 281 292.5 291.5 c 128,-1,5
 286 302 286 302 289 316 c 0,6,7
 293 331 293 331 304 341.5 c 128,-1,8
 315 352 315 352 329 352 c 0,9,10
 344 352 344 352 351 341.5 c 128,-1,11
 358 331 358 331 355 316 c 0,0,1
301 68 m 0,12,13
 298 55 298 55 287 44.5 c 128,-1,14
 276 34 276 34 261 34 c 256,15,16
 246 34 246 34 239.5 44.5 c 128,-1,17
 233 55 233 55 236 68 c 0,18,19
 239 83 239 83 250.5 93.5 c 128,-1,20
 262 104 262 104 277 104 c 0,21,22
 291 104 291 104 297.5 93.5 c 128,-1,23
 304 83 304 83 301 68 c 0,12,13
493 214 m 2,24,25
 503 214 503 214 508.5 208 c 128,-1,26
 514 202 514 202 512 192 c 0,27,28
 510 183 510 183 501.5 176 c 128,-1,29
 493 169 493 169 483 169 c 2,30,-1
 91 169 l 2,31,32
 82 169 82 169 77 176 c 128,-1,33
 72 183 72 183 74 192 c 0,34,35
 76 202 76 202 84 208 c 128,-1,36
 92 214 92 214 101 214 c 2,37,-1
 493 214 l 2,24,25
EndSplineSet
EndChar
StartChar: oslash
Encoding: 248 248 185
Width: 434
Flags: W
Fore
405 305 m 0,0,1
 426 279 426 279 432.5 246 c 128,-1,2
 439 213 439 213 432 177.5 c 128,-1,3
 425 142 425 142 404.5 108 c 128,-1,4
 384 74 384 74 350 46 c 0,5,6
 329 28 329 28 303.5 16 c 128,-1,7
 278 4 278 4 252 -1 c 128,-1,8
 226 -6 226 -6 201 -4 c 128,-1,9
 176 -2 176 -2 156 7 c 1,10,-1
 132 -27 l 2,11,12
 123 -39 123 -39 112 -34 c 0,13,14
 108 -32 108 -32 107 -26.5 c 128,-1,15
 106 -21 106 -21 110 -16 c 2,16,-1
 134 21 l 1,17,18
 96 43 96 43 82 85.5 c 128,-1,19
 68 128 68 128 78 176 c 0,20,21
 86 213 86 213 106 246.5 c 128,-1,22
 126 280 126 280 155 304.5 c 128,-1,23
 184 329 184 329 219.5 343.5 c 128,-1,24
 255 358 255 358 294 358 c 0,25,26
 309 358 309 358 323 355 c 128,-1,27
 337 352 337 352 350 347 c 1,28,-1
 373 381 l 2,29,30
 377 386 377 386 383 387.5 c 128,-1,31
 389 389 389 389 394 387 c 256,32,33
 399 385 399 385 399.5 379.5 c 128,-1,34
 400 374 400 374 397 369 c 2,35,-1
 375 335 l 1,36,37
 391 321 l 128,-1,38
 399 314 399 314 405 305 c 0,0,1
131 68 m 1,39,40
 138 56 138 56 153 48 c 1,41,-1
 331 317 l 1,42,43
 312 325 312 325 286 325 c 0,44,45
 250 325 250 325 220.5 312.5 c 128,-1,46
 191 300 191 300 168.5 279 c 128,-1,47
 146 258 146 258 131 231 c 128,-1,48
 116 204 116 204 110 176 c 0,49,50
 103 146 103 146 108.5 117.5 c 128,-1,51
 114 89 114 89 131 68 c 1,39,40
225 28 m 0,52,53
 273 28 273 28 313.5 55 c 128,-1,54
 354 82 354 82 377.5 121.5 c 128,-1,55
 401 161 401 161 404 205 c 128,-1,56
 407 249 407 249 380 283 c 0,57,58
 374 289 374 289 368 294.5 c 128,-1,59
 362 300 362 300 354 304 c 1,60,-1
 175 36 l 1,61,62
 186 33 186 33 199 30.5 c 128,-1,63
 212 28 212 28 225 28 c 0,52,53
EndSplineSet
EndChar
StartChar: thorn
Encoding: 254 254 191
Width: 460
Flags: W
Fore
319 366 m 0,0,1
 366 366 366 366 398 347 c 128,-1,2
 430 328 430 328 446.5 298 c 128,-1,3
 463 268 463 268 465.5 230.5 c 128,-1,4
 468 193 468 193 457 156 c 0,5,6
 446 121 446 121 425.5 91 c 128,-1,7
 405 61 405 61 376.5 38 c 128,-1,8
 348 15 348 15 311.5 2 c 128,-1,9
 275 -11 275 -11 233 -11 c 0,10,11
 216 -11 216 -11 196.5 -6.5 c 128,-1,12
 177 -2 177 -2 159.5 8 c 128,-1,13
 142 18 142 18 129.5 32.5 c 128,-1,14
 117 47 117 47 114 67 c 1,15,-1
 72 -131 l 2,16,17
 66 -157 66 -157 47 -157 c 256,18,19
 28 -157 28 -157 34 -131 c 2,20,-1
 162 474 l 2,21,22
 168 500 168 500 187 500 c 256,23,24
 206 500 206 500 200 474 c 2,25,-1
 161 288 l 1,26,27
 171 301 171 301 188 315 c 128,-1,28
 205 329 205 329 226 340.5 c 128,-1,29
 247 352 247 352 271 359 c 128,-1,30
 295 366 295 366 319 366 c 0,0,1
240 24 m 0,31,32
 274 22 274 22 304.5 32.5 c 128,-1,33
 335 43 335 43 359.5 64 c 128,-1,34
 384 85 384 85 401.5 115 c 128,-1,35
 419 145 419 145 427 183 c 0,36,37
 433 210 433 210 427.5 236 c 128,-1,38
 422 262 422 262 407 283 c 128,-1,39
 392 304 392 304 367.5 316 c 128,-1,40
 343 328 343 328 310 327 c 0,41,42
 280 325 280 325 252 314.5 c 128,-1,43
 224 304 224 304 201 286.5 c 128,-1,44
 178 269 178 269 161.5 247 c 128,-1,45
 145 225 145 225 137 200 c 0,46,47
 114 124 114 124 140 76 c 128,-1,48
 166 28 166 28 240 24 c 0,31,32
EndSplineSet
EndChar
StartChar: Lslash
Encoding: 321 321 193
Width: 456
Flags: W
Fore
421 36 m 2,0,1
 446 36 446 36 443 17 c 0,2,3
 439 0 439 0 414 0 c 2,4,-1
 144 0 l 2,5,6
 109 0 109 0 90 21 c 128,-1,7
 71 42 71 42 79 80 c 2,8,-1
 114 251 l 1,9,-1
 56 220 l 1,10,-1
 63 253 l 1,11,-1
 121 283 l 1,12,-1
 159 458 l 2,13,14
 165 484 165 484 183 484 c 0,15,16
 192 484 192 484 196.5 478 c 128,-1,17
 201 472 201 472 198 458 c 2,18,-1
 165 303 l 1,19,-1
 255 355 l 1,20,-1
 247 319 l 1,21,-1
 158 270 l 1,22,-1
 117 79 l 2,23,24
 112 59 112 59 120.5 47.5 c 128,-1,25
 129 36 129 36 152 36 c 2,26,-1
 421 36 l 2,0,1
EndSplineSet
EndChar
StartChar: lslash
Encoding: 322 322 194
Width: 162
Flags: W
Fore
221 320 m 1,0,-1
 213 286 l 1,1,-1
 152 253 l 1,2,-1
 104 26 l 2,3,4
 98 -1 98 -1 80 -1 c 256,5,6
 62 -1 62 -1 68 26 c 2,7,-1
 112 235 l 1,8,-1
 53 204 l 1,9,-1
 60 237 l 1,10,-1
 119 268 l 1,11,-1
 179 548 l 2,12,13
 185 575 185 575 203 575 c 256,14,15
 221 575 221 575 215 548 c 2,16,-1
 159 286 l 1,17,-1
 221 320 l 1,0,-1
EndSplineSet
EndChar
StartChar: OE
Encoding: 338 338 195
Width: 873
Flags: W
Fore
538 369 m 1,0,1
 554 400 554 400 579 423 c 128,-1,2
 604 446 604 446 633.5 461 c 128,-1,3
 663 476 663 476 694 483 c 128,-1,4
 725 490 725 490 753 490 c 0,5,6
 795 490 795 490 825.5 482.5 c 128,-1,7
 856 475 856 475 877 463 c 128,-1,8
 898 451 898 451 909.5 435.5 c 128,-1,9
 921 420 921 420 925 404 c 0,10,11
 927 397 927 397 925.5 389.5 c 128,-1,12
 924 382 924 382 916 378 c 0,13,14
 908 373 908 373 900 375 c 128,-1,15
 892 377 892 377 890 384 c 0,16,17
 879 415 879 415 845.5 434 c 128,-1,18
 812 453 812 453 741 453 c 0,19,20
 712 453 712 453 682.5 443.5 c 128,-1,21
 653 434 653 434 628 416.5 c 128,-1,22
 603 399 603 399 584.5 375.5 c 128,-1,23
 566 352 566 352 560 323 c 2,24,-1
 547 261 l 1,25,-1
 763 261 l 2,26,27
 790 261 790 261 786 243 c 0,28,29
 782 224 782 224 755 224 c 2,30,-1
 539 224 l 1,31,-1
 526 162 l 2,32,33
 519 130 519 130 527 106 c 128,-1,34
 535 82 535 82 553 65.5 c 128,-1,35
 571 49 571 49 596.5 40.5 c 128,-1,36
 622 32 622 32 651 32 c 0,37,38
 722 32 722 32 764 51 c 128,-1,39
 806 70 806 70 830 101 c 0,40,41
 835 108 835 108 844 110 c 128,-1,42
 853 112 853 112 858 107 c 1,43,44
 864 103 864 103 863.5 95.5 c 128,-1,45
 863 88 863 88 858 81 c 0,46,47
 847 65 847 65 828 49.5 c 128,-1,48
 809 34 809 34 783 22 c 128,-1,49
 757 10 757 10 723 2.5 c 128,-1,50
 689 -5 689 -5 647 -5 c 0,51,52
 619 -5 619 -5 591 2 c 128,-1,53
 563 9 563 9 540 23 c 128,-1,54
 517 37 517 37 501.5 59.5 c 128,-1,55
 486 82 486 82 484 114 c 1,56,57
 443 58 443 58 384.5 26.5 c 128,-1,58
 326 -5 326 -5 258 -5 c 0,59,60
 210 -5 210 -5 172 13 c 128,-1,61
 134 31 134 31 110.5 63.5 c 128,-1,62
 87 96 87 96 79 141.5 c 128,-1,63
 71 187 71 187 83 242 c 256,64,65
 95 297 95 297 121.5 343 c 128,-1,66
 148 389 148 389 185.5 421.5 c 128,-1,67
 223 454 223 454 269 472 c 128,-1,68
 315 490 315 490 364 490 c 0,69,70
 433 490 433 490 477 457.5 c 128,-1,71
 521 425 521 425 538 369 c 1,0,1
503 242 m 0,72,73
 512 285 512 285 507 323.5 c 128,-1,74
 502 362 502 362 483.5 390 c 128,-1,75
 465 418 465 418 432.5 434.5 c 128,-1,76
 400 451 400 451 355 451 c 0,77,78
 311 451 311 451 272.5 435 c 128,-1,79
 234 419 234 419 203 391.5 c 128,-1,80
 172 364 172 364 150.5 325.5 c 128,-1,81
 129 287 129 287 120 242 c 0,82,83
 109 193 109 193 116 154.5 c 128,-1,84
 123 116 123 116 143.5 89 c 128,-1,85
 164 62 164 62 196 48 c 128,-1,86
 228 34 228 34 267 34 c 0,87,88
 310 34 310 34 348.5 49.5 c 128,-1,89
 387 65 387 65 418 92.5 c 128,-1,90
 449 120 449 120 471 158 c 128,-1,91
 493 196 493 196 503 242 c 0,72,73
EndSplineSet
EndChar
StartChar: oe
Encoding: 339 339 196
Width: 782
Flags: W
Fore
744 94 m 0,0,1
 749 88 749 88 747 77.5 c 128,-1,2
 745 67 745 67 737 62 c 1,3,4
 706 30 706 30 663 12 c 128,-1,5
 620 -6 620 -6 566 -6 c 0,6,7
 503 -6 503 -6 463.5 20 c 128,-1,8
 424 46 424 46 413 94 c 1,9,10
 381 46 381 46 330.5 23 c 128,-1,11
 280 0 280 0 223 0 c 0,12,13
 184 0 184 0 152 12 c 128,-1,14
 120 24 120 24 99 47.5 c 128,-1,15
 78 71 78 71 70 104.5 c 128,-1,16
 62 138 62 138 71 180 c 0,17,18
 78 213 78 213 94.5 245 c 128,-1,19
 111 277 111 277 139 302.5 c 128,-1,20
 167 328 167 328 206.5 344 c 128,-1,21
 246 360 246 360 299 360 c 0,22,23
 362 360 362 360 401 333 c 128,-1,24
 440 306 440 306 451 259 c 1,25,26
 480 301 480 301 530.5 330 c 128,-1,27
 581 359 581 359 646 359 c 0,28,29
 674 359 674 359 695 354.5 c 128,-1,30
 716 350 716 350 731 342.5 c 128,-1,31
 746 335 746 335 756.5 326 c 128,-1,32
 767 317 767 317 773 308 c 0,33,34
 796 278 796 278 797.5 251 c 128,-1,35
 799 224 799 224 788.5 203.5 c 128,-1,36
 778 183 778 183 760.5 171.5 c 128,-1,37
 743 160 743 160 729 160 c 2,38,-1
 450 160 l 1,39,40
 442 100 442 100 477.5 66.5 c 128,-1,41
 513 33 513 33 575 33 c 0,42,43
 620 33 620 33 654.5 48 c 128,-1,44
 689 63 689 63 713 86 c 0,45,46
 721 94 721 94 729.5 97 c 128,-1,47
 738 100 738 100 744 94 c 0,0,1
417 185 m 2,48,49
 428 249 428 249 392 286 c 128,-1,50
 356 323 356 323 291 323 c 0,51,52
 259 323 259 323 229 313.5 c 128,-1,53
 199 304 199 304 174.5 286 c 128,-1,54
 150 268 150 268 131.5 241.5 c 128,-1,55
 113 215 113 215 106 180 c 0,56,57
 92 114 92 114 127.5 75.5 c 128,-1,58
 163 37 163 37 230 37 c 0,59,60
 281 37 281 37 315 53.5 c 128,-1,61
 349 70 349 70 370 93 c 128,-1,62
 391 116 391 116 401.5 140 c 128,-1,63
 412 164 412 164 416 180 c 2,64,-1
 417 185 l 2,48,49
730 198 m 2,65,66
 739 198 739 198 745 207 c 128,-1,67
 751 216 751 216 752.5 229 c 128,-1,68
 754 242 754 242 751 256.5 c 128,-1,69
 748 271 748 271 739 281 c 0,70,71
 728 293 728 293 706 306.5 c 128,-1,72
 684 320 684 320 638 320 c 0,73,74
 593 320 593 320 560.5 305 c 128,-1,75
 528 290 528 290 507 269.5 c 128,-1,76
 486 249 486 249 474.5 228.5 c 128,-1,77
 463 208 463 208 459 198 c 1,78,-1
 730 198 l 2,65,66
EndSplineSet
EndChar
StartChar: florin
Encoding: 402 402 202
Width: 357
Flags: W
Fore
362 458 m 0,0,1
 346 448 346 448 335 430.5 c 128,-1,2
 324 413 324 413 316 395 c 0,3,4
 314 389 314 389 310 377 c 128,-1,5
 306 365 306 365 300.5 351 c 128,-1,6
 295 337 295 337 289.5 322.5 c 128,-1,7
 284 308 284 308 278 297 c 1,8,-1
 352 297 l 1,9,-1
 339 269 l 1,10,-1
 269 269 l 1,11,12
 261 248 261 248 246 213 c 128,-1,13
 231 178 231 178 217 145 c 0,14,15
 200 106 200 106 182 64 c 0,16,17
 174 46 174 46 159.5 17.5 c 128,-1,18
 145 -11 145 -11 125.5 -38 c 128,-1,19
 106 -65 106 -65 83.5 -84.5 c 128,-1,20
 61 -104 61 -104 38 -104 c 0,21,22
 21 -104 21 -104 14 -95 c 128,-1,23
 7 -86 7 -86 8.5 -75 c 128,-1,24
 10 -64 10 -64 19 -55 c 128,-1,25
 28 -46 28 -46 44 -46 c 0,26,27
 52 -46 52 -46 55 -49 c 128,-1,28
 58 -52 58 -52 59.5 -56 c 128,-1,29
 61 -60 61 -60 63 -62.5 c 128,-1,30
 65 -65 65 -65 71 -65 c 1,31,32
 85 -57 85 -57 97 -40 c 128,-1,33
 109 -23 109 -23 119 -2.5 c 128,-1,34
 129 18 129 18 137 38.5 c 128,-1,35
 145 59 145 59 152 74 c 2,36,-1
 235 270 l 1,37,-1
 154 270 l 1,38,-1
 168 298 l 1,39,-1
 245 298 l 1,40,41
 263 340 263 340 282.5 379 c 128,-1,42
 302 418 302 418 330 455 c 0,43,44
 340 468 340 468 353 478 c 128,-1,45
 366 488 366 488 379 493 c 128,-1,46
 392 498 392 498 404.5 498 c 128,-1,47
 417 498 417 498 426 490 c 0,48,49
 438 480 438 480 435.5 468.5 c 128,-1,50
 433 457 433 457 424 450 c 128,-1,51
 415 443 415 443 403 442.5 c 128,-1,52
 391 442 391 442 383 454 c 1,53,54
 380 462 380 462 373.5 461.5 c 128,-1,55
 367 461 367 461 362 458 c 0,0,1
EndSplineSet
EndChar
StartChar: circumflex
Encoding: 710 710 203
Width: 321
Flags: W
Fore
267 563 m 2,0,1
 286 579 286 579 296 563 c 1,2,-1
 356 492 l 2,3,4
 360 487 360 487 358 480 c 128,-1,5
 356 473 356 473 351 468 c 1,6,7
 344 463 344 463 337 463 c 128,-1,8
 330 463 330 463 326 468 c 2,9,-1
 274 530 l 1,10,-1
 195 468 l 2,11,12
 189 463 189 463 181.5 463 c 128,-1,13
 174 463 174 463 171 468 c 1,14,15
 166 473 166 473 168 480 c 128,-1,16
 170 487 170 487 176 492 c 2,17,-1
 267 563 l 2,0,1
EndSplineSet
EndChar
StartChar: caron
Encoding: 711 711 204
Width: 321
Flags: W
Fore
190 559 m 2,0,1
 186 564 186 564 187.5 571 c 128,-1,2
 189 578 189 578 195 583 c 256,3,4
 201 588 201 588 208.5 588 c 128,-1,5
 216 588 216 588 219 583 c 1,6,-1
 272 521 l 1,7,-1
 350 583 l 2,8,9
 357 588 357 588 364 588 c 128,-1,10
 371 588 371 588 375 583 c 256,11,12
 379 578 379 578 377.5 571 c 128,-1,13
 376 564 376 564 370 559 c 2,14,-1
 280 488 l 2,15,16
 263 473 263 473 251 488 c 2,17,-1
 190 559 l 2,0,1
EndSplineSet
EndChar
StartChar: breve
Encoding: 728 728 205
Width: 300
Flags: W
Fore
369 528 m 1,0,1
 364 506 364 506 351.5 486.5 c 128,-1,2
 339 467 339 467 321.5 452 c 128,-1,3
 304 437 304 437 283 428.5 c 128,-1,4
 262 420 262 420 239 420 c 0,5,6
 217 420 217 420 198.5 428.5 c 128,-1,7
 180 437 180 437 169.5 452 c 128,-1,8
 159 467 159 467 154.5 486.5 c 128,-1,9
 150 506 150 506 155 528 c 1,10,-1
 190 528 l 1,11,12
 183 494 183 494 198 473.5 c 128,-1,13
 213 453 213 453 246 453 c 0,14,15
 280 453 280 453 303.5 473.5 c 128,-1,16
 327 494 327 494 334 528 c 1,17,-1
 369 528 l 1,0,1
EndSplineSet
EndChar
StartChar: dotaccent
Encoding: 729 729 206
Width: 158
Flags: W
Fore
141 462 m 0,0,1
 144 477 144 477 156.5 487.5 c 128,-1,2
 169 498 169 498 184 498 c 256,3,4
 199 498 199 498 207.5 487.5 c 128,-1,5
 216 477 216 477 213 462 c 0,6,7
 209 447 209 447 196.5 436.5 c 128,-1,8
 184 426 184 426 169 426 c 256,9,10
 154 426 154 426 145.5 436.5 c 128,-1,11
 137 447 137 447 141 462 c 0,0,1
EndSplineSet
EndChar
StartChar: ring
Encoding: 730 730 207
Width: 278
Flags: W
Fore
252 520 m 0,0,1
 275 520 275 520 288 502 c 128,-1,2
 301 484 301 484 296 460 c 256,3,4
 291 436 291 436 270.5 418.5 c 128,-1,5
 250 401 250 401 227 401 c 0,6,7
 201 401 201 401 187.5 418.5 c 128,-1,8
 174 436 174 436 179 460 c 256,9,10
 184 484 184 484 205 502 c 128,-1,11
 226 520 226 520 252 520 c 0,0,1
233 430 m 0,12,13
 244 430 244 430 255 439 c 128,-1,14
 266 448 266 448 268 460 c 0,15,16
 271 472 271 472 264 481 c 128,-1,17
 257 490 257 490 246 490 c 0,18,19
 232 490 232 490 220.5 481 c 128,-1,20
 209 472 209 472 206 460 c 0,21,22
 204 448 204 448 211.5 439 c 128,-1,23
 219 430 219 430 233 430 c 0,12,13
EndSplineSet
EndChar
StartChar: tilde
Encoding: 732 732 209
Width: 226
Flags: W
Fore
127 402 m 1,0,-1
 101 402 l 1,1,2
 105 419 105 419 114 434 c 128,-1,3
 123 449 123 449 135 458.5 c 128,-1,4
 147 468 147 468 161.5 470.5 c 128,-1,5
 176 473 176 473 193 465 c 0,6,7
 195 464 195 464 201.5 461 c 128,-1,8
 208 458 208 458 215.5 455 c 128,-1,9
 223 452 223 452 229.5 449 c 128,-1,10
 236 446 236 446 238 445 c 0,11,12
 249 440 249 440 257 441.5 c 128,-1,13
 265 443 265 443 270.5 448 c 128,-1,14
 276 453 276 453 279.5 460 c 128,-1,15
 283 467 283 467 285 474 c 1,16,-1
 308 474 l 1,17,18
 302 447 302 447 290.5 432.5 c 128,-1,19
 279 418 279 418 266 412 c 128,-1,20
 253 406 253 406 240.5 407 c 128,-1,21
 228 408 228 408 221 411 c 0,22,23
 218 412 218 412 211 415.5 c 128,-1,24
 204 419 204 419 196 422.5 c 128,-1,25
 188 426 188 426 181.5 429 c 128,-1,26
 175 432 175 432 174 433 c 1,27,28
 165 437 165 437 157 434.5 c 128,-1,29
 149 432 149 432 143 426.5 c 128,-1,30
 137 421 137 421 133 414 c 128,-1,31
 129 407 129 407 127 402 c 1,0,-1
EndSplineSet
EndChar
StartChar: uni0E01
Encoding: 3585 3585 212
Width: 487
Flags: W
Fore
442 20 m 2,0,1
 440 12 440 12 433.5 6 c 128,-1,2
 427 0 427 0 419 0 c 256,3,4
 411 0 411 0 406 6 c 128,-1,5
 401 12 401 12 403 20 c 0,6,7
 420 101 420 101 429 145 c 128,-1,8
 438 189 438 189 443 209 c 0,9,10
 448 233 448 233 449 237 c 0,11,12
 464 309 464 309 433 338 c 128,-1,13
 402 367 402 367 334 367 c 0,14,15
 289 367 289 367 256.5 354 c 128,-1,16
 224 341 224 341 201 323 c 128,-1,17
 178 305 178 305 164.5 286 c 128,-1,18
 151 267 151 267 145 255 c 1,19,20
 153 250 153 250 166.5 242 c 128,-1,21
 180 234 180 234 192 227 c 1,22,23
 204 239 204 239 225 247 c 0,24,25
 233 250 233 250 239.5 247 c 128,-1,26
 246 244 246 244 248 236 c 256,27,28
 250 228 250 228 245 221 c 128,-1,29
 240 214 240 214 232 211 c 0,30,31
 218 206 218 206 209.5 197 c 128,-1,32
 201 188 201 188 196 179 c 128,-1,33
 191 170 191 170 189 163 c 128,-1,34
 187 156 187 156 187 155 c 0,35,36
 177 120 177 120 171 86 c 128,-1,37
 165 52 165 52 159 20 c 0,38,39
 157 12 157 12 151 6 c 128,-1,40
 145 0 145 0 137 0 c 256,41,42
 129 0 129 0 123.5 5.5 c 128,-1,43
 118 11 118 11 120 19 c 0,44,45
 125 51 125 51 131.5 85 c 128,-1,46
 138 119 138 119 149 157 c 1,47,48
 151 160 151 160 153.5 170.5 c 128,-1,49
 156 181 156 181 164 194 c 1,50,-1
 136 210 l 2,51,52
 110 226 110 226 103.5 232 c 128,-1,53
 97 238 97 238 101 249 c 1,54,55
 102 249 102 249 107.5 261 c 128,-1,56
 113 273 113 273 124.5 290.5 c 128,-1,57
 136 308 136 308 154.5 328 c 128,-1,58
 173 348 173 348 200 365.5 c 128,-1,59
 227 383 227 383 262 394.5 c 128,-1,60
 297 406 297 406 342 406 c 0,61,62
 430 406 430 406 468.5 365.5 c 128,-1,63
 507 325 507 325 488 236 c 2,64,-1
 442 20 l 2,0,1
EndSplineSet
EndChar
StartChar: uni0E02
Encoding: 3586 3586 213
Width: 421
Flags: W
Fore
395 110 m 2,0,1
 381 47 381 47 338 22 c 128,-1,2
 295 -3 295 -3 235 -3 c 256,3,4
 175 -3 175 -3 147 26 c 128,-1,5
 119 55 119 55 132 115 c 0,6,7
 139 149 139 149 159.5 172 c 128,-1,8
 180 195 180 195 203 215 c 128,-1,9
 226 235 226 235 246.5 256 c 128,-1,10
 267 277 267 277 273 307 c 0,11,12
 276 321 276 321 273 339.5 c 128,-1,13
 270 358 270 358 253 366 c 1,14,15
 256 352 256 352 252.5 338.5 c 128,-1,16
 249 325 249 325 240 312.5 c 128,-1,17
 231 300 231 300 218.5 290 c 128,-1,18
 206 280 206 280 191 274 c 0,19,20
 176 267 176 267 161 265.5 c 128,-1,21
 146 264 146 264 133 268 c 128,-1,22
 120 272 120 272 110.5 280.5 c 128,-1,23
 101 289 101 289 98 303 c 0,24,25
 90 334 90 334 111 360 c 128,-1,26
 132 386 132 386 165 400 c 128,-1,27
 198 414 198 414 234.5 413.5 c 128,-1,28
 271 413 271 413 294 390 c 0,29,30
 323 361 323 361 312 307 c 0,31,32
 304 272 304 272 283.5 247.5 c 128,-1,33
 263 223 263 223 239.5 203 c 128,-1,34
 216 183 216 183 196.5 162.5 c 128,-1,35
 177 142 177 142 171 115 c 0,36,37
 162 71 162 71 179.5 51.5 c 128,-1,38
 197 32 197 32 242 32 c 0,39,40
 298 32 298 32 323 54 c 128,-1,41
 348 76 348 76 356 110 c 2,42,-1
 414 384 l 2,43,44
 416 392 416 392 422.5 398 c 128,-1,45
 429 404 429 404 437 404 c 256,46,47
 445 404 445 404 450 398 c 128,-1,48
 455 392 455 392 453 384 c 2,49,-1
 395 110 l 2,0,1
218 353 m 0,50,51
 214 367 214 367 199.5 369.5 c 128,-1,52
 185 372 185 372 168 365 c 0,53,54
 163 363 163 363 156.5 358.5 c 128,-1,55
 150 354 150 354 144 347.5 c 128,-1,56
 138 341 138 341 134.5 333.5 c 128,-1,57
 131 326 131 326 133 318 c 0,58,59
 137 301 137 301 153 300.5 c 128,-1,60
 169 300 169 300 183 306 c 0,61,62
 198 313 198 313 209.5 326 c 128,-1,63
 221 339 221 339 218 353 c 0,50,51
EndSplineSet
EndChar
StartChar: uni0E03
Encoding: 3587 3587 214
Width: 462
Flags: W
Fore
436 112 m 2,0,1
 429 77 429 77 412.5 55 c 128,-1,2
 396 33 396 33 374.5 20 c 128,-1,3
 353 7 353 7 327 2 c 128,-1,4
 301 -3 301 -3 276 -3 c 256,5,6
 251 -3 251 -3 229 3 c 128,-1,7
 207 9 207 9 192 22.5 c 128,-1,8
 177 36 177 36 171 58 c 128,-1,9
 165 80 165 80 172 112 c 0,10,11
 181 152 181 152 200.5 175.5 c 128,-1,12
 220 199 220 199 243.5 217 c 128,-1,13
 267 235 267 235 290 254 c 128,-1,14
 313 273 313 273 329 305 c 0,15,16
 339 326 339 326 338.5 343.5 c 128,-1,17
 338 361 338 361 319 366 c 0,18,19
 311 368 311 368 305 366 c 128,-1,20
 299 364 299 364 294 360 c 128,-1,21
 289 356 289 356 286 352 c 128,-1,22
 283 348 283 348 282 346 c 1,23,24
 283 344 283 344 282.5 343 c 128,-1,25
 282 342 282 342 283 340 c 1,26,27
 281 321 281 321 263 316 c 0,28,29
 255 314 255 314 249 318.5 c 128,-1,30
 243 323 243 323 243 331 c 0,31,32
 242 358 242 358 224.5 365.5 c 128,-1,33
 207 373 207 373 187 370 c 0,34,35
 176 368 176 368 160.5 358 c 128,-1,36
 145 348 145 348 141 338 c 1,37,38
 163 346 163 346 180.5 344.5 c 128,-1,39
 198 343 198 343 209.5 335.5 c 128,-1,40
 221 328 221 328 226 315.5 c 128,-1,41
 231 303 231 303 228 288 c 0,42,43
 226 278 226 278 218.5 267.5 c 128,-1,44
 211 257 211 257 200.5 248.5 c 128,-1,45
 190 240 190 240 176.5 234.5 c 128,-1,46
 163 229 163 229 148 229 c 0,47,48
 113 229 113 229 100.5 254 c 128,-1,49
 88 279 88 279 95 310 c 128,-1,50
 102 341 102 341 126.5 369.5 c 128,-1,51
 151 398 151 398 191 404 c 0,52,53
 215 408 215 408 235 402 c 128,-1,54
 255 396 255 396 267 382 c 1,55,56
 280 394 280 394 298 401.5 c 128,-1,57
 316 409 316 409 336 404 c 0,58,59
 368 396 368 396 374.5 366.5 c 128,-1,60
 381 337 381 337 363 294 c 0,61,62
 349 263 349 263 326.5 242 c 128,-1,63
 304 221 304 221 280.5 202 c 128,-1,64
 257 183 257 183 237.5 162.5 c 128,-1,65
 218 142 218 142 211 112 c 0,66,67
 206 87 206 87 210.5 71.5 c 128,-1,68
 215 56 215 56 225.5 47 c 128,-1,69
 236 38 236 38 251 35 c 128,-1,70
 266 32 266 32 281 32 c 0,71,72
 327 32 327 32 357.5 49.5 c 128,-1,73
 388 67 388 67 397 112 c 2,74,-1
 455 384 l 2,75,76
 457 392 457 392 463.5 398 c 128,-1,77
 470 404 470 404 478 404 c 256,78,79
 486 404 486 404 490.5 398 c 128,-1,80
 495 392 495 392 493 381 c 2,81,-1
 436 112 l 2,0,1
194 288 m 0,82,83
 198 312 198 312 166 312 c 0,84,85
 148 312 148 312 139 305 c 128,-1,86
 130 298 130 298 128 288 c 0,87,88
 126 281 126 281 129 276.5 c 128,-1,89
 132 272 132 272 136.5 269 c 128,-1,90
 141 266 141 266 146.5 265 c 128,-1,91
 152 264 152 264 156 264 c 0,92,93
 170 264 170 264 181 271 c 128,-1,94
 192 278 192 278 194 288 c 0,82,83
EndSplineSet
EndChar
StartChar: uni0E04
Encoding: 3588 3588 215
Width: 470
Flags: W
Fore
425 19 m 2,0,1
 423 11 423 11 415.5 5 c 128,-1,2
 408 -1 408 -1 400 -1 c 256,3,4
 392 -1 392 -1 388 5 c 128,-1,5
 384 11 384 11 386 19 c 0,6,7
 403 100 403 100 412 144 c 128,-1,8
 421 188 421 188 426 208 c 0,9,10
 431 232 431 232 432 236 c 0,11,12
 447 308 447 308 416 337 c 128,-1,13
 385 366 385 366 319 366 c 0,14,15
 248 366 248 366 200 336 c 128,-1,16
 152 306 152 306 137 235 c 2,17,-1
 126 183 l 1,18,19
 148 210 148 210 172 228.5 c 128,-1,20
 196 247 196 247 219 258 c 128,-1,21
 242 269 242 269 263 274 c 128,-1,22
 284 279 284 279 300 278 c 2,23,-1
 301 278 l 2,24,25
 319 278 319 278 332 272 c 128,-1,26
 345 266 345 266 352.5 256.5 c 128,-1,27
 360 247 360 247 362.5 235.5 c 128,-1,28
 365 224 365 224 363 212 c 0,29,30
 357 186 357 186 332.5 166 c 128,-1,31
 308 146 308 146 273 146 c 0,32,33
 260 146 260 146 247.5 150 c 128,-1,34
 235 154 235 154 225.5 162.5 c 128,-1,35
 216 171 216 171 211.5 183 c 128,-1,36
 207 195 207 195 211 212 c 1,37,-1
 211 213 l 1,38,39
 176 191 176 191 149 163.5 c 128,-1,40
 122 136 122 136 108 97 c 1,41,-1
 92 19 l 2,42,43
 90 11 90 11 83 5 c 128,-1,44
 76 -1 76 -1 68 -1 c 256,45,46
 60 -1 60 -1 55.5 5 c 128,-1,47
 51 11 51 11 53 19 c 2,48,-1
 98 235 l 2,49,50
 107 278 107 278 128 310 c 128,-1,51
 149 342 149 342 179 363 c 128,-1,52
 209 384 209 384 247 394.5 c 128,-1,53
 285 405 285 405 328 405 c 0,54,55
 415 405 415 405 452 365 c 128,-1,56
 489 325 489 325 470 235 c 2,57,-1
 425 19 l 2,0,1
328 212 m 0,58,59
 330 222 330 222 324 232.5 c 128,-1,60
 318 243 318 243 293 243 c 0,61,62
 277 243 277 243 263.5 237 c 128,-1,63
 250 231 250 231 246 212 c 0,64,65
 242 195 242 195 254 188 c 128,-1,66
 266 181 266 181 280 181 c 0,67,68
 297 181 297 181 311 190 c 128,-1,69
 325 199 325 199 328 212 c 0,58,59
EndSplineSet
EndChar
StartChar: uni0E05
Encoding: 3589 3589 216
Width: 471
Flags: W
Fore
493 338 m 1,0,-1
 425 17 l 2,1,2
 423 9 423 9 416 3 c 128,-1,3
 409 -3 409 -3 401 -3 c 256,4,5
 393 -3 393 -3 388.5 3 c 128,-1,6
 384 9 384 9 386 17 c 2,7,-1
 455 339 l 2,8,9
 457 348 457 348 451.5 356 c 128,-1,10
 446 364 446 364 423 370 c 1,11,12
 412 358 412 358 401.5 347.5 c 128,-1,13
 391 337 391 337 379.5 329.5 c 128,-1,14
 368 322 368 322 354 317.5 c 128,-1,15
 340 313 340 313 322 313 c 0,16,17
 303 313 303 313 290.5 320 c 128,-1,18
 278 327 278 327 269.5 336.5 c 128,-1,19
 261 346 261 346 255.5 356 c 128,-1,20
 250 366 250 366 245 373 c 1,21,22
 219 370 219 370 201.5 360 c 128,-1,23
 184 350 184 350 172.5 336.5 c 128,-1,24
 161 323 161 323 155.5 308.5 c 128,-1,25
 150 294 150 294 147 282 c 2,26,-1
 128 189 l 1,27,28
 159 226 159 226 204.5 251 c 128,-1,29
 250 276 250 276 298 276 c 0,30,31
 334 276 334 276 349.5 256.5 c 128,-1,32
 365 237 365 237 359 210 c 0,33,34
 352 177 352 177 324.5 160.5 c 128,-1,35
 297 144 297 144 270 144 c 0,36,37
 257 144 257 144 244.5 148.5 c 128,-1,38
 232 153 232 153 222.5 161.5 c 128,-1,39
 213 170 213 170 209 182.5 c 128,-1,40
 205 195 205 195 208 210 c 1,41,-1
 208 211 l 1,42,43
 170 187 170 187 142 154.5 c 128,-1,44
 114 122 114 122 104 77 c 2,45,-1
 91 17 l 2,46,47
 89 9 89 9 82 3 c 128,-1,48
 75 -3 75 -3 67 -3 c 256,49,50
 59 -3 59 -3 54.5 3 c 128,-1,51
 50 9 50 9 52 17 c 0,52,53
 54 29 54 29 56 38 c 128,-1,54
 58 47 58 47 60.5 57.5 c 128,-1,55
 63 68 63 68 66 83.5 c 128,-1,56
 69 99 69 99 74.5 124.5 c 128,-1,57
 80 150 80 150 88 188 c 128,-1,58
 96 226 96 226 108 282 c 0,59,60
 121 340 121 340 159.5 374.5 c 128,-1,61
 198 409 198 409 255 413 c 0,62,63
 268 414 268 414 275.5 405.5 c 128,-1,64
 283 397 283 397 288 386 c 0,65,66
 296 366 296 366 305 357.5 c 128,-1,67
 314 349 314 349 331 349 c 0,68,69
 346 349 346 349 357 354.5 c 128,-1,70
 368 360 368 360 388 383 c 0,71,72
 396 393 396 393 407 403 c 128,-1,73
 418 413 418 413 433 410 c 0,74,75
 439 408 439 408 450.5 404.5 c 128,-1,76
 462 401 462 401 473 392.5 c 128,-1,77
 484 384 484 384 491 371 c 128,-1,78
 498 358 498 358 494 339 c 1,79,-1
 493 338 l 1,0,-1
325 210 m 0,80,81
 328 225 328 225 316 233.5 c 128,-1,82
 304 242 304 242 291 242 c 0,83,84
 277 242 277 242 262 234 c 128,-1,85
 247 226 247 226 243 210 c 0,86,87
 240 194 240 194 252 186.5 c 128,-1,88
 264 179 264 179 278 179 c 0,89,90
 295 179 295 179 309 188 c 128,-1,91
 323 197 323 197 325 210 c 0,80,81
EndSplineSet
EndChar
StartChar: uni0E06
Encoding: 3590 3590 217
Width: 524
Flags: W
Fore
499 114 m 2,0,1
 491 76 491 76 478 52 c 128,-1,2
 465 28 465 28 448.5 15 c 128,-1,3
 432 2 432 2 412.5 -2 c 128,-1,4
 393 -6 393 -6 371 -4 c 0,5,6
 354 -2 354 -2 334 12.5 c 128,-1,7
 314 27 314 27 297 44 c 128,-1,8
 280 61 280 61 268 75.5 c 128,-1,9
 256 90 256 90 255 92 c 1,10,11
 252 78 252 78 245 61 c 128,-1,12
 238 44 238 44 225.5 30 c 128,-1,13
 213 16 213 16 194.5 6.5 c 128,-1,14
 176 -3 176 -3 149 -2 c 0,15,16
 126 -1 126 -1 111.5 13.5 c 128,-1,17
 97 28 97 28 94 53 c 0,18,19
 91 77 91 77 101.5 107.5 c 128,-1,20
 112 138 112 138 142 160 c 0,21,22
 158 172 158 172 172.5 175 c 128,-1,23
 187 178 187 178 198.5 177 c 128,-1,24
 210 176 210 176 218 172.5 c 128,-1,25
 226 169 226 169 228 168 c 1,26,-1
 229 168 l 1,27,28
 231 178 231 178 232 182 c 256,29,30
 233 186 233 186 233 188 c 1,31,32
 240 220 240 220 261.5 241 c 128,-1,33
 283 262 283 262 304 279 c 0,34,35
 326 297 326 297 340.5 312 c 128,-1,36
 355 327 355 327 347 350 c 0,37,38
 340 367 340 367 321.5 366.5 c 128,-1,39
 303 366 303 366 293 346 c 1,40,41
 294 344 294 344 293.5 342.5 c 128,-1,42
 293 341 293 341 294 339 c 1,43,44
 293 331 293 331 287.5 324.5 c 128,-1,45
 282 318 282 318 274 316 c 256,46,47
 266 314 266 314 260.5 318 c 128,-1,48
 255 322 255 322 254 330 c 0,49,50
 251 354 251 354 235.5 362 c 128,-1,51
 220 370 220 370 201.5 367 c 128,-1,52
 183 364 183 364 167.5 353 c 128,-1,53
 152 342 152 342 149 327 c 1,54,55
 161 336 161 336 178 337 c 128,-1,56
 195 338 195 338 209.5 331 c 128,-1,57
 224 324 224 324 232 310.5 c 128,-1,58
 240 297 240 297 236 277 c 0,59,60
 231 252 231 252 208.5 235 c 128,-1,61
 186 218 186 218 157 218 c 0,62,63
 133 218 133 218 119 230.5 c 128,-1,64
 105 243 105 243 100.5 262 c 128,-1,65
 96 281 96 281 100.5 303.5 c 128,-1,66
 105 326 105 326 118.5 346.5 c 128,-1,67
 132 367 132 367 153 382.5 c 128,-1,68
 174 398 174 398 202 403 c 0,69,70
 225 407 225 407 244.5 401.5 c 128,-1,71
 264 396 264 396 276 383 c 1,72,73
 289 396 289 396 305.5 403.5 c 128,-1,74
 322 411 322 411 340 404 c 0,75,76
 370 393 370 393 379 372 c 128,-1,77
 388 351 388 351 382.5 328.5 c 128,-1,78
 377 306 377 306 361.5 285.5 c 128,-1,79
 346 265 346 265 328 255 c 0,80,81
 309 241 309 241 293 224 c 128,-1,82
 277 207 277 207 272 188 c 2,83,-1
 264 146 l 1,84,85
 268 141 268 141 282 124 c 128,-1,86
 296 107 296 107 314 88 c 128,-1,87
 332 69 332 69 351 53 c 128,-1,88
 370 37 370 37 384 35 c 0,89,90
 402 32 402 32 414 35 c 128,-1,91
 426 38 426 38 434.5 47 c 128,-1,92
 443 56 443 56 449 72.5 c 128,-1,93
 455 89 455 89 460 114 c 2,94,-1
 517 384 l 2,95,96
 519 392 519 392 526 398 c 128,-1,97
 533 404 533 404 541 404 c 256,98,99
 549 404 549 404 553.5 398 c 128,-1,100
 558 392 558 392 556 384 c 2,101,-1
 499 114 l 2,0,1
202 277 m 0,102,103
 205 290 205 290 196.5 295.5 c 128,-1,104
 188 301 188 301 174 301 c 0,105,106
 167 301 167 301 153 296 c 128,-1,107
 139 291 139 291 136 277 c 0,108,109
 134 265 134 265 142.5 259 c 128,-1,110
 151 253 151 253 164 253 c 0,111,112
 178 253 178 253 189 260 c 128,-1,113
 200 267 200 267 202 277 c 0,102,103
216 85 m 0,114,115
 219 99 219 99 218 113 c 128,-1,116
 217 127 217 127 201 135 c 0,117,118
 186 142 186 142 172.5 136.5 c 128,-1,119
 159 131 159 131 149.5 119 c 128,-1,120
 140 107 140 107 135 92 c 128,-1,121
 130 77 130 77 132 65 c 0,122,123
 133 58 133 58 138.5 47 c 128,-1,124
 144 36 144 36 159 35 c 0,125,126
 171 34 171 34 181 38.5 c 128,-1,127
 191 43 191 43 198 50.5 c 128,-1,128
 205 58 205 58 209.5 67 c 128,-1,129
 214 76 214 76 216 85 c 0,114,115
EndSplineSet
EndChar
StartChar: uni0E07
Encoding: 3591 3591 218
Width: 375
Flags: W
Fore
398 341 m 1,0,1
 398 339 398 339 395.5 328.5 c 128,-1,2
 393 318 393 318 389.5 301.5 c 128,-1,3
 386 285 386 285 381.5 265 c 128,-1,4
 377 245 377 245 373 224 c 0,5,6
 362 175 362 175 350 114 c 0,7,8
 338 63 338 63 317 38.5 c 128,-1,9
 296 14 296 14 278 5 c 0,10,11
 250 -9 250 -9 218.5 -4.5 c 128,-1,12
 187 0 187 0 158 21 c 0,13,14
 138 34 138 34 120.5 55.5 c 128,-1,15
 103 77 103 77 91 103 c 128,-1,16
 79 129 79 129 75.5 159.5 c 128,-1,17
 72 190 72 190 80 223 c 0,18,19
 82 231 82 231 89 236.5 c 128,-1,20
 96 242 96 242 104 242 c 256,21,22
 112 242 112 242 116.5 236 c 128,-1,23
 121 230 121 230 119 222 c 0,24,25
 113 196 113 196 116 171.5 c 128,-1,26
 119 147 119 147 128.5 124.5 c 128,-1,27
 138 102 138 102 153 84 c 128,-1,28
 168 66 168 66 185 54 c 0,29,30
 207 39 207 39 228 35 c 128,-1,31
 249 31 249 31 266 39 c 0,32,33
 286 49 286 49 296 71.5 c 128,-1,34
 306 94 306 94 311 114 c 2,35,-1
 347 283 l 1,36,37
 338 279 338 279 326.5 277 c 128,-1,38
 315 275 315 275 306 275 c 0,39,40
 292 275 292 275 279 279.5 c 128,-1,41
 266 284 266 284 257 293 c 128,-1,42
 248 302 248 302 244.5 314 c 128,-1,43
 241 326 241 326 244 341 c 0,44,45
 250 369 250 369 276 388 c 128,-1,46
 302 407 302 407 334 407 c 0,47,48
 372 407 372 407 388 388.5 c 128,-1,49
 404 370 404 370 398 341 c 1,0,1
361 341 m 0,50,51
 364 357 364 357 352.5 364.5 c 128,-1,52
 341 372 341 372 327 372 c 256,53,54
 313 372 313 372 298 365 c 128,-1,55
 283 358 283 358 279 341 c 256,56,57
 275 324 275 324 287 317 c 128,-1,58
 299 310 299 310 313 310 c 0,59,60
 330 310 330 310 344 319 c 128,-1,61
 358 328 358 328 361 341 c 0,50,51
EndSplineSet
EndChar
StartChar: uni0E08
Encoding: 3592 3592 219
Width: 445
Flags: W
Fore
412 78 m 2,0,1
 404 39 404 39 379 19 c 128,-1,2
 354 -1 354 -1 328 -3 c 0,3,4
 314 -4 314 -4 301.5 -0.5 c 128,-1,5
 289 3 289 3 279 12 c 128,-1,6
 269 21 269 21 263 34.5 c 128,-1,7
 257 48 257 48 258 67 c 0,8,9
 259 94 259 94 259.5 110.5 c 128,-1,10
 260 127 260 127 260 135 c 2,11,-1
 260 148 l 1,12,13
 236 132 236 132 208 132 c 0,14,15
 194 132 194 132 181 137 c 128,-1,16
 168 142 168 142 159 150.5 c 128,-1,17
 150 159 150 159 146.5 171 c 128,-1,18
 143 183 143 183 146 198 c 0,19,20
 149 212 149 212 157.5 224 c 128,-1,21
 166 236 166 236 178 245 c 128,-1,22
 190 254 190 254 205 259.5 c 128,-1,23
 220 265 220 265 236 265 c 0,24,25
 257 265 257 265 269.5 258 c 128,-1,26
 282 251 282 251 289.5 239.5 c 128,-1,27
 297 228 297 228 299 214 c 128,-1,28
 301 200 301 200 301 186 c 1,29,30
 300 184 300 184 300 172 c 0,31,32
 299 161 299 161 299 138.5 c 128,-1,33
 299 116 299 116 297 74 c 0,34,35
 296 54 296 54 307.5 44 c 128,-1,36
 319 34 319 34 333 36 c 0,37,38
 365 39 365 39 373 78 c 2,39,-1
 408 243 l 2,40,41
 422 310 422 310 397.5 338 c 128,-1,42
 373 366 373 366 304 366 c 0,43,44
 257 366 257 366 224.5 352.5 c 128,-1,45
 192 339 192 339 170 320 c 128,-1,46
 148 301 148 301 136 281 c 128,-1,47
 124 261 124 261 119 249 c 0,48,49
 112 230 112 230 93 234 c 0,50,51
 86 236 86 236 83 242.5 c 128,-1,52
 80 249 80 249 83 257 c 0,53,54
 88 269 88 269 102.5 294 c 128,-1,55
 117 319 117 319 144 343.5 c 128,-1,56
 171 368 171 368 212.5 386.5 c 128,-1,57
 254 405 254 405 313 405 c 0,58,59
 395 405 395 405 430 365 c 128,-1,60
 465 325 465 325 447 243 c 2,61,-1
 412 78 l 2,0,1
263 198 m 0,62,63
 266 214 266 214 254 222 c 128,-1,64
 242 230 242 230 228 230 c 256,65,66
 214 230 214 230 199 222 c 128,-1,67
 184 214 184 214 181 198 c 0,68,69
 177 182 177 182 189 174.5 c 128,-1,70
 201 167 201 167 215 167 c 0,71,72
 232 167 232 167 246 176 c 128,-1,73
 260 185 260 185 263 198 c 0,62,63
EndSplineSet
EndChar
StartChar: uni0E09
Encoding: 3593 3593 220
Width: 483
Flags: W
Fore
479 57 m 0,0,1
 471 34 471 34 456 19.5 c 128,-1,2
 441 5 441 5 423.5 -0.5 c 128,-1,3
 406 -6 406 -6 389 -3.5 c 128,-1,4
 372 -1 372 -1 360 9 c 0,5,6
 350 18 350 18 347.5 34.5 c 128,-1,7
 345 51 345 51 347 60 c 1,8,9
 318 35 318 35 289 16 c 128,-1,10
 260 -3 260 -3 228 -3 c 0,11,12
 176 -3 176 -3 161 21.5 c 128,-1,13
 146 46 146 46 156 90 c 2,14,-1
 165 134 l 1,15,16
 148 127 148 127 128 127 c 0,17,18
 101 127 101 127 82 144 c 128,-1,19
 63 161 63 161 69 190 c 0,20,21
 72 203 72 203 80 214.5 c 128,-1,22
 88 226 88 226 99.5 235 c 128,-1,23
 111 244 111 244 125.5 249 c 128,-1,24
 140 254 140 254 155 254 c 0,25,26
 168 254 168 254 180.5 250 c 128,-1,27
 193 246 193 246 202 238 c 128,-1,28
 211 230 211 230 215.5 218.5 c 128,-1,29
 220 207 220 207 217 193 c 2,30,-1
 195 90 l 2,31,32
 188 60 188 60 197 48 c 128,-1,33
 206 36 206 36 236 36 c 0,34,35
 257 36 257 36 278.5 51 c 128,-1,36
 300 66 300 66 326 88 c 0,37,38
 350 108 350 108 371.5 130 c 128,-1,39
 393 152 393 152 416 157 c 1,40,-1
 432 234 l 2,41,42
 437 260 437 260 438.5 286.5 c 128,-1,43
 440 313 440 313 424 333 c 0,44,45
 412 350 412 350 381 359.5 c 128,-1,46
 350 369 350 369 308 369 c 0,47,48
 264 369 264 369 233 360.5 c 128,-1,49
 202 352 202 352 181.5 340 c 128,-1,50
 161 328 161 328 149 315 c 128,-1,51
 137 302 137 302 133 292 c 1,52,53
 128 284 128 284 120.5 280.5 c 128,-1,54
 113 277 113 277 106 279 c 0,55,56
 98 281 98 281 95.5 288 c 128,-1,57
 93 295 93 295 97 303 c 0,58,59
 104 317 104 317 119.5 335.5 c 128,-1,60
 135 354 135 354 161.5 370 c 128,-1,61
 188 386 188 386 226 397 c 128,-1,62
 264 408 264 408 316 408 c 0,63,64
 367 408 367 408 403.5 395.5 c 128,-1,65
 440 383 440 383 458 361 c 0,66,67
 469 347 469 347 473.5 330.5 c 128,-1,68
 478 314 478 314 478.5 297.5 c 128,-1,69
 479 281 479 281 476.5 264.5 c 128,-1,70
 474 248 474 248 471 234 c 2,71,-1
 454 155 l 1,72,73
 470 153 470 153 478 143 c 128,-1,74
 486 133 486 133 487.5 118.5 c 128,-1,75
 489 104 489 104 486.5 87.5 c 128,-1,76
 484 71 484 71 479 57 c 0,0,1
451 75 m 0,77,78
 456 93 456 93 448.5 105.5 c 128,-1,79
 441 118 441 118 427 118 c 256,80,81
 413 118 413 118 400 105.5 c 128,-1,82
 387 93 387 93 382 75 c 0,83,84
 378 57 378 57 386 44.5 c 128,-1,85
 394 32 394 32 408 32 c 256,86,87
 422 32 422 32 434.5 44.5 c 128,-1,88
 447 57 447 57 451 75 c 0,77,78
180 190 m 0,89,90
 183 205 183 205 172.5 212 c 128,-1,91
 162 219 162 219 148 219 c 256,92,93
 134 219 134 219 120.5 212 c 128,-1,94
 107 205 107 205 104 190 c 0,95,96
 101 176 101 176 112 168.5 c 128,-1,97
 123 161 123 161 136 161 c 0,98,99
 152 161 152 161 165 170 c 128,-1,100
 178 179 178 179 180 190 c 0,89,90
EndSplineSet
EndChar
